<svg width="40" height="48" viewBox="0 0 40 48" fill="none" xmlns="http://www.w3.org/2000/svg">
<path opacity="0.5" fill-rule="evenodd" clip-rule="evenodd" d="M34.5868 8.40061L24.9 5.80505C24.2313 5.62586 23.6892 6.04184 23.6892 6.73416V16.7627C23.6892 17.455 24.2313 18.1615 24.9 18.3407L34.5868 20.9362C35.2555 21.1154 35.7977 20.6994 35.7977 20.0071V9.97862C35.7977 9.2863 35.2555 8.5798 34.5868 8.40061ZM24.9 2.04436C22.2251 1.32762 20.0566 2.99154 20.0566 5.76083V15.7893C20.0566 18.5586 22.2251 21.3846 24.9 22.1013L34.5868 24.6969C37.2617 25.4137 39.4302 23.7497 39.4302 20.9804V10.952C39.4302 8.18266 37.2617 5.35667 34.5868 4.63993L24.9 2.04436Z" fill="white"/>
<path opacity="0.7" fill-rule="evenodd" clip-rule="evenodd" d="M26.9812 16.5707L14.8727 13.3263C14.204 13.1471 13.6618 13.5631 13.6618 14.2554V26.791C13.6618 27.4833 14.204 28.1898 14.8727 28.369L26.9812 31.6135C27.6499 31.7927 28.192 31.3767 28.192 30.6844V18.1488C28.192 17.4564 27.6499 16.7499 26.9812 16.5707ZM14.8727 9.5656C12.1978 8.84886 10.0293 10.5128 10.0293 13.2821V25.8177C10.0293 28.587 12.1978 31.413 14.8727 32.1297L26.9812 35.3742C29.6561 36.0909 31.8245 34.427 31.8245 31.6577V19.1221C31.8245 16.3528 29.6561 13.5268 26.9812 12.8101L14.8727 9.5656Z" fill="white"/>
<path fill-rule="evenodd" clip-rule="evenodd" d="M19.3736 24.7409L4.84339 20.8475C4.17466 20.6683 3.63254 21.0843 3.63254 21.7766V36.8194C3.63254 37.5117 4.17466 38.2182 4.84339 38.3974L19.3736 42.2907C20.0423 42.4699 20.5844 42.0539 20.5844 41.3616V26.3189C20.5844 25.6266 20.0423 24.9201 19.3736 24.7409ZM4.84339 17.0868C2.16846 16.3701 0 18.034 0 20.8033V35.846C0 38.6153 2.16846 41.4413 4.84339 42.1581L19.3736 46.0514C22.0485 46.7682 24.2169 45.1042 24.2169 42.335V27.2922C24.2169 24.5229 22.0485 21.6969 19.3736 20.9802L4.84339 17.0868Z" fill="white"/>
</svg>
