<svg width="47" height="48" viewBox="0 0 47 48" fill="none" xmlns="http://www.w3.org/2000/svg">
<path d="M24.9706 7.03309C21.8464 3.90889 16.781 3.90889 13.6569 7.03309L2.34315 18.3468C-0.781049 21.471 -0.781049 26.5363 2.34315 29.6605L13.6569 40.9742C16.781 44.0984 21.8464 44.0984 24.9706 40.9742L30.3688 35.5759C25.8749 33.8422 22.6868 29.4815 22.6868 24.3762C22.6868 19.0675 26.134 14.5639 30.9122 12.9819C30.8187 12.8837 30.7238 12.7864 30.6274 12.6899L24.9706 7.03309Z" fill="white"/>
<path opacity="0.7" d="M30.3691 35.5798C31.7089 36.0966 33.1646 36.3799 34.6865 36.3799C41.3139 36.3799 46.6865 31.0073 46.6865 24.3799C46.6865 17.7525 41.3139 12.3799 34.6865 12.3799C33.368 12.3799 32.0992 12.5925 30.9125 12.9854C36.8748 19.2535 36.78 29.169 30.6279 35.321L30.3691 35.5798Z" fill="white"/>
</svg>
