<svg width="40" height="48" viewBox="0 0 40 48" fill="none" xmlns="http://www.w3.org/2000/svg">
<path d="M23.4538 34.7189C20.272 33.5371 16.9994 33.3553 13.9994 34.1734C11.9085 34.7189 9.90858 35.8098 8.09043 37.1734L6.8177 38.2643L6.45408 38.6279L7.27224 39.3552C7.36315 39.3552 7.36316 39.4461 7.45407 39.537C7.63588 39.7188 7.81771 39.8097 8.09043 39.9915L8.63585 40.3551L9.1813 39.9006C9.27221 39.8097 9.45403 39.6279 9.63584 39.537C11.2722 38.1734 13.0903 37.2643 14.9994 36.8098C17.4539 36.1734 20.0902 36.2643 22.7265 37.2643C24.9083 38.0825 29.3628 39.0824 34.7263 36.8098L34.9081 36.7188L35.1809 36.4461C35.1809 36.3552 35.2718 36.3552 35.3627 36.2643C35.8172 35.7189 36.2718 35.1734 36.6354 34.5371L38.4535 31.7189L35.5445 33.3552C31.2718 35.7188 27.3628 36.1734 23.4538 34.7189Z" fill="white"/>
<path d="M10.9998 24.9011C13.4543 24.2648 16.0906 24.3557 18.727 25.3557C21.636 26.4466 29.0904 27.992 37.4539 20.4467L39.2721 18.6285L39.0902 18.174C38.9993 17.8104 38.8175 17.3558 38.6357 16.9013L38.1812 15.6286L37.2721 16.5376C37.1812 16.7195 36.9994 16.8104 36.8175 16.9922C32.8176 21.083 26.6359 25.2648 19.5451 22.7194C16.3634 21.5376 13.0907 21.3557 10.0907 22.1739C7.1817 22.9921 4.63628 24.5375 2.27269 26.7193V26.6284L0.909076 28.0829C0.909076 28.1738 0.818185 28.1738 0.727278 28.2647L0.454538 28.5374L0.545451 28.9011C0.636359 29.3556 0.818168 29.8101 0.909076 30.2647L1.45453 31.7192L2.3636 30.5374C2.45451 30.3556 2.63632 30.2647 2.72723 30.0829C4.63628 28.3556 7.27261 25.9011 10.9998 24.9011Z" fill="white"/>
<path d="M2.1818 23.2646C4.27268 21.0828 6.63625 19.7192 9.18167 18.9919C11.6362 18.3556 14.2725 18.4465 16.9088 19.4465C25.0905 22.4464 32.1813 17.5374 35.2721 14.9011L36.4539 13.7193L36.9085 13.3557L36.5448 12.8102C36.2721 12.5375 36.0903 12.1739 35.8176 11.8102L35.2721 11.083L34.6358 11.7193C34.5449 11.8102 34.3631 11.992 34.2721 12.083C30.454 15.7193 24.545 19.4465 17.8179 16.9011C14.6361 15.7193 11.3635 15.5374 8.3635 16.3556C6.45444 16.9011 4.63629 17.8101 2.81814 18.9919L0.909075 20.5374C0.72726 20.7192 0.636353 20.8101 0.454538 20.9919L0.272739 21.1737V21.4464C0.181832 22.0828 0.181821 22.7191 0.0909131 23.2646L0 25.5373L1.54544 23.9009C1.72725 23.7191 1.90908 23.4464 2.1818 23.2646Z" fill="white"/>
<path d="M26.0908 40.9007C25.8181 40.8098 25.6363 40.7188 25.3636 40.6279C22.1818 39.4461 18.9091 39.2643 15.9091 40.0825C15.2728 40.2643 14.6365 40.4461 14.0001 40.7189L11.8183 41.7188L11.2729 41.9916L13.091 42.6279C13.6365 42.8097 14.1819 42.9916 14.7274 43.1734L15.0001 43.2643L15.2728 43.1734C15.5455 43.0825 15.8183 42.9006 16.091 42.9006C16.2728 42.9006 16.4546 42.8097 16.6364 42.7188C18.8182 42.1734 21.1818 42.1734 23.7272 42.9915C23.9999 43.0825 24.1818 43.1734 24.4545 43.2643L24.909 43.4461L25.1817 43.3552C25.8181 43.1734 26.5453 42.9916 27.0908 42.7188L29.6362 41.8098L26.9999 41.1734C26.7272 41.0825 26.3635 40.9916 26.0908 40.9007Z" fill="white"/>
<path d="M40 22.0829L38.6364 23.4465C38.4546 23.6283 38.2728 23.8101 38.091 23.9919C34.3638 27.5373 28.3639 31.3554 21.6367 28.81C18.4549 27.6282 15.1823 27.4464 12.1823 28.2646C9.36419 29.0828 6.81876 30.5373 4.54607 32.7191L3.36428 33.9918L3.00066 34.4463L3.36428 34.9917C3.63701 35.3554 3.81883 35.6281 4.00065 35.9917L4.54607 36.8099L5.18243 35.9917C5.27334 35.9008 5.45515 35.719 5.54606 35.6281C7.72784 33.2645 10.0914 31.81 12.8187 31.0827C15.2732 30.4463 17.9095 30.5373 20.5458 31.5372C22.8185 32.3554 25.1821 32.6281 27.5457 32.3554C31.7274 31.9009 35.9092 29.5373 39 26.901C39.1819 26.7192 39.3636 26.6283 39.5455 26.4464L39.8182 26.1737V25.901C39.8182 25.3555 39.9091 24.7192 39.9091 24.1737L40 22.0829Z" fill="white"/>
<path d="M5.45373 13.7196C5.99918 13.4468 6.63555 13.265 7.18099 13.0832C9.6355 12.4468 12.2718 12.5377 14.9081 13.5377C16.6354 14.1741 18.3626 14.4468 20.2717 14.4468C24.0898 14.4468 27.9079 13.0832 31.4533 10.4469L33.2714 8.99235L32.4533 8.35599C32.1806 8.08326 31.8169 7.81055 31.4533 7.62874L30.9078 7.26511L30.4533 7.62874C30.2715 7.71965 30.1806 7.90146 29.9988 7.99236C25.1807 11.6287 20.3626 12.6287 15.8172 10.9014C12.5445 9.71962 9.27185 9.44689 5.99918 10.4469C5.72646 10.5378 5.45374 10.6287 5.09011 10.7196L4.90831 10.8105L4.63557 11.0832C4.63557 11.1741 4.54468 11.1741 4.45377 11.265C4.09014 11.8105 3.63559 12.265 3.27196 12.8105L1.54472 15.4468L4.36286 13.9923C4.81739 13.9923 5.18101 13.8105 5.45373 13.7196Z" fill="white"/>
<path d="M12.9089 7.53769L13.1816 7.6286C14.3634 8.08314 16.1816 8.53767 18.4542 8.53767C20.8178 8.53767 23.0905 7.99222 25.3632 7.08315L28.1813 5.71954L26.2723 5.0832C25.7269 4.90138 25.1814 4.71957 24.545 4.62866H24.2723L23.9996 4.71955C23.7269 4.81045 23.4541 4.99229 23.1814 5.0832C20.4542 6.08318 17.727 6.265 15.0907 5.53774C14.8179 5.44683 14.5452 5.35591 14.2725 5.265L13.9998 5.17409L13.727 5.265C13.1816 5.44681 12.6362 5.62864 12.0907 5.90136L9.99983 6.81044L12.1816 7.44677C12.3634 7.35587 12.6362 7.44678 12.9089 7.53769Z" fill="white"/>
</svg>
