<svg width="40" height="48" viewBox="0 0 40 48" fill="none" xmlns="http://www.w3.org/2000/svg">
<path opacity="0.5" fill-rule="evenodd" clip-rule="evenodd" d="M4.29111 28.6025C5.19823 29.5044 5.19821 30.9666 4.29108 31.8685L4.24462 31.9147C3.33749 32.8166 1.86674 32.8165 0.959626 31.9146C0.0525083 31.0127 0.0525222 29.5505 0.959657 28.6486L1.00611 28.6024C1.91325 27.7005 3.38399 27.7006 4.29111 28.6025Z" fill="white"/>
<path opacity="0.7" fill-rule="evenodd" clip-rule="evenodd" d="M15.2112 29.298C16.1167 30.2015 16.114 31.6638 15.2052 32.564L8.77096 38.9381C7.8622 39.8383 6.39146 39.8357 5.48597 38.9322C4.58049 38.0287 4.58315 36.5664 5.49191 35.6662L11.9262 29.2921C12.835 28.3919 14.3057 28.3945 15.2112 29.298Z" fill="white"/>
<path opacity="0.5" fill-rule="evenodd" clip-rule="evenodd" d="M23.9431 40.2706C24.6547 39.2093 26.0969 38.9226 27.1643 39.6301L27.3037 39.7224C28.3711 40.4299 28.6595 41.8638 27.9479 42.925C27.2363 43.9863 25.7941 44.2731 24.7267 43.5656L24.5873 43.4732C23.5199 42.7657 23.2315 41.3318 23.9431 40.2706Z" fill="white"/>
<path opacity="0.7" fill-rule="evenodd" clip-rule="evenodd" d="M39.2728 28.4638C40.18 29.3657 40.18 30.8279 39.2728 31.7298L36.1138 34.8706C35.2066 35.7725 33.7359 35.7725 32.8288 34.8706C31.9217 33.9687 31.9217 32.5065 32.8288 31.6046L35.9879 28.4638C36.895 27.5619 38.3657 27.5619 39.2728 28.4638Z" fill="white"/>
<path fill-rule="evenodd" clip-rule="evenodd" d="M39.3197 16.8473C40.2268 17.7492 40.2268 19.2115 39.3197 20.1133L15.9751 43.3231C15.068 44.225 13.5972 44.225 12.6901 43.3231C11.783 42.4212 11.783 40.959 12.6901 40.0571L36.0347 16.8473C36.9418 15.9454 38.4125 15.9454 39.3197 16.8473Z" fill="white"/>
<path fill-rule="evenodd" clip-rule="evenodd" d="M34.905 9.71133C35.8122 10.6132 35.8122 12.0755 34.905 12.9774L21.479 26.3259C20.5719 27.2278 19.1011 27.2278 18.194 26.3259C17.2869 25.424 17.2869 23.9617 18.194 23.0598L31.6201 9.71133C32.5272 8.80944 33.9979 8.80944 34.905 9.71133Z" fill="white"/>
<path fill-rule="evenodd" clip-rule="evenodd" d="M27.8187 5.18362C28.7264 6.0849 28.7274 7.54715 27.8209 8.44965L10.5621 25.6318C9.65563 26.5343 8.18489 26.5353 7.27715 25.634C6.36942 24.7327 6.36843 23.2705 7.27494 22.368L24.5337 5.18582C25.4402 4.28332 26.9109 4.28234 27.8187 5.18362Z" fill="white"/>
<path opacity="0.7" fill-rule="evenodd" clip-rule="evenodd" d="M10.7276 10.6841C11.6332 11.5876 11.6307 13.0498 10.722 13.9501L3.96251 20.6475C3.05382 21.5478 1.58308 21.5453 0.67752 20.6419C-0.228043 19.7384 -0.225512 18.2762 0.683174 17.3758L7.44265 10.6785C8.35133 9.77816 9.82207 9.78067 10.7276 10.6841Z" fill="white"/>
<path opacity="0.5" fill-rule="evenodd" clip-rule="evenodd" d="M14.8678 4.00024C16.1506 4.00024 17.1906 5.03421 17.1906 6.30968V6.54062C17.1906 7.81608 16.1506 8.85005 14.8678 8.85005C13.5849 8.85005 12.5449 7.81608 12.5449 6.54062V6.30968C12.5449 5.03421 13.5849 4.00024 14.8678 4.00024Z" fill="white"/>
</svg>
