<svg width="37" height="48" viewBox="0 0 37 48" fill="none" xmlns="http://www.w3.org/2000/svg">
<path fill-rule="evenodd" clip-rule="evenodd" d="M12.8841 4.30945L5.9999 8.28519L12.889 12.2618L19.7752 8.28605L12.8841 4.30945ZM21.776 11.7497L14.889 15.7259L14.8883 23.6791L21.776 19.702L21.776 11.7497ZM23.776 23.1661L16.8881 27.1433L23.777 31.1198L30.6641 27.1435L23.776 23.1661ZM32.6639 30.6077L25.7771 34.5838V42.536L32.6639 38.5599V30.6077ZM21.7771 42.5364V34.5839L14.888 30.6073V38.5598L21.7771 42.5364ZM10.8883 23.6795L4 19.702V11.7494L10.889 15.7259L10.8883 23.6795ZM10.888 28.2982L1.49986 22.8773C0.571733 22.3414 0 21.3511 0 20.2793V8.28562C0 7.57118 0.381106 6.91099 0.999789 6.55369L11.3836 0.556892C12.3117 0.0209294 13.4552 0.0207382 14.3834 0.556387L24.7756 6.55336C25.3946 6.91056 25.776 7.57094 25.776 8.28562L25.776 19.702L35.664 25.4116C36.2828 25.7689 36.6639 26.4291 36.6639 27.1436V39.1373C36.6639 40.2091 36.0921 41.1994 35.1639 41.7353L24.7771 47.7322C24.1584 48.0894 23.3961 48.0894 22.7773 47.7323L12.3882 41.7354C11.4599 41.1996 10.888 40.2091 10.888 39.1372V28.2982Z" fill="white"/>
</svg>
