<svg width="35" height="48" viewBox="0 0 35 48" fill="none" xmlns="http://www.w3.org/2000/svg">
<path fill-rule="evenodd" clip-rule="evenodd" d="M34.6416 14V22.0492H24.6719V19.7565L34.6416 14Z" fill="white"/>
<path opacity="0.9" fill-rule="evenodd" clip-rule="evenodd" d="M34.6394 14.0001L24.6697 19.7566L17.3184 15.513V4L34.6394 14.0001Z" fill="white"/>
<path opacity="0.8" fill-rule="evenodd" clip-rule="evenodd" d="M17.3207 4V15.513L9.97168 19.7566L0.00195312 14.0001L17.3207 4Z" fill="white"/>
<path opacity="0.7" fill-rule="evenodd" clip-rule="evenodd" d="M9.96973 19.7565V28.2433L0 33.9993V14L9.96973 19.7565Z" fill="white"/>
<path opacity="0.6" fill-rule="evenodd" clip-rule="evenodd" d="M17.3187 32.4871V44L0 33.9994L9.96973 28.2434L17.3187 32.4871Z" fill="white"/>
<path opacity="0.5" fill-rule="evenodd" clip-rule="evenodd" d="M34.6394 33.9994L17.3184 44V32.4871L24.6697 28.2434L34.6394 33.9994Z" fill="white"/>
<path opacity="0.4" fill-rule="evenodd" clip-rule="evenodd" d="M34.6416 25.9507V33.9994L24.6719 28.2434V25.9507H34.6416Z" fill="white"/>
</svg>
