<svg width="40" height="48" viewBox="0 0 40 48" fill="none" xmlns="http://www.w3.org/2000/svg">
<path opacity="0.3" d="M20.0001 4C8.9543 4 0 12.9543 0 24.0001C0 35.0458 8.9543 44.0002 20.0001 44.0002C29.9101 44.0002 38.1367 36.7925 39.7236 27.3334H39.5801C38.0999 33.0842 32.8796 37.3335 26.6668 37.3335C19.303 37.3335 13.3334 31.3639 13.3334 24.0001C13.3334 16.6362 19.303 10.6667 26.6668 10.6667C32.8796 10.6667 38.0999 14.9159 39.5801 20.6667H39.7236C38.1367 11.2076 29.9101 4 20.0001 4Z" fill="white"/>
<path d="M0 24.0001C0 12.9543 8.95434 4 20.0001 4C29.9101 4 38.1367 11.2076 39.7236 20.6667H26.2467C24.7666 14.9159 19.5462 10.6667 13.3334 10.6667C5.96956 10.6667 0 16.6363 0 24.0001Z" fill="white"/>
<path d="M0 24.0002C0 35.0459 8.95434 44.0002 20.0001 44.0002C29.9101 44.0002 38.1367 36.7926 39.7236 27.3335H26.2467C24.7666 33.0843 19.5462 37.3336 13.3334 37.3336C5.96956 37.3336 0 31.364 0 24.0002Z" fill="white"/>
</svg>
