<svg width="40" height="48" viewBox="0 0 40 48" fill="none" xmlns="http://www.w3.org/2000/svg">
<path d="M39.9912 23.4176C39.683 12.6413 30.8504 4 19.9995 4C16.5631 4 13.3292 4.86666 10.5043 6.39332L39.9912 23.4176Z" fill="white"/>
<path d="M7.69233 8.23393C6.86456 8.88101 6.08906 9.59186 5.37321 10.3591L39.1307 29.849C39.4341 28.8553 39.6622 27.8288 39.8084 26.7762L7.69233 8.23393Z" fill="white"/>
<path d="M34.6261 37.6406C33.9103 38.4078 33.1348 39.1187 32.3071 39.7658L0.190699 21.2234C0.336906 20.1707 0.565047 19.1442 0.868474 18.1506L34.6261 37.6406Z" fill="white"/>
<path d="M36.523 35.2717L1.97388 15.3247C2.41053 14.4191 2.91341 13.5514 3.47624 12.728L38.0253 32.6749C37.5887 33.5805 37.0858 34.4482 36.523 35.2717Z" fill="white"/>
<path d="M19.9995 44C23.4361 44 26.6702 43.1333 29.4952 41.6064L0.0078125 24.5819C0.315709 35.3585 9.14844 44 19.9995 44Z" fill="white"/>
</svg>
