<svg width="40" height="48" viewBox="0 0 40 48" fill="none" xmlns="http://www.w3.org/2000/svg">
<path d="M0 9C0 6.23858 2.23858 4 5 4H15C17.7614 4 20 6.23858 20 9V18.8192C20.0002 18.8792 20.0003 18.9395 20.0003 19C20.0003 21.7575 22.2325 23.9936 24.9884 24C24.9923 24 24.9961 24 25 24H35C37.7614 24 40 26.2386 40 29V39C40 41.7614 37.7614 44 35 44H25C22.2386 44 20 41.7614 20 39V29C20 28.9861 20.0001 28.9723 20.0002 28.9584C19.9778 26.2162 17.7479 24 15.0003 24C14.9874 24 14.9745 24 14.9616 24H5C2.23858 24 0 21.7614 0 19V9Z" fill="white"/>
</svg>
