<svg width="42" height="48" viewBox="0 0 42 48" fill="none" xmlns="http://www.w3.org/2000/svg">
<path d="M32 37.123L29.8789 39.2441L22.54 31.9053L22.541 45L21.04 44.999L19.5391 45V31.9062L12.2012 39.2441L10.0801 37.123L21.04 26.1631L32 37.123ZM18.9189 24.042L7.95898 35.002L5.83789 32.8809L13.1768 25.541H0.00195312V22.542H13.1768L5.83789 15.2031L7.95898 13.0811L18.9189 24.042ZM36.2422 15.2031L28.9033 22.542H41.998V25.541H28.9033L36.2422 32.8809L34.1211 35.002L23.1611 24.042L34.1211 13.0811L36.2422 15.2031ZM22.54 16.1777L29.8789 8.83887L32 10.96L21.04 21.9199L10.0801 10.96L12.2012 8.83887L19.54 16.1777V3H22.54V16.1777Z" fill="white"/>
</svg>
