<svg width="38" height="48" viewBox="0 0 38 48" fill="none" xmlns="http://www.w3.org/2000/svg">
<path d="M19 30.5C25.9036 30.5 31.5 36.0964 31.5 43H26.5C26.5 38.8579 23.1421 35.5 19 35.5C14.8579 35.5 11.5 38.8579 11.5 43H6.5C6.5 36.0964 12.0964 30.5 19 30.5ZM0 11.5C6.90356 11.5 12.5 17.0964 12.5 24C12.5 30.9036 6.90356 36.5 0 36.5V31.5C4.14214 31.5 7.5 28.1421 7.5 24C7.5 19.8579 4.14214 16.5 0 16.5V11.5ZM38 16.5C33.8579 16.5 30.5 19.8579 30.5 24C30.5 28.1421 33.8579 31.5 38 31.5V36.5C31.0964 36.5 25.5 30.9036 25.5 24C25.5 17.0964 31.0964 11.5 38 11.5V16.5ZM11.5 5C11.5 9.14214 14.8579 12.5 19 12.5C23.1421 12.5 26.5 9.14214 26.5 5H31.5C31.5 11.9036 25.9036 17.5 19 17.5C12.0964 17.5 6.5 11.9036 6.5 5H11.5Z" fill="white"/>
</svg>
