<svg width="42" height="48" viewBox="0 0 42 48" fill="none" xmlns="http://www.w3.org/2000/svg">
<path fill-rule="evenodd" clip-rule="evenodd" d="M15.2286 4.99951C12.0132 4.99951 9.04205 6.7149 7.43435 9.49951L1.66085 19.4995C0.0531559 22.2841 0.053153 25.7149 1.66085 28.4995L7.43435 38.4995C9.04205 41.2841 12.0132 42.9995 15.2286 42.9995H26.7756C29.991 42.9995 32.9621 41.2841 34.5698 38.4995L40.3433 28.4995C41.951 25.7149 41.951 22.2841 40.3433 19.4995L34.5698 9.49951C32.9621 6.7149 29.991 4.99951 26.7756 4.99951H15.2286ZM26.7756 10.9995L19.5587 10.9995C18.404 10.9995 17.6825 12.2494 18.2607 13.2489C20.0447 16.3327 21.8329 19.4142 23.6143 22.4995C24.1502 23.4277 24.1502 24.5713 23.6143 25.4995C21.8329 28.5849 20.0447 31.6663 18.2607 34.7501C17.6825 35.7496 18.404 36.9995 19.5587 36.9995H26.7756C27.8474 36.9995 28.8378 36.4277 29.3737 35.4995L35.1472 25.4995C35.6831 24.5713 35.6831 23.4277 35.1472 22.4995L29.3737 12.4995C28.8378 11.5713 27.8474 10.9995 26.7756 10.9995Z" fill="white"/>
</svg>
