<svg width="40" height="48" viewBox="0 0 40 48" fill="none" xmlns="http://www.w3.org/2000/svg">
<path fill-rule="evenodd" clip-rule="evenodd" d="M40 24C40 35.0457 31.0457 44 20 44C10.192 44 2.03295 36.94 0.327625 27.6246C0.322485 27.5966 0.317401 27.5685 0.312378 27.5403C0.107119 26.3912 0 25.2081 0 24C0 23.0355 0.0682793 22.0869 0.200267 21.1588C1.44779 12.3868 8.38683 5.44779 17.1588 4.20027C17.1735 4.19817 17.1882 4.1961 17.203 4.19403C18.117 4.06613 19.0508 4 20 4C21.2377 4 22.4491 4.11243 23.6246 4.32763C32.94 6.03295 40 14.192 40 24ZM35 24C35 32.2843 28.2843 39 20 39C13.7572 39 8.40507 35.1863 6.1464 29.7615C7.07421 29.9184 8.02757 30 9 30C18.3888 30 26 22.3888 26 13C26 12.0276 25.9184 11.0742 25.7615 10.1464C31.1863 12.4051 35 17.7572 35 24ZM20.3183 9.00331C20.7598 10.2535 21 11.5987 21 13C21 19.6274 15.6274 25 9 25C7.5987 25 6.25349 24.7598 5.00331 24.3183C5.00111 24.2125 5 24.1064 5 24C5 15.7157 11.7157 9 20 9C20.1064 9 20.2125 9.00111 20.3183 9.00331Z" fill="white"/>
</svg>
