<svg width="40" height="48" viewBox="0 0 40 48" fill="none" xmlns="http://www.w3.org/2000/svg">
<path d="M9 8.5C9 10.9853 6.98528 13 4.5 13C2.01472 13 0 10.9853 0 8.5C0 6.01472 2.01472 4 4.5 4C6.98528 4 9 6.01472 9 8.5Z" fill="white"/>
<path d="M24.5 8.5C24.5 10.9853 22.4853 13 20 13C17.5147 13 15.5 10.9853 15.5 8.5C15.5 6.01472 17.5147 4 20 4C22.4853 4 24.5 6.01472 24.5 8.5Z" fill="white"/>
<path d="M40 8.5C40 10.9853 37.9853 13 35.5 13C33.0147 13 31 10.9853 31 8.5C31 6.01472 33.0147 4 35.5 4C37.9853 4 40 6.01472 40 8.5Z" fill="white"/>
<path d="M9 24C9 26.4853 6.98528 28.5 4.5 28.5C2.01472 28.5 0 26.4853 0 24C0 21.5147 2.01472 19.5 4.5 19.5C6.98528 19.5 9 21.5147 9 24Z" fill="white"/>
<path d="M24.5 24C24.5 26.4853 22.4853 28.5 20 28.5C17.5147 28.5 15.5 26.4853 15.5 24C15.5 21.5147 17.5147 19.5 20 19.5C22.4853 19.5 24.5 21.5147 24.5 24Z" fill="white"/>
<path d="M40 24C40 26.4853 37.9853 28.5 35.5 28.5C33.0147 28.5 31 26.4853 31 24C31 21.5147 33.0147 19.5 35.5 19.5C37.9853 19.5 40 21.5147 40 24Z" fill="white"/>
<path d="M9 39.5C9 41.9853 6.98528 44 4.5 44C2.01472 44 0 41.9853 0 39.5C0 37.0147 2.01472 35 4.5 35C6.98528 35 9 37.0147 9 39.5Z" fill="white"/>
<path d="M24.5 39.5C24.5 41.9853 22.4853 44 20 44C17.5147 44 15.5 41.9853 15.5 39.5C15.5 37.0147 17.5147 35 20 35C22.4853 35 24.5 37.0147 24.5 39.5Z" fill="white"/>
<path d="M40 39.5C40 41.9853 37.9853 44 35.5 44C33.0147 44 31 41.9853 31 39.5C31 37.0147 33.0147 35 35.5 35C37.9853 35 40 37.0147 40 39.5Z" fill="white"/>
</svg>
