<svg width="48" height="48" viewBox="0 0 48 48" fill="none" xmlns="http://www.w3.org/2000/svg">
<path fill-rule="evenodd" clip-rule="evenodd" d="M34 28H27.6569C26.596 28 25.5786 28.4214 24.8284 29.1716L23.1716 30.8284C22.4214 31.5786 21.404 32 20.3431 32H14C10.6863 32 8 29.3137 8 26C8 22.6863 10.6863 20 14 20H20.3431C21.404 20 22.4214 19.5786 23.1716 18.8284L24.8284 17.1716C25.5786 16.4214 26.596 16 27.6569 16H34C37.3137 16 40 18.6863 40 22C40 25.3137 37.3137 28 34 28ZM27.6569 20C26.596 20 25.5786 20.4214 24.8284 21.1716L23.1716 22.8284C22.4214 23.5786 21.404 24 20.3431 24H14C12.8954 24 12 24.8954 12 26C12 27.1046 12.8954 28 14 28H20.3431C21.404 28 22.4214 27.5786 23.1716 26.8284L24.8284 25.1716C25.5786 24.4214 26.596 24 27.6569 24H34C35.1046 24 36 23.1046 36 22C36 20.8954 35.1046 20 34 20H27.6569Z" fill="white"/>
<path fill-rule="evenodd" clip-rule="evenodd" d="M34 36H27.6569C26.596 36 25.5786 36.4214 24.8284 37.1716L23.1716 38.8284C22.4214 39.5786 21.404 40 20.3431 40H14C6.26801 40 0 33.732 0 26C0 18.268 6.26801 12 14 12H20.3431C21.404 12 22.4214 11.5786 23.1716 10.8284L24.8284 9.17157C25.5786 8.42143 26.596 8 27.6569 8H34C41.732 8 48 14.268 48 22C48 29.732 41.732 36 34 36ZM27.6569 12C26.596 12 25.5786 12.4214 24.8284 13.1716L23.1716 14.8284C22.4214 15.5786 21.404 16 20.3431 16H14C8.47715 16 4 20.4772 4 26C4 31.5228 8.47715 36 14 36H20.3431C21.404 36 22.4214 35.5786 23.1716 34.8284L24.8284 33.1716C25.5786 32.4214 26.596 32 27.6569 32H34C39.5228 32 44 27.5228 44 22C44 16.4772 39.5228 12 34 12H27.6569Z" fill="white"/>
</svg>
