<svg width="40" height="48" viewBox="0 0 40 48" fill="none" xmlns="http://www.w3.org/2000/svg">
<path d="M17.5 16.5C17.5 17.8807 18.6193 19 20 19C21.3807 19 22.5 17.8807 22.5 16.5V6.5C22.5 5.11929 21.3807 4 20 4C18.6193 4 17.5 5.11929 17.5 6.5V16.5Z" fill="white"/>
<path d="M17.5 41.5C17.5 42.8807 18.6193 44 20 44C21.3807 44 22.5 42.8807 22.5 41.5V31.5C22.5 30.1193 21.3807 29 20 29C18.6193 29 17.5 30.1193 17.5 31.5V41.5Z" fill="white"/>
<path d="M23.5362 20.4645C22.5599 19.4881 22.5599 17.9052 23.5362 16.9289L30.6072 9.85785C31.5835 8.88154 33.1665 8.88154 34.1428 9.85786C35.1191 10.8342 35.1191 12.4171 34.1428 13.3934L27.0717 20.4645C26.0954 21.4408 24.5125 21.4408 23.5362 20.4645Z" fill="white"/>
<path d="M5.8585 34.6066C4.88219 35.5829 4.88219 37.1658 5.8585 38.1421C6.83481 39.1184 8.41772 39.1184 9.39403 38.1421L16.4651 31.0711C17.4414 30.0947 17.4414 28.5118 16.4651 27.5355C15.4888 26.5592 13.9059 26.5592 12.9296 27.5355L5.8585 34.6066Z" fill="white"/>
<path d="M23.5358 27.5356C24.5121 26.5592 26.095 26.5592 27.0713 27.5356L34.1424 34.6066C35.1187 35.5829 35.1187 37.1658 34.1424 38.1422C33.1661 39.1185 31.5832 39.1185 30.6069 38.1422L23.5358 31.0711C22.5595 30.0948 22.5595 28.5119 23.5358 27.5356Z" fill="white"/>
<path d="M9.39365 9.85789C8.41734 8.88158 6.83443 8.88158 5.85812 9.85789C4.88181 10.8342 4.88181 12.4171 5.85812 13.3934L12.9292 20.4645C13.9055 21.4408 15.4884 21.4408 16.4647 20.4645C17.441 19.4882 17.441 17.9053 16.4647 16.929L9.39365 9.85789Z" fill="white"/>
<path d="M25 24C25 22.6193 26.1193 21.5 27.5 21.5H37.5C38.8807 21.5 40 22.6193 40 24C40 25.3807 38.8807 26.5 37.5 26.5H27.5C26.1193 26.5 25 25.3807 25 24Z" fill="white"/>
<path d="M2.5 21.5C1.11929 21.5 0 22.6193 0 24C0 25.3807 1.11929 26.5 2.5 26.5L12.5 26.5C13.8807 26.5 15 25.3807 15 24C15 22.6193 13.8807 21.5 12.5 21.5L2.5 21.5Z" fill="white"/>
</svg>
