<svg width="44" height="48" viewBox="0 0 44 48" fill="none" xmlns="http://www.w3.org/2000/svg">
<path opacity="0.5" d="M36.3068 11.4224C35.8746 10.9901 35.4424 10.5579 35.0101 10.1257C33.7135 8.74259 32.3304 7.35949 30.6015 6.49505C28.6133 5.45772 26.4522 5.71705 24.2911 5.71705C21.0062 5.71705 12.794 5.71705 7.95312 5.71705L11.238 10.1257C17.2026 10.1257 26.5386 10.1257 30.8608 10.1257C32.6761 10.1257 34.2321 10.4715 35.7017 11.4224C35.961 11.5088 36.2203 11.5088 36.3068 11.4224Z" fill="white"/>
<path opacity="0.7" d="M39.9368 18.511C39.5046 18.0788 39.0723 17.6465 38.6401 17.2143C37.3434 15.8312 35.9604 14.4481 34.2315 13.5837C32.2433 12.5463 30.0821 12.8057 27.921 12.8057C25.0684 12.8057 18.2393 12.8057 13.3984 12.8057L16.6833 17.2143C22.5615 17.2143 30.6008 17.2143 34.5772 17.2143C36.3926 17.2143 37.9486 17.5601 39.4181 18.511C39.591 18.5974 39.7639 18.5974 39.9368 18.511Z" fill="white"/>
<path d="M44 25.4263C43.5678 24.994 43.1355 24.5618 42.7033 24.1296C41.4067 22.7465 40.0236 21.3634 38.2947 20.4989C36.3065 19.4616 34.1454 19.721 31.9843 19.721C29.3045 19.721 23.4263 19.721 18.6719 19.721L21.9567 24.1296C27.6621 24.1296 34.9234 24.1296 38.554 24.1296C40.3693 24.1296 41.9253 24.4754 43.3949 25.4263C43.6542 25.5127 43.8271 25.5992 44 25.4263Z" fill="white"/>
<path opacity="0.5" d="M7.60742 37.0961C8.03964 37.5283 8.47186 37.9605 8.90408 38.3927C10.2007 39.7758 11.5838 41.1589 13.3127 42.0234C15.3009 43.0607 17.462 42.8014 19.6231 42.8014H35.9611L32.6762 38.3927C26.7116 38.3927 17.3756 38.3927 13.0534 38.3927C11.2381 38.3927 9.68208 38.047 8.21253 37.0961C7.9532 37.0096 7.78031 37.0096 7.60742 37.0961Z" fill="white"/>
<path opacity="0.7" d="M3.97656 30.0079C4.40878 30.4402 4.841 30.8724 5.27322 31.3046C6.56989 32.6877 7.95298 34.0708 9.68186 34.9353C11.6701 35.9726 13.8312 35.7133 15.9923 35.7133H30.5149L27.23 31.3046C21.3518 31.3046 13.3125 31.3046 9.33609 31.3046C7.52077 31.3046 5.96477 30.9588 4.49522 30.0079C4.32233 29.9215 4.14945 29.9215 3.97656 30.0079Z" fill="white"/>
<path d="M0 23.0058C0.43222 23.438 0.864441 23.8702 1.29666 24.3024C2.59332 25.6855 3.97643 27.0686 5.70532 27.9331C7.69353 28.9704 9.85462 28.7111 12.0157 28.7111H25.3281L22.0432 24.3024C16.3379 24.3024 9.07663 24.3024 5.44598 24.3024C3.63065 24.3024 2.07466 23.9566 0.605106 23.0058C0.345774 22.9193 0.172888 22.9193 0 23.0058Z" fill="white"/>
</svg>
