<svg width="40" height="48" viewBox="0 0 40 48" fill="none" xmlns="http://www.w3.org/2000/svg">
<path fill-rule="evenodd" clip-rule="evenodd" d="M13.7146 4C11.4582 4 9.2943 4.89634 7.69881 6.49183L0 14.1906V17.7146C0 20.2043 1.06944 22.4442 2.77401 24C1.06944 25.5558 0 27.7957 0 30.2854V33.8094L7.69881 41.5082C9.2943 43.1037 11.4582 44 13.7146 44C16.2043 44 18.4442 42.9306 20 41.226C21.5558 42.9306 23.7957 44 26.2854 44C28.5418 44 30.7057 43.1037 32.3012 41.5082L40 33.8094V30.2854C40 27.7957 38.9306 25.5558 37.226 24C38.9306 22.4442 40 20.2043 40 17.7146V14.1906L32.3012 6.49183C30.7057 4.89634 28.5418 4 26.2854 4C23.7957 4 21.5558 5.06944 20 6.77401C18.4442 5.06944 16.2043 4 13.7146 4ZM25.7588 24C25.6629 23.9125 25.5688 23.8226 25.4766 23.7304L20 18.2538L14.5234 23.7304C14.4312 23.8226 14.3371 23.9125 14.2412 24C14.3371 24.0875 14.4312 24.1774 14.5234 24.2696L20 29.7462L25.4766 24.2696C25.5688 24.1774 25.6629 24.0875 25.7588 24ZM22.2222 33.8094V35.4924C22.2222 37.7364 24.0414 39.5556 26.2854 39.5556C27.363 39.5556 28.3965 39.1275 29.1585 38.3655L35.5556 31.9684V30.2854C35.5556 28.0414 33.7364 26.2222 31.4924 26.2222C30.4148 26.2222 29.3813 26.6503 28.6193 27.4123L22.2222 33.8094ZM17.7778 33.8094L11.3807 27.4123C10.6187 26.6503 9.58524 26.2222 8.50762 26.2222C6.26359 26.2222 4.44444 28.0414 4.44444 30.2854V31.9684L10.8415 38.3655C11.6035 39.1275 12.637 39.5556 13.7146 39.5556C15.9586 39.5556 17.7778 37.7364 17.7778 35.4924V33.8094ZM17.7778 12.5076V14.1906L11.3807 20.5877C10.6187 21.3497 9.58524 21.7778 8.50762 21.7778C6.26359 21.7778 4.44444 19.9586 4.44444 17.7146V16.0316L10.8415 9.63452C11.6035 8.87253 12.637 8.44445 13.7146 8.44445C15.9586 8.44445 17.7778 10.2636 17.7778 12.5076ZM28.6193 20.5877L22.2222 14.1906V12.5076C22.2222 10.2636 24.0414 8.44445 26.2854 8.44445C27.363 8.44445 28.3965 8.87253 29.1585 9.63452L35.5556 16.0316V17.7146C35.5556 19.9586 33.7364 21.7778 31.4924 21.7778C30.4148 21.7778 29.3813 21.3497 28.6193 20.5877Z" fill="white"/>
</svg>
