<svg width="40" height="48" viewBox="0 0 40 48" fill="none" xmlns="http://www.w3.org/2000/svg">
<path d="M10.7788 6.1817L15.4689 23.6853V4.44148C15.8408 4.35469 16.2167 4.27826 16.5962 4.21251V23.6871L21.8714 4C22.2515 4.03442 22.6286 4.07945 23.0023 4.13479L17.6847 23.9805L28.2548 5.67256C28.5991 5.82748 28.9383 5.99183 29.272 6.1653L18.6625 24.5416L33.8089 9.3951C34.082 9.65334 34.3478 9.91917 34.606 10.1923L19.4574 25.341L37.8358 14.7302C38.0092 15.0639 38.1735 15.4031 38.3284 15.7475L20.025 26.315L39.8653 20.9988C39.9206 21.3725 39.9656 21.7496 40 22.1297L20.3131 27.4048L39.7872 27.4048C39.7214 27.7844 39.645 28.1602 39.5582 28.5321L20.3101 28.5321L37.8171 33.2231C37.6373 33.5674 37.4478 33.9058 37.249 34.238L20.0233 29.6224L34.4107 37.929C34.1384 38.2091 33.8579 38.4812 33.5696 38.7451L19.4609 30.5994L30.1368 41.2752C29.7991 41.4725 29.4551 41.6602 29.1052 41.838L18.6626 31.3954L25.5047 43.2462C25.1301 43.3521 24.751 43.4474 24.3679 43.5317L17.6854 31.9573L20.9073 43.9816C20.6201 43.9938 20.3314 44 20.0412 44C19.9421 44 19.8432 43.9993 19.7445 43.9978L16.5962 32.2481V43.705C16.2167 43.6393 15.8408 43.5629 15.4689 43.4761V32.25L12.693 42.61C12.3389 42.4704 11.9897 42.321 11.6459 42.1622L14.3796 31.9598L9.24785 40.8482C8.93015 40.6448 8.61857 40.4326 8.31345 40.2121L13.4048 31.3935L6.2747 38.5237C6.0016 38.2654 5.73577 37.9996 5.47753 37.7266L12.6054 30.5987L3.78941 35.6886C3.56882 35.3835 3.35661 35.0719 3.15311 34.7542L12.0457 29.6201L1.83833 32.3551C1.67945 32.0113 1.53003 31.6621 1.3904 31.3081L11.7503 28.5321L0.524176 28.5321C0.43737 28.1602 0.36092 27.7844 0.295146 27.4048L11.7473 27.4048L0.00218417 24.2577C0.000729739 24.1582 0 24.0586 0 23.9588C0 23.6694 0.00613487 23.3814 0.0182816 23.0949L12.0441 26.3173L0.46789 19.6337C0.552181 19.2505 0.647439 18.8714 0.753317 18.4968L12.609 25.3417L2.16202 14.8947C2.33976 14.5448 2.52746 14.2008 2.72475 13.8632L13.405 24.5434L5.25604 10.429C5.51991 10.1408 5.79209 9.86037 6.07221 9.58804L14.3803 23.978L9.76396 6.74972C10.0961 6.55092 10.4346 6.36146 10.7788 6.1817Z" fill="white"/>
</svg>
