<svg width="28" height="48" viewBox="0 0 28 48" fill="none" xmlns="http://www.w3.org/2000/svg">
<path d="M10 15C10 17.7614 7.76142 20 5 20C2.23858 20 0 17.7614 0 15C0 12.2386 2.23858 10 5 10C7.76142 10 10 12.2386 10 15Z" fill="white"/>
<path d="M10 33C10 35.7614 7.76142 38 5 38C2.23858 38 0 35.7614 0 33C0 30.2386 2.23858 28 5 28C7.76142 28 10 30.2386 10 33Z" fill="white"/>
<path d="M28 15C28 17.7614 25.7614 20 23 20C20.2386 20 18 17.7614 18 15C18 12.2386 20.2386 10 23 10C25.7614 10 28 12.2386 28 15Z" fill="white"/>
<path d="M28 33C28 35.7614 25.7614 38 23 38C20.2386 38 18 35.7614 18 33C18 30.2386 20.2386 28 23 28C25.7614 28 28 30.2386 28 33Z" fill="white"/>
</svg>
