<svg width="40" height="48" viewBox="0 0 40 48" fill="none" xmlns="http://www.w3.org/2000/svg">
<path opacity="0.7" d="M26.7949 4.97245C29.6096 7.78711 26.1109 15.8492 18.9804 22.9797C11.85 30.1102 3.78784 33.6088 0.97318 30.7942C-1.84148 27.9795 1.65718 19.9174 8.78765 12.7869C15.9181 5.65644 23.9802 2.15779 26.7949 4.97245Z" fill="white"/>
<path opacity="0.5" d="M32.9121 11.0879C35.7268 13.9026 32.2281 21.9647 25.0976 29.0952C17.9671 36.2257 9.90503 39.7243 7.09037 36.9097C4.27571 34.095 7.77436 26.0329 14.9048 18.9024C22.0353 11.7719 30.0974 8.27327 32.9121 11.0879Z" fill="white"/>
<path opacity="0.3" d="M39.0273 17.2041C41.842 20.0188 38.3433 28.0809 31.2129 35.2114C24.0824 42.3419 16.0203 45.8405 13.2056 43.0259C10.3909 40.2112 13.8896 32.1491 21.0201 25.0186C28.1505 17.8881 36.2127 14.3895 39.0273 17.2041Z" fill="white"/>
</svg>
