<svg width="40" height="48" viewBox="0 0 40 48" fill="none" xmlns="http://www.w3.org/2000/svg">
<path opacity="0.7" d="M29.5411 6.41772C32.2324 11.6946 33.7501 17.67 33.7501 23.9999C33.7501 30.3298 32.2324 36.3053 29.541 41.5822C35.7714 38.1941 40.0003 31.5908 40.0003 23.9999C40.0003 16.409 35.7714 9.80586 29.5411 6.41772Z" fill="white"/>
<path d="M20.5481 5.99826C19.6434 4.71673 18.1024 4.02656 16.5568 4.29477C7.15184 5.92691 0 14.1282 0 23.9998C0 33.8715 7.1518 42.0727 16.5567 43.7049C18.1023 43.9731 19.6434 43.283 20.548 42.0014C24.1403 36.9125 26.2505 30.7026 26.2505 23.9998C26.2505 17.2971 24.1404 11.0872 20.5481 5.99826Z" fill="white"/>
</svg>
