<svg width="40" height="48" viewBox="0 0 40 48" fill="none" xmlns="http://www.w3.org/2000/svg">
<path opacity="0.7" d="M9.72461 41.7983H28.2205C29.4922 41.7983 30.6674 41.1198 31.3032 40.0185L35.4134 32.8994H14.8653L9.72461 41.7983Z" fill="white"/>
<path opacity="0.4" d="M25.1445 15.1015H4.58789L8.6981 7.98241C9.33395 6.88108 10.5091 6.20264 11.7808 6.20264L30.2767 6.20264L25.1445 15.1015Z" fill="white"/>
<path opacity="0.4" d="M39.5272 25.7801C40.163 24.6787 40.163 23.3219 39.5272 22.2205L35.417 15.1014L30.2792 24.0003H9.72852L14.8657 32.8992H35.4138L35.4154 32.8965L35.417 32.8992L39.5272 25.7801Z" fill="white"/>
<path d="M14.8634 32.8992L9.72565 24.0004L4.58789 32.8992L9.72565 41.7981L14.8634 32.8992Z" fill="white"/>
<path opacity="0.7" d="M25.1445 15.1014H4.58857L0.480404 22.2206C-0.155112 23.3219 -0.154914 24.6786 0.480925 25.7797L4.59205 32.8992L9.7298 24.0003L30.2798 24.0003L30.2811 23.9982L25.1445 15.1014Z" fill="white"/>
<path d="M35.4181 15.1015L30.2803 6.20264L25.1426 15.1015L30.2803 24.0004L35.4181 15.1015Z" fill="white"/>
</svg>
