<svg width="40" height="48" viewBox="0 0 40 48" fill="none" xmlns="http://www.w3.org/2000/svg">
<path d="M16 4C16 12.8366 8.83656 20 0 20C4.90695 20 9.46995 21.4726 13.2712 24C19.738 19.7003 24 12.3479 24 4H16Z" fill="white"/>
<path opacity="0.8" d="M40 20C31.1634 20 24 12.8366 24 4C24 8.90695 22.5274 13.47 20 17.2712C24.2997 23.738 31.6521 28 40 28V20Z" fill="white"/>
<path opacity="0.6" d="M24 44C24 35.1634 31.1634 28 40 28C35.0931 28 30.53 26.5274 26.7288 24C20.262 28.2997 16 35.6521 16 44H24Z" fill="white"/>
<path opacity="0.4" d="M3.49686e-07 28C8.83656 28 16 35.1634 16 44C16 39.093 17.4726 34.53 20 30.7288C15.7003 24.262 8.34788 20 0 20L3.49686e-07 28Z" fill="white"/>
</svg>
