<svg width="37" height="48" viewBox="0 0 37 48" fill="none" xmlns="http://www.w3.org/2000/svg">
<path d="M14.5 4C21.9775 4 28.1311 9.66023 28.9141 16.9297C33.2578 19.4343 36.1816 24.1257 36.1816 29.5C36.1816 37.5081 29.6898 44 21.6816 44C14.2038 44 8.04905 38.3393 7.2666 31.0693C2.92349 28.5646 0 23.8738 0 18.5C0 10.4919 6.49187 4 14.5 4ZM28.6543 21.6523C27.2148 28.1445 21.4254 33 14.5 33C13.5379 33 12.5981 32.9043 11.6885 32.7256C13.0498 36.9461 17.0082 40 21.6816 40C27.4806 40 32.1816 35.299 32.1816 29.5C32.1816 26.3778 30.8174 23.5756 28.6543 21.6523ZM21.6816 19C16.2273 19 11.7451 23.1589 11.2314 28.4785C12.2604 28.8153 13.3585 29 14.5 29C19.9546 29 24.436 24.8405 24.9492 19.5205C23.9206 19.1839 22.8227 19 21.6816 19ZM14.5 8C8.70101 8 4 12.701 4 18.5C4 21.6217 5.36387 24.4234 7.52637 26.3467C8.9661 19.8549 14.7565 15 21.6816 15C22.6433 15 23.5829 15.0948 24.4922 15.2734C23.1305 11.0535 19.173 8 14.5 8Z" fill="white"/>
</svg>
