<svg width="40" height="48" viewBox="0 0 40 48" fill="none" xmlns="http://www.w3.org/2000/svg">
<path opacity="0.7" d="M5.03741 15.4637C5.78801 12.6629 8.66702 9.78385 11.4679 9.03326L28.9296 4.35369C31.7305 3.60309 33.3925 5.26515 32.6419 8.066L27.9624 25.5277C27.2118 28.3286 24.3327 31.2076 21.5319 31.9582L4.07015 36.6378C1.2693 37.3883 -0.392754 35.7263 0.357844 32.9254L5.03741 15.4637Z" fill="white"/>
<path opacity="0.7" d="M12.0355 22.4642C12.7861 19.6634 15.6651 16.7843 18.4659 16.0337L35.9276 11.3542C38.7285 10.6036 40.3905 12.2656 39.6399 15.0665L34.9604 32.5282C34.2098 35.3291 31.3308 38.2081 28.5299 38.9587L11.0682 43.6382C8.26735 44.3888 6.60529 42.7268 7.35589 39.9259L12.0355 22.4642Z" fill="white"/>
</svg>
