<svg width="38" height="48" viewBox="0 0 38 48" fill="none" xmlns="http://www.w3.org/2000/svg">
<path fill-rule="evenodd" clip-rule="evenodd" d="M19.742 4.07554C19.2523 3.97482 18.7472 3.97482 18.2575 4.07554C17.6914 4.19197 17.1855 4.47536 16.7832 4.70066L16.6736 4.76191L3.0406 12.3358C3.00291 12.3567 2.96407 12.3781 2.92428 12.4C2.49847 12.6346 1.96307 12.9295 1.55191 13.3756C1.19644 13.7614 0.927429 14.2186 0.762866 14.7166C0.572526 15.2927 0.574753 15.9039 0.576524 16.3901C0.57669 16.4355 0.576851 16.4798 0.576851 16.523V31.477C0.576851 31.5202 0.57669 31.5645 0.576524 31.6099C0.574753 32.0961 0.572526 32.7073 0.762867 33.2834C0.92743 33.7815 1.19644 34.2386 1.55191 34.6244C1.96307 35.0705 2.49847 35.3654 2.92428 35.6C2.96407 35.6219 3.00291 35.6433 3.0406 35.6642L16.6736 43.2381L16.7832 43.2993C17.1855 43.5247 17.6914 43.808 18.2575 43.9245C18.7472 44.0252 19.2523 44.0252 19.742 43.9245C20.3081 43.808 20.8141 43.5246 21.2163 43.2993L21.326 43.2381L34.9589 35.6642C34.9756 35.655 34.9925 35.6456 35.0096 35.6362C35.0312 35.6243 35.0531 35.6122 35.0753 35.6C35.5011 35.3654 36.0365 35.0705 36.4476 34.6244C36.8031 34.2386 37.0721 33.7815 37.2367 33.2834C37.427 32.7073 37.4248 32.0961 37.423 31.6099C37.4229 31.5645 37.4227 31.5202 37.4227 31.477V16.523C37.4227 16.4798 37.4229 16.4355 37.423 16.3901C37.4248 15.9039 37.427 15.2927 37.2367 14.7166C37.0721 14.2186 36.8031 13.7614 36.4476 13.3756C36.0365 12.9295 35.5011 12.6346 35.0753 12.4L35.0738 12.3992C35.0345 12.3776 34.9962 12.3565 34.9589 12.3358L21.326 4.76191L21.2163 4.70066C20.8141 4.47536 20.3081 4.19196 19.742 4.07554ZM18.463 7.98282C18.7421 7.82772 18.8847 7.74935 18.991 7.69807L18.9998 7.69385L19.0086 7.69807C19.1149 7.74935 19.2574 7.82771 19.5366 7.98282L31.7868 14.7885L18.9997 21.8924L6.21268 14.7885L18.463 7.98282ZM4.26144 17.9195L17.1574 25.084L17.1575 39.2919L4.82999 32.4433C4.53531 32.2796 4.38486 32.1951 4.27931 32.1279L4.27039 32.1222L4.26973 32.1116C4.2622 31.9867 4.26144 31.8141 4.26144 31.477V17.9195Z" fill="white"/>
</svg>
