<svg width="39" height="48" viewBox="0 0 39 48" fill="none" xmlns="http://www.w3.org/2000/svg">
<path opacity="0.5" d="M30 4.5C34.9706 4.5 39 8.52944 39 13.5C39 18.4706 34.9706 22.5 30 22.5H21L21 13.5C21 8.52944 25.0294 4.5 30 4.5Z" fill="white"/>
<path d="M0 13.5C0 8.52944 4.02944 4.5 9 4.5C13.9706 4.5 18 8.52944 18 13.5V22.5H9C4.02944 22.5 0 18.4706 0 13.5Z" fill="white"/>
<path d="M9 43.5C4.02944 43.5 -5.92697e-08 39.4706 0 34.5C5.9277e-08 29.5294 4.02944 25.5 9 25.5H18V34.5C18 39.4706 13.9706 43.5 9 43.5Z" fill="white"/>
<path d="M39 34.5C39 39.4706 34.9706 43.5 30 43.5C25.0294 43.5 21 39.4706 21 34.5V25.5L30 25.5C34.9706 25.5 39 29.5294 39 34.5Z" fill="white"/>
</svg>
