<svg width="42" height="48" viewBox="0 0 42 48" fill="none" xmlns="http://www.w3.org/2000/svg">
<path d="M14.1061 19.6565C19.6051 17.0266 23.9086 12.5636 26.3792 6.98482C24.7853 5.3112 22.7132 4.11575 20.4817 3.39848L19.2863 3C19.2066 3.15939 19.1269 3.39849 19.1269 3.55788C17.2142 8.97724 13.3091 13.3605 8.04924 15.8311C4.38325 17.5844 1.6736 20.7723 0.398477 24.5977L0 25.7932C0.159391 25.8729 0.39848 25.9525 0.557871 25.9525C2.07208 26.5104 3.58629 27.2277 5.02081 28.1044C7.01319 24.518 10.201 21.4896 14.1061 19.6565Z" fill="white"/>
<path opacity="0.5" d="M37.2173 19.9753C34.2686 24.4383 30.2041 28.0247 25.1833 30.4156C21.1188 32.3283 18.0107 35.9146 16.5762 40.2182L16.1777 41.5731C17.6919 42.9279 19.5249 43.964 21.5173 44.6015L22.7128 45C22.7924 44.8406 22.8721 44.6015 22.8721 44.4421C24.7848 39.0228 28.6899 34.6395 33.9498 32.1689C37.6158 30.4156 40.4051 27.2277 41.6005 23.4023L41.999 22.2069C40.3254 21.7287 38.7315 20.9317 37.2173 19.9753Z" fill="white"/>
<path opacity="0.7" d="M12.9903 37.4284C14.9827 32.6466 18.6487 28.7415 23.3507 26.51C27.6542 24.4379 31.2405 21.25 33.7111 17.3449C31.8781 15.5916 30.3639 13.5991 29.2481 11.2083C26.2994 16.6276 21.6771 21.0109 16.0187 23.7206C12.7512 25.2348 10.1213 27.8648 8.52734 31.0527C10.2806 32.7263 11.7152 34.7984 12.8309 37.1096C12.8309 37.1096 12.9106 37.269 12.9903 37.4284Z" fill="white"/>
</svg>
