<svg width="40" height="48" viewBox="0 0 40 48" fill="none" xmlns="http://www.w3.org/2000/svg">
<path d="M32.3008 36H32.1993C32.1732 36.0402 32.147 36.0804 32.1206 36.1204C29.3602 37.9405 26.0538 38.9998 22.5 38.9998C12.835 38.9998 5 31.1648 5 21.4998C5 17.946 6.05931 14.6396 7.87939 11.8792C7.91948 11.8528 7.95968 11.8265 8 11.8004V11.6987C7.95944 11.7586 7.91923 11.8188 7.87939 11.8792C3.13249 15.0091 0 20.3886 0 26.4998C0 36.1648 7.83502 43.9998 17.5 43.9998C23.6112 43.9998 28.9907 40.8673 32.1206 36.1204C32.1809 36.0806 32.241 36.0405 32.3008 36Z" fill="white"/>
<g opacity="0.5">
<path d="M40.0003 21.5C40.0003 27.6112 36.8678 32.9907 32.1209 36.1206C33.941 33.3602 35.0003 30.0538 35.0003 26.5C35.0003 16.835 27.1653 9 17.5003 9C13.9465 9 10.6401 10.0593 7.8797 11.8794C11.0096 7.13249 16.3891 4 22.5003 4C32.1653 4 40.0003 11.835 40.0003 21.5Z" fill="white"/>
<path d="M32.0003 36.1994C32.0406 36.1733 32.0808 36.147 32.1209 36.1206C32.0811 36.181 32.0409 36.2412 32.0003 36.3011V36.1994Z" fill="white"/>
<path d="M7.80088 12C7.82699 11.9597 7.85326 11.9195 7.8797 11.8794C7.81927 11.9192 7.75911 11.9594 7.69922 12H7.80088Z" fill="white"/>
</g>
</svg>
