<svg width="40" height="48" viewBox="0 0 40 48" fill="none" xmlns="http://www.w3.org/2000/svg">
<path d="M26.9513 34.9836C21.9252 38.1721 15.1881 37.5741 10.8037 33.1897C6.41928 28.8053 5.82132 22.0682 9.00983 17.0421L4.69571 12.728C-0.795653 20.1642 -0.17387 30.6974 6.56106 37.4323C13.296 44.1673 23.8292 44.7891 31.2654 39.2977L26.9513 34.9836Z" fill="white"/>
<path d="M13.0402 13.0115C18.0664 9.82249 24.8039 10.4203 29.1885 14.8049C33.5731 19.1895 34.1709 25.927 30.9819 30.9532L35.296 35.2673C40.7879 27.831 40.1662 17.2974 33.4311 10.5623C26.696 3.82716 16.1624 3.20553 8.72614 8.6974L13.0402 13.0115Z" fill="white"/>
<path opacity="0.2" d="M29.1882 14.8049C24.8036 10.4203 18.0662 9.82247 13.04 13.0115L10.8781 10.8496C10.1066 11.386 9.37184 11.998 8.68408 12.6858C7.99621 13.3736 7.38407 14.1086 6.84766 14.8802L9.00957 17.0421C5.82106 22.0682 6.41902 28.8053 10.8034 33.1897C15.1879 37.5741 21.9249 38.1721 26.951 34.9836L29.1171 37.1496C29.8887 36.6132 30.6236 36.0011 31.3115 35.3132C31.9993 34.6254 32.6113 33.8906 33.1477 33.1192L30.9817 30.9532C34.1707 25.927 33.5728 19.1895 29.1882 14.8049Z" fill="white"/>
</svg>
