<svg width="44" height="48" viewBox="0 0 44 48" fill="none" xmlns="http://www.w3.org/2000/svg">
<path d="M30.8 10.7998H0L4.4 19.5997H30.8C35.6601 19.5997 39.6 23.5396 39.6 28.3997C39.6 33.2598 35.6601 37.1996 30.8 37.1996C38.0902 37.1996 44 31.2898 44 23.9997C44 16.7096 38.0902 10.7998 30.8 10.7998Z" fill="white"/>
<path opacity="0.3" d="M20.7835 34.7676C19.3207 31.8421 21.4481 28.3999 24.7189 28.3999H30.7996C33.2297 28.3999 35.1996 30.3698 35.1996 32.7999C35.1996 35.2299 33.2297 37.1998 30.7996 37.1998H24.7189C23.0524 37.1998 21.5288 36.2582 20.7835 34.7676Z" fill="white"/>
<path opacity="0.6" d="M30.8008 19.6001H8.80078L13.2008 28.4H30.8008C33.2308 28.4 35.2008 30.37 35.2008 32.8C35.2008 35.2301 33.2308 37.2 30.8008 37.2C35.6609 37.2 39.6008 33.2601 39.6008 28.4C39.6008 23.54 35.6609 19.6001 30.8008 19.6001Z" fill="white"/>
</svg>
