<svg width="40" height="48" viewBox="0 0 40 48" fill="none" xmlns="http://www.w3.org/2000/svg">
<path d="M20 4C31.0457 4 40 12.9543 40 24C40 35.0457 31.0457 44 20 44C8.95431 44 0 35.0457 0 24C0 12.9543 8.95431 4 20 4ZM20.002 38.5537C18.1764 39.4114 16.3658 39.9931 14.6475 40.2822C16.3317 40.8356 18.1306 41.1367 20 41.1367C21.8691 41.1367 23.6676 40.8354 25.3516 40.2822C23.6346 39.993 21.826 39.4105 20.002 38.5537ZM7.32227 27.3457C7.1622 27.8141 7.02424 28.2752 6.91113 28.7275C6.02339 32.2785 6.6752 34.7162 7.98047 36.0215C9.28576 37.3267 11.7235 37.9776 15.2744 37.0898C15.7268 36.9767 16.1878 36.8388 16.6562 36.6787C14.8887 35.5239 13.1511 34.1208 11.5156 32.4854C9.88049 30.8502 8.47696 29.113 7.32227 27.3457ZM32.6787 27.3447C31.524 29.1122 30.1216 30.8501 28.4863 32.4854C26.8509 34.1208 25.1133 35.5239 23.3457 36.6787C23.8141 36.8388 24.2751 36.9767 24.7275 37.0898C28.2785 37.9776 30.7162 37.3258 32.0215 36.0205C33.3265 34.7152 33.9775 32.2782 33.0898 28.7275C32.9767 28.2749 32.8389 27.8134 32.6787 27.3447ZM20.001 12.8105C17.8586 13.983 15.6779 15.5965 13.6377 17.6367C11.5972 19.6772 9.984 21.8584 8.81152 24.001C9.98393 26.1431 11.5967 28.3243 13.6367 30.3643C15.677 32.4045 17.8585 34.017 20.001 35.1895C22.1434 34.017 24.3249 32.4046 26.3652 30.3643C28.4054 28.3241 30.017 26.1423 31.1895 24C30.017 21.8577 28.4044 19.6759 26.3643 17.6357C24.3242 15.5957 22.1432 13.9829 20.001 12.8105ZM3.7168 18.6455C3.16312 20.3302 2.86328 22.1301 2.86328 24C2.86328 25.8704 3.16385 27.6704 3.71777 29.3555C4.00677 27.6372 4.58881 25.8265 5.44629 24.001C4.58849 22.1751 4.00589 20.3641 3.7168 18.6455ZM36.2832 18.6494C35.9939 20.3666 35.4117 22.1757 34.5547 24C35.4118 25.8245 35.993 27.6342 36.2822 29.3516C36.8354 27.6676 37.1367 25.8691 37.1367 24C37.1367 22.1314 36.8361 20.3331 36.2832 18.6494ZM15.2734 10.9102C11.7225 10.0224 9.28476 10.6742 7.97949 11.9795C6.67436 13.2848 6.02349 15.7217 6.91113 19.2725C7.02428 19.725 7.16115 20.1867 7.32129 20.6553C8.47602 18.8878 9.88033 17.151 11.5156 15.5156C13.151 13.8802 14.8887 12.4761 16.6562 11.3213C16.1876 11.1611 15.7261 11.0233 15.2734 10.9102ZM32.0225 11.9795C30.7172 10.6742 28.2795 10.0234 24.7285 10.9111C24.2759 11.0243 23.8143 11.1611 23.3457 11.3213C25.113 12.476 26.8501 13.8795 28.4854 15.5146C30.1208 17.1501 31.5249 18.8877 32.6797 20.6553C32.8398 20.1869 32.9777 19.7258 33.0908 19.2734C33.9785 15.7225 33.3277 13.2848 32.0225 11.9795ZM20 6.86328C18.1304 6.86328 16.3309 7.1633 14.6465 7.7168C16.3648 8.00592 18.1754 8.58864 20.001 9.44629C21.8262 8.58886 23.6365 8.00694 25.3545 7.71777C23.6697 7.16403 21.87 6.86328 20 6.86328Z" fill="white"/>
</svg>
