<svg width="152" height="48" viewBox="0 0 152 48" fill="none" xmlns="http://www.w3.org/2000/svg">
<path opacity="0.5" fill-rule="evenodd" clip-rule="evenodd" d="M34.5868 8.40061L24.9 5.80505C24.2313 5.62586 23.6892 6.04184 23.6892 6.73416V16.7627C23.6892 17.455 24.2313 18.1615 24.9 18.3407L34.5868 20.9362C35.2555 21.1154 35.7977 20.6994 35.7977 20.0071V9.97862C35.7977 9.2863 35.2555 8.5798 34.5868 8.40061ZM24.9 2.04436C22.2251 1.32762 20.0566 2.99154 20.0566 5.76083V15.7893C20.0566 18.5586 22.2251 21.3846 24.9 22.1013L34.5868 24.6969C37.2617 25.4137 39.4302 23.7497 39.4302 20.9804V10.952C39.4302 8.18266 37.2617 5.35667 34.5868 4.63993L24.9 2.04436Z" fill="white"/>
<path opacity="0.7" fill-rule="evenodd" clip-rule="evenodd" d="M26.9812 16.5707L14.8727 13.3263C14.204 13.1471 13.6618 13.5631 13.6618 14.2554V26.791C13.6618 27.4833 14.204 28.1898 14.8727 28.369L26.9812 31.6135C27.6499 31.7927 28.192 31.3767 28.192 30.6844V18.1488C28.192 17.4564 27.6499 16.7499 26.9812 16.5707ZM14.8727 9.5656C12.1978 8.84886 10.0293 10.5128 10.0293 13.2821V25.8177C10.0293 28.587 12.1978 31.413 14.8727 32.1297L26.9812 35.3742C29.6561 36.0909 31.8245 34.427 31.8245 31.6577V19.1221C31.8245 16.3528 29.6561 13.5268 26.9812 12.8101L14.8727 9.5656Z" fill="white"/>
<path fill-rule="evenodd" clip-rule="evenodd" d="M19.3736 24.7409L4.84339 20.8475C4.17466 20.6683 3.63254 21.0843 3.63254 21.7766V36.8194C3.63254 37.5117 4.17466 38.2182 4.84339 38.3974L19.3736 42.2907C20.0423 42.4699 20.5844 42.0539 20.5844 41.3616V26.3189C20.5844 25.6266 20.0423 24.9201 19.3736 24.7409ZM4.84339 17.0868C2.16846 16.3701 0 18.034 0 20.8033V35.846C0 38.6153 2.16846 41.4413 4.84339 42.1581L19.3736 46.0514C22.0485 46.7682 24.2169 45.1042 24.2169 42.335V27.2922C24.2169 24.5229 22.0485 21.6969 19.3736 20.9802L4.84339 17.0868Z" fill="white"/>
<path d="M53.64 32.6079C54.7787 33.1306 56.0853 33.3919 57.56 33.3919C59.0347 33.3919 60.3227 33.1399 61.424 32.6359C62.544 32.1132 63.412 31.3852 64.028 30.4519C64.644 29.4999 64.952 28.3892 64.952 27.1199V26.7839C64.952 25.6079 64.6813 24.6559 64.14 23.9279C63.5987 23.1812 62.908 22.6306 62.068 22.2759C61.2467 21.9212 60.3973 21.7439 59.52 21.7439H58.484V21.2959L64.392 18.1599V13.3999H50.504V16.5919H60.416V17.0399L54.088 20.3999V24.3199H58.008C58.6427 24.3199 59.212 24.4132 59.716 24.5999C60.22 24.7679 60.6213 25.0386 60.92 25.4119C61.2187 25.7852 61.368 26.2706 61.368 26.8679V27.1479C61.368 28.0252 61.032 28.7532 60.36 29.3319C59.7067 29.9106 58.7733 30.1999 57.56 30.1999C56.3653 30.1999 55.404 29.8919 54.676 29.2759C53.948 28.6412 53.584 27.8012 53.584 26.7559V26.3639H50V26.8679C50 28.2119 50.3173 29.3786 50.952 30.3679C51.6053 31.3386 52.5013 32.0852 53.64 32.6079Z" fill="white"/>
<path fill-rule="evenodd" clip-rule="evenodd" d="M77.8432 14.1559C76.9098 13.6519 75.8272 13.3999 74.5952 13.3999H66.5312V32.9999H70.2272V25.8319H74.5952C75.7898 25.8319 76.8538 25.5892 77.7872 25.1039C78.7392 24.5999 79.4858 23.8999 80.0272 23.0039C80.5872 22.0892 80.8672 21.0252 80.8672 19.8119V19.4199C80.8672 18.1879 80.5965 17.1239 80.0552 16.2279C79.5325 15.3319 78.7952 14.6412 77.8432 14.1559ZM76.3592 21.7439C75.8178 22.2292 75.1085 22.4719 74.2312 22.4719H70.2272V16.7599H74.2312C75.1085 16.7599 75.8178 17.0026 76.3592 17.4879C76.9005 17.9732 77.1712 18.6359 77.1712 19.4759V19.7559C77.1712 20.5959 76.9005 21.2586 76.3592 21.7439Z" fill="white"/>
<path fill-rule="evenodd" clip-rule="evenodd" d="M88.4215 33.3919C87.0401 33.3919 85.7988 33.1119 84.6975 32.5519C83.5961 31.9919 82.7281 31.1799 82.0935 30.1159C81.4588 29.0519 81.1415 27.7732 81.1415 26.2799V25.8319C81.1415 24.3386 81.4588 23.0599 82.0935 21.9959C82.7281 20.9319 83.5961 20.1199 84.6975 19.5599C85.7988 18.9999 87.0401 18.7199 88.4215 18.7199C89.8028 18.7199 91.0441 18.9999 92.1455 19.5599C93.2468 20.1199 94.1148 20.9319 94.7495 21.9959C95.3841 23.0599 95.7015 24.3386 95.7015 25.8319V26.2799C95.7015 27.7732 95.3841 29.0519 94.7495 30.1159C94.1148 31.1799 93.2468 31.9919 92.1455 32.5519C91.0441 33.1119 89.8028 33.3919 88.4215 33.3919ZM88.4215 30.2559C89.5041 30.2559 90.4001 29.9106 91.1095 29.2199C91.8188 28.5106 92.1735 27.5026 92.1735 26.1959V25.9159C92.1735 24.6092 91.8188 23.6106 91.1095 22.9199C90.4188 22.2106 89.5228 21.8559 88.4215 21.8559C87.3388 21.8559 86.4428 22.2106 85.7335 22.9199C85.0241 23.6106 84.6695 24.6092 84.6695 25.9159V26.1959C84.6695 27.5026 85.0241 28.5106 85.7335 29.2199C86.4428 29.9106 87.3388 30.2559 88.4215 30.2559Z" fill="white"/>
<path d="M102.542 19.4479C102.075 19.7092 101.739 20.1199 101.534 20.6799H101.03V19.1119H97.558V32.9999H101.086V25.1039C101.086 24.1146 101.375 23.3866 101.954 22.9199C102.533 22.4346 103.27 22.1919 104.166 22.1919H105.902V22.1899H109.5V29.8639C109.5 30.8159 109.78 31.5812 110.34 32.1599C110.918 32.7199 111.665 32.9999 112.58 32.9999H116.5V30.0879H113.812C113.289 30.0879 113.028 29.8079 113.028 29.2479V22.1899H116.836V19.0599H113.028V14.7999H109.5V19.0599H105.902V19.0559H104.222C103.587 19.0559 103.027 19.1866 102.542 19.4479Z" fill="white"/>
<path fill-rule="evenodd" clip-rule="evenodd" d="M120.281 32.8879C121.065 33.2239 121.952 33.3919 122.941 33.3919C123.912 33.3919 124.677 33.2519 125.237 32.9719C125.797 32.6919 126.208 32.3746 126.469 32.0199C126.73 31.6466 126.898 31.3479 126.973 31.1239H127.505V31.1519C127.505 31.7119 127.729 32.1599 128.177 32.4959C128.625 32.8319 129.194 32.9999 129.885 32.9999H132.237V30.0879H131.117C130.594 30.0879 130.333 29.8079 130.333 29.2479V24.0679C130.333 22.3319 129.801 21.0066 128.737 20.0919C127.673 19.1772 126.226 18.7199 124.397 18.7199C123.202 18.7199 122.185 18.9066 121.345 19.2799C120.524 19.6346 119.861 20.1106 119.357 20.7079C118.872 21.2866 118.517 21.9306 118.293 22.6399L121.541 23.7319C121.672 23.0972 121.952 22.5839 122.381 22.1919C122.81 21.7812 123.464 21.5759 124.341 21.5759C125.237 21.5759 125.89 21.7906 126.301 22.2199C126.712 22.6306 126.917 23.1626 126.917 23.8159V24.5999H123.109C122.064 24.5999 121.13 24.7679 120.309 25.1039C119.506 25.4212 118.872 25.9066 118.405 26.5599C117.957 27.1946 117.733 27.9879 117.733 28.9399C117.733 29.8919 117.957 30.7039 118.405 31.3759C118.872 32.0292 119.497 32.5332 120.281 32.8879ZM125.965 29.7239C125.349 30.2652 124.546 30.5359 123.557 30.5359C122.81 30.5359 122.241 30.3772 121.849 30.0599C121.457 29.7426 121.261 29.3319 121.261 28.8279C121.261 28.3239 121.448 27.9319 121.821 27.6519C122.194 27.3719 122.708 27.2319 123.361 27.2319H126.917V27.5119C126.917 28.4266 126.6 29.1639 125.965 29.7239Z" fill="white"/>
<path d="M140.77 32.2159C141.927 32.9999 143.411 33.3919 145.222 33.3919C146.995 33.3919 148.405 32.9999 149.45 32.2159C150.514 31.4132 151.046 30.2839 151.046 28.8279C151.046 27.8572 150.794 27.0919 150.29 26.5319C149.805 25.9532 149.133 25.5146 148.274 25.2159C147.434 24.8986 146.491 24.6466 145.446 24.4599L144.662 24.3199C144.027 24.2079 143.523 24.0492 143.15 23.8439C142.777 23.6199 142.59 23.2839 142.59 22.8359C142.59 22.4252 142.767 22.1079 143.122 21.8839C143.477 21.6412 143.99 21.5199 144.662 21.5199C145.334 21.5199 145.894 21.6692 146.342 21.9679C146.809 22.2666 147.117 22.7706 147.266 23.4799L150.542 22.4719C150.225 21.3519 149.553 20.4466 148.526 19.7559C147.499 19.0652 146.211 18.7199 144.662 18.7199C143.019 18.7199 141.694 19.0932 140.686 19.8399C139.678 20.5679 139.174 21.6226 139.174 23.0039C139.174 23.9186 139.417 24.6652 139.902 25.2439C140.387 25.8226 141.031 26.2799 141.834 26.6159C142.637 26.9332 143.523 27.1852 144.494 27.3719L145.278 27.5119C146.099 27.6612 146.697 27.8572 147.07 28.0999C147.443 28.3239 147.63 28.6506 147.63 29.0799C147.63 29.5092 147.434 29.8732 147.042 30.1719C146.65 30.4519 146.043 30.5919 145.222 30.5919C144.681 30.5919 144.177 30.5172 143.71 30.3679C143.262 30.1999 142.879 29.9292 142.562 29.5559C142.263 29.1826 142.049 28.6692 141.918 28.0159L138.67 28.8559C138.913 30.3119 139.613 31.4319 140.77 32.2159Z" fill="white"/>
<path d="M133.417 32.9999V13.3999H136.945V32.9999H133.417Z" fill="white"/>
</svg>
