<svg width="188" height="48" viewBox="0 0 188 48" fill="none" xmlns="http://www.w3.org/2000/svg">
<path d="M0 15.8981L17.3455 15.8981L0.284186 32.9594L3.04056 35.7158L20.1019 18.6545V36H20.2123L24 32.2123L24 16.2485L19.7515 12L3.78554 12L5.31539e-08 15.7855L0 15.8981Z" fill="white"/>
<path d="M47.26 25.5639H50.562V28.6319H47.26V32.9999H43.594V28.6319H34V25.9539L43.932 14.1759H47.26V25.5639ZM38.68 25.5639H43.594V19.5579L38.68 25.5639Z" fill="white"/>
<path d="M59.7711 20.2079C61.0537 20.2079 62.1977 20.4592 63.2031 20.9619C64.2257 21.4645 65.0231 22.2099 65.5951 23.1979C66.1844 24.1859 66.4791 25.3732 66.4791 26.7599C66.4791 28.8225 65.8291 30.4345 64.5291 31.5959C63.2291 32.7399 61.4004 33.3119 59.0431 33.3119C57.4137 33.3119 56.0444 33.0432 54.9351 32.5059C53.8431 31.9685 53.0111 31.2579 52.4391 30.3739C51.8844 29.4899 51.5637 28.5192 51.4771 27.4619H55.2211C55.7757 29.4725 57.0411 30.4779 59.0171 30.4779C60.2304 30.4779 61.1491 30.1399 61.7731 29.4639C62.4144 28.7879 62.7351 27.8779 62.7351 26.7339C62.7351 25.5725 62.4144 24.6712 61.7731 24.0299C61.1317 23.3712 60.2217 23.0419 59.0431 23.0419C57.4831 23.0419 56.2871 23.6919 55.4551 24.9919L52.0751 24.6539L53.3491 14.1759H65.3871V17.2439H56.3911L55.8191 21.5599C56.7551 20.6585 58.0724 20.2079 59.7711 20.2079Z" fill="white"/>
<path d="M80.9103 14.1759C83.5276 14.1759 85.8936 14.7999 88.0083 16.0479C90.1403 17.2785 91.2063 19.7919 91.2063 23.5879C91.2063 27.3839 90.1403 29.9059 88.0083 31.1539C85.8936 32.3845 83.5276 32.9999 80.9103 32.9999H74.5663V14.1759H80.9103ZM80.7803 29.7239C81.9763 29.7065 83.0423 29.5679 83.9783 29.3079C84.9316 29.0305 85.7376 28.4412 86.3963 27.5399C87.0723 26.6385 87.4103 25.3212 87.4103 23.5879C87.4103 21.8545 87.0723 20.5372 86.3963 19.6359C85.7376 18.7345 84.9316 18.1452 83.9783 17.8679C83.0423 17.5905 81.9763 17.4519 80.7803 17.4519H78.2323V29.7239H80.7803Z" fill="white"/>
<path d="M99.8086 18.6999C101.317 18.6999 102.608 19.0379 103.683 19.7139C104.775 20.3725 105.581 21.3172 106.101 22.5479C106.638 23.7785 106.863 25.2259 106.777 26.8899H96.2726C96.394 28.0685 96.7666 28.9612 97.3906 29.5679C98.0146 30.1745 98.8293 30.4779 99.8346 30.4779C100.719 30.4779 101.429 30.2612 101.967 29.8279C102.521 29.3945 102.894 28.8485 103.085 28.1899H106.699C106.387 29.8192 105.615 31.0845 104.385 31.9859C103.171 32.8699 101.655 33.3119 99.8346 33.3119C98.344 33.3119 97.0526 33.0085 95.9606 32.4019C94.8686 31.7952 94.0366 30.9459 93.4646 29.8539C92.8926 28.7445 92.6066 27.4619 92.6066 26.0059C92.6066 24.5672 92.9013 23.2932 93.4906 22.1839C94.08 21.0745 94.9206 20.2165 96.0126 19.6099C97.1046 19.0032 98.37 18.6999 99.8086 18.6999ZM103.163 24.6019C103.059 23.6659 102.721 22.9119 102.149 22.3399C101.594 21.7679 100.805 21.4819 99.7826 21.4819C98.8466 21.4819 98.084 21.7419 97.4946 22.2619C96.9053 22.7819 96.5153 23.5619 96.3246 24.6019H103.163Z" fill="white"/>
<path d="M122.024 19.0119V32.4279C122.024 34.2479 121.444 35.7125 120.282 36.8219C119.121 37.9485 117.422 38.5119 115.186 38.5119C113.245 38.5119 111.702 38.0785 110.558 37.2119C109.414 36.3625 108.738 35.2185 108.53 33.7799H112.092C112.508 35.0625 113.54 35.7039 115.186 35.7039C116.33 35.7039 117.162 35.4179 117.682 34.8459C118.202 34.2912 118.462 33.4679 118.462 32.3759V30.5039C117.492 31.9945 116.027 32.7399 114.068 32.7399C112.838 32.7399 111.754 32.4625 110.818 31.9079C109.9 31.3359 109.18 30.5212 108.66 29.4639C108.158 28.4065 107.906 27.1585 107.906 25.7199C107.906 24.2812 108.158 23.0332 108.66 21.9759C109.18 20.9185 109.9 20.1125 110.818 19.5579C111.754 18.9859 112.838 18.6999 114.068 18.6999C116.044 18.6999 117.509 19.4452 118.462 20.9359V19.0119H122.024ZM115.03 29.9319C116.192 29.9319 117.084 29.5419 117.708 28.7619C118.332 27.9819 118.644 26.9679 118.644 25.7199C118.644 24.4719 118.332 23.4579 117.708 22.6779C117.084 21.8979 116.192 21.5079 115.03 21.5079C113.852 21.5079 112.968 21.9065 112.378 22.7039C111.806 23.4839 111.52 24.4892 111.52 25.7199C111.52 26.9505 111.806 27.9645 112.378 28.7619C112.968 29.5419 113.852 29.9319 115.03 29.9319Z" fill="white"/>
<path d="M131.745 18.8559C132.04 18.8559 132.335 18.8819 132.629 18.9339V22.4959C132.317 22.4439 131.988 22.4179 131.641 22.4179C130.549 22.4179 129.734 22.6779 129.197 23.1979C128.66 23.7005 128.322 24.2985 128.183 24.9919C128.044 25.6679 127.975 26.4565 127.975 27.3579V32.9999H124.413V19.0119H127.923V21.4039C128.686 19.7052 129.96 18.8559 131.745 18.8559Z" fill="white"/>
<path d="M140.6 18.6999C142.108 18.6999 143.4 19.0379 144.474 19.7139C145.566 20.3725 146.372 21.3172 146.892 22.5479C147.43 23.7785 147.655 25.2259 147.568 26.8899H137.064C137.186 28.0685 137.558 28.9612 138.182 29.5679C138.806 30.1745 139.621 30.4779 140.626 30.4779C141.51 30.4779 142.221 30.2612 142.758 29.8279C143.313 29.3945 143.686 28.8485 143.876 28.1899H147.49C147.178 29.8192 146.407 31.0845 145.176 31.9859C143.963 32.8699 142.446 33.3119 140.626 33.3119C139.136 33.3119 137.844 33.0085 136.752 32.4019C135.66 31.7952 134.828 30.9459 134.256 29.8539C133.684 28.7445 133.398 27.4619 133.398 26.0059C133.398 24.5672 133.693 23.2932 134.282 22.1839C134.872 21.0745 135.712 20.2165 136.804 19.6099C137.896 19.0032 139.162 18.6999 140.6 18.6999ZM143.954 24.6019C143.85 23.6659 143.512 22.9119 142.94 22.3399C142.386 21.7679 141.597 21.4819 140.574 21.4819C139.638 21.4819 138.876 21.7419 138.286 22.2619C137.697 22.7819 137.307 23.5619 137.116 24.6019H143.954Z" fill="white"/>
<path d="M155.848 18.6999C157.356 18.6999 158.647 19.0379 159.722 19.7139C160.814 20.3725 161.62 21.3172 162.14 22.5479C162.677 23.7785 162.902 25.2259 162.816 26.8899H152.312C152.433 28.0685 152.806 28.9612 153.43 29.5679C154.054 30.1745 154.868 30.4779 155.874 30.4779C156.758 30.4779 157.468 30.2612 158.006 29.8279C158.56 29.3945 158.933 28.8485 159.124 28.1899H162.738C162.426 29.8192 161.654 31.0845 160.424 31.9859C159.21 32.8699 157.694 33.3119 155.874 33.3119C154.383 33.3119 153.092 33.0085 152 32.4019C150.908 31.7952 150.076 30.9459 149.504 29.8539C148.932 28.7445 148.646 27.4619 148.646 26.0059C148.646 24.5672 148.94 23.2932 149.53 22.1839C150.119 21.0745 150.96 20.2165 152.052 19.6099C153.144 19.0032 154.409 18.6999 155.848 18.6999ZM159.202 24.6019C159.098 23.6659 158.76 22.9119 158.188 22.3399C157.633 21.7679 156.844 21.4819 155.822 21.4819C154.886 21.4819 154.123 21.7419 153.534 22.2619C152.944 22.7819 152.554 23.5619 152.364 24.6019H159.202Z" fill="white"/>
<path d="M170.596 33.3119C168.481 33.3119 166.843 32.8439 165.682 31.9079C164.521 30.9719 163.862 29.7932 163.706 28.3719H167.268C167.736 29.8625 168.871 30.6079 170.674 30.6079C171.506 30.6079 172.156 30.4605 172.624 30.1659C173.092 29.8539 173.326 29.4552 173.326 28.9699C173.326 28.4499 173.066 28.0859 172.546 27.8779C172.043 27.6525 171.177 27.4272 169.946 27.2019C168.802 27.0112 167.823 26.7859 167.008 26.5259C166.193 26.2485 165.491 25.8152 164.902 25.2259C164.313 24.6365 164.018 23.8479 164.018 22.8599C164.018 21.4559 164.607 20.4159 165.786 19.7399C166.965 19.0465 168.403 18.6999 170.102 18.6999C171.974 18.6999 173.465 19.1072 174.574 19.9219C175.701 20.7365 176.368 21.8285 176.576 23.1979H173.014C172.806 22.6259 172.468 22.1839 172 21.8719C171.549 21.5599 170.891 21.4039 170.024 21.4039C169.279 21.4039 168.681 21.5252 168.23 21.7679C167.797 22.0105 167.58 22.3399 167.58 22.7559C167.58 23.1199 167.753 23.4232 168.1 23.6659C168.464 23.8912 168.863 24.0559 169.296 24.1599C169.729 24.2639 170.475 24.4199 171.532 24.6279C173.404 24.9745 174.765 25.4339 175.614 26.0059C176.463 26.5779 176.888 27.4445 176.888 28.6059C176.888 30.0272 176.342 31.1712 175.25 32.0379C174.158 32.8872 172.607 33.3119 170.596 33.3119Z" fill="white"/>
<path d="M183.019 22.5479C182.239 22.5479 181.511 22.3745 180.835 22.0279C180.176 21.6639 179.647 21.1525 179.249 20.4939C178.867 19.8352 178.677 19.0725 178.677 18.2059C178.677 17.3392 178.867 16.5765 179.249 15.9179C179.647 15.2592 180.176 14.7565 180.835 14.4099C181.511 14.0459 182.239 13.8639 183.019 13.8639C183.799 13.8639 184.518 14.0459 185.177 14.4099C185.853 14.7565 186.39 15.2679 186.789 15.9439C187.187 16.6025 187.387 17.3565 187.387 18.2059C187.387 19.0552 187.187 19.8179 186.789 20.4939C186.39 21.1525 185.853 21.6639 185.177 22.0279C184.518 22.3745 183.799 22.5479 183.019 22.5479ZM183.019 20.3639C183.608 20.3639 184.076 20.1732 184.423 19.7919C184.787 19.3932 184.969 18.8645 184.969 18.2059C184.969 17.5472 184.787 17.0272 184.423 16.6459C184.076 16.2645 183.608 16.0739 183.019 16.0739C182.447 16.0739 181.979 16.2645 181.615 16.6459C181.268 17.0272 181.095 17.5472 181.095 18.2059C181.095 18.8645 181.268 19.3932 181.615 19.7919C181.979 20.1732 182.447 20.3639 183.019 20.3639Z" fill="white"/>
<path fill-rule="evenodd" clip-rule="evenodd" d="M183.035 16.2699C181.96 16.2699 181.09 17.1407 181.09 18.2149C181.09 19.2891 181.96 20.1599 183.035 20.1599C184.109 20.1599 184.98 19.2891 184.98 18.2149C184.98 17.1407 184.109 16.2699 183.035 16.2699ZM183.035 22.5699C185.44 22.5699 187.39 20.6201 187.39 18.2149C187.39 15.8097 185.44 13.8599 183.035 13.8599C180.629 13.8599 178.68 15.8097 178.68 18.2149C178.68 20.6201 180.629 22.5699 183.035 22.5699Z" fill="white"/>
</svg>
