<svg width="213" height="48" viewBox="0 0 213 48" fill="none" xmlns="http://www.w3.org/2000/svg">
<path opacity="0.5" fill-rule="evenodd" clip-rule="evenodd" d="M4.29111 28.6025C5.19823 29.5044 5.19821 30.9666 4.29108 31.8685L4.24462 31.9147C3.33749 32.8166 1.86674 32.8165 0.959626 31.9146C0.0525083 31.0127 0.0525222 29.5505 0.959657 28.6486L1.00611 28.6024C1.91325 27.7005 3.38399 27.7006 4.29111 28.6025Z" fill="white"/>
<path opacity="0.7" fill-rule="evenodd" clip-rule="evenodd" d="M15.2112 29.298C16.1167 30.2015 16.114 31.6638 15.2052 32.564L8.77096 38.9381C7.8622 39.8383 6.39146 39.8357 5.48597 38.9322C4.58049 38.0287 4.58315 36.5664 5.49191 35.6662L11.9262 29.2921C12.835 28.3919 14.3057 28.3945 15.2112 29.298Z" fill="white"/>
<path opacity="0.5" fill-rule="evenodd" clip-rule="evenodd" d="M23.9431 40.2706C24.6547 39.2093 26.0969 38.9226 27.1643 39.6301L27.3037 39.7224C28.3711 40.4299 28.6595 41.8638 27.9479 42.925C27.2363 43.9863 25.7941 44.2731 24.7267 43.5656L24.5873 43.4732C23.5199 42.7657 23.2315 41.3318 23.9431 40.2706Z" fill="white"/>
<path opacity="0.7" fill-rule="evenodd" clip-rule="evenodd" d="M39.2728 28.4638C40.18 29.3657 40.18 30.8279 39.2728 31.7298L36.1138 34.8706C35.2066 35.7725 33.7359 35.7725 32.8288 34.8706C31.9217 33.9687 31.9217 32.5065 32.8288 31.6046L35.9879 28.4638C36.895 27.5619 38.3657 27.5619 39.2728 28.4638Z" fill="white"/>
<path fill-rule="evenodd" clip-rule="evenodd" d="M39.3197 16.8473C40.2268 17.7492 40.2268 19.2115 39.3197 20.1133L15.9751 43.3231C15.068 44.225 13.5972 44.225 12.6901 43.3231C11.783 42.4212 11.783 40.959 12.6901 40.0571L36.0347 16.8473C36.9418 15.9454 38.4125 15.9454 39.3197 16.8473Z" fill="white"/>
<path fill-rule="evenodd" clip-rule="evenodd" d="M34.905 9.71133C35.8122 10.6132 35.8122 12.0755 34.905 12.9774L21.479 26.3259C20.5719 27.2278 19.1011 27.2278 18.194 26.3259C17.2869 25.424 17.2869 23.9617 18.194 23.0598L31.6201 9.71133C32.5272 8.80944 33.9979 8.80944 34.905 9.71133Z" fill="white"/>
<path fill-rule="evenodd" clip-rule="evenodd" d="M27.8187 5.18362C28.7264 6.0849 28.7274 7.54715 27.8209 8.44965L10.5621 25.6318C9.65563 26.5343 8.18489 26.5353 7.27715 25.634C6.36942 24.7327 6.36843 23.2705 7.27494 22.368L24.5337 5.18582C25.4402 4.28332 26.9109 4.28234 27.8187 5.18362Z" fill="white"/>
<path opacity="0.7" fill-rule="evenodd" clip-rule="evenodd" d="M10.7276 10.6841C11.6332 11.5876 11.6307 13.0498 10.722 13.9501L3.96251 20.6475C3.05382 21.5478 1.58308 21.5453 0.67752 20.6419C-0.228043 19.7384 -0.225512 18.2762 0.683174 17.3758L7.44265 10.6785C8.35133 9.77816 9.82207 9.78067 10.7276 10.6841Z" fill="white"/>
<path opacity="0.5" fill-rule="evenodd" clip-rule="evenodd" d="M14.8678 4.00024C16.1506 4.00024 17.1906 5.03421 17.1906 6.30968V6.54062C17.1906 7.81608 16.1506 8.85005 14.8678 8.85005C13.5849 8.85005 12.5449 7.81608 12.5449 6.54062V6.30968C12.5449 5.03421 13.5849 4.00024 14.8678 4.00024Z" fill="white"/>
<path d="M66.254 23.7659C66.929 24.6839 67.28 25.8179 67.28 27.1139C67.28 28.2479 66.983 29.2469 66.416 30.1379C65.822 31.0559 65.039 31.7579 64.013 32.2439C62.987 32.7569 61.826 32.9999 60.53 32.9999H50V11.6699H59.828C61.853 11.6699 63.446 12.1829 64.634 13.2089C65.795 14.2349 66.389 15.5849 66.389 17.2859C66.389 18.4199 66.119 19.4189 65.579 20.2289C65.039 21.0389 64.283 21.6329 63.338 21.9569C64.58 22.2269 65.552 22.8479 66.254 23.7659ZM54.212 20.4449H58.451C59.693 20.4449 60.611 20.2829 61.205 19.9049C61.799 19.5269 62.096 18.9599 62.096 18.1769C62.096 17.3669 61.772 16.7459 61.151 16.3409C60.53 15.9629 59.585 15.7469 58.316 15.7469H54.212V20.4449ZM61.988 28.3019C62.609 27.8969 62.933 27.2759 62.933 26.4119C62.933 25.6289 62.609 25.0349 62.015 24.6569C61.421 24.2789 60.476 24.0899 59.207 24.0899H54.212V28.9229H59.099C60.395 28.9229 61.34 28.7339 61.988 28.3019Z" fill="white"/>
<path d="M69.5033 16.5299C69.0173 16.0439 68.7743 15.4499 68.7743 14.6939C68.7743 13.9919 69.0173 13.3979 69.5033 12.9119C69.9893 12.4529 70.5833 12.2099 71.3393 12.2099C72.0683 12.2099 72.6623 12.4529 73.1483 12.9119C73.6343 13.3979 73.8773 13.9919 73.8773 14.6939C73.8773 15.4229 73.6343 16.0169 73.1483 16.5029C72.6623 16.9889 72.0683 17.2319 71.3393 17.2319C70.5833 17.2319 69.9893 17.0159 69.5033 16.5299ZM69.3143 18.9599H73.3373V32.9999H69.3143V18.9599Z" fill="white"/>
<path d="M78.5833 32.4869C77.4493 31.8389 76.5583 30.9479 75.9373 29.8139C75.2893 28.6799 74.9923 27.4109 74.9923 25.9529C74.9923 24.5219 75.2893 23.2529 75.9373 22.1189C76.5583 20.9849 77.4493 20.1209 78.5833 19.4729C79.7173 18.8519 81.0133 18.5279 82.4713 18.5279C83.9293 18.5279 85.2253 18.8519 86.3593 19.4729C87.4933 20.1209 88.3573 20.9849 89.0053 22.1189C89.6533 23.2529 89.9773 24.5219 89.9773 25.9529C89.9773 27.4109 89.6533 28.6799 89.0053 29.8139C88.3573 30.9479 87.4663 31.8389 86.3323 32.4869C85.1983 33.1349 83.9023 33.4319 82.4713 33.4319C81.0133 33.4319 79.7173 33.1349 78.5833 32.4869ZM84.9823 28.8419C85.6303 28.0859 85.9543 27.1409 85.9543 25.9529C85.9543 24.7919 85.6303 23.8469 84.9823 23.0909C84.3343 22.3619 83.4973 21.9839 82.4713 21.9839C81.4453 21.9839 80.6353 22.3619 79.9873 23.0909C79.3393 23.8469 79.0153 24.7919 79.0153 25.9529C79.0153 27.1409 79.3393 28.0859 79.9873 28.8419C80.6353 29.5979 81.4453 29.9759 82.4713 29.9759C83.4973 29.9759 84.3343 29.5979 84.9823 28.8419Z" fill="white"/>
<path d="M92.9867 32.1359C91.7717 31.2719 91.1507 30.0569 91.1237 28.5179H95.0927C95.0927 29.1929 95.3897 29.7059 95.9297 30.0839C96.4697 30.4619 97.1717 30.6509 98.0357 30.6509C98.7647 30.6509 99.3587 30.5159 99.7907 30.1919C100.223 29.8679 100.466 29.4899 100.466 29.0579C100.466 28.5449 100.196 28.1939 99.6557 27.9779C99.1157 27.7889 98.3057 27.5999 97.1717 27.4379C95.9837 27.2759 95.0117 27.0869 94.2557 26.8709C93.4997 26.6549 92.8247 26.2499 92.2847 25.6559C91.7447 25.0619 91.4747 24.2249 91.4747 23.1449C91.4747 21.7409 92.0417 20.6069 93.2297 19.7699C94.4177 18.9599 96.0377 18.5279 98.0897 18.5279C99.9527 18.5279 101.438 18.9869 102.572 19.8779C103.706 20.7689 104.327 21.9839 104.462 23.5229H100.52C100.466 22.8479 100.223 22.3079 99.7637 21.9029C99.2777 21.5249 98.6567 21.3089 97.8467 21.3089C97.0907 21.3089 96.5237 21.4709 96.1187 21.7679C95.6867 22.0919 95.4977 22.4969 95.4977 22.9829C95.4977 23.4689 95.7407 23.8199 96.2537 24.0089C96.7667 24.2249 97.5767 24.3869 98.6567 24.4949C99.8447 24.6569 100.844 24.8729 101.627 25.0889C102.383 25.3049 103.058 25.7369 103.625 26.3309C104.165 26.9249 104.462 27.7889 104.462 28.9229C104.462 30.3269 103.868 31.4069 102.707 32.2169C101.546 33.0269 99.9527 33.4319 97.9277 33.4319C95.8217 33.4319 94.1747 32.9999 92.9867 32.1359Z" fill="white"/>
<path d="M105.535 34.8629H106.912C107.776 34.8899 108.478 34.7819 109.018 34.5389C109.531 34.2959 110.017 33.8639 110.476 33.2159L104.131 18.9599H108.343L112.555 28.3289L116.065 18.9599H120.25L114.526 34.0259C113.824 35.6729 112.906 36.8069 111.745 37.4549C110.584 38.1029 109.099 38.3999 107.263 38.3999H105.535V34.8629Z" fill="white"/>
<path d="M120.921 18.9599H124.917V20.9849C125.403 20.2289 126.024 19.6079 126.834 19.1759C127.644 18.7439 128.589 18.5279 129.669 18.5279C133.125 18.5279 134.88 20.7149 134.88 25.0619V32.9999H130.83V25.2779C130.83 24.2519 130.587 23.4689 130.101 22.8749C129.615 22.2809 128.94 21.9839 128.076 21.9839C127.104 21.9839 126.321 22.3349 125.754 23.0369C125.187 23.7389 124.917 24.6569 124.917 25.8179V32.9999H120.921V18.9599Z" fill="white"/>
<path d="M142.84 33.1079C141.76 33.1079 140.923 32.9999 140.329 32.7839C139.708 32.5679 139.249 32.1899 138.979 31.6229C138.682 31.0559 138.547 30.2459 138.574 29.2199V22.6049H135.577L135.83 18.9599H138.574V15.1799H142.57V18.9599H146.242L145.99 22.6049H142.57V27.1679C142.57 27.8699 142.597 28.3559 142.651 28.6529C142.705 28.9769 142.867 29.1929 143.083 29.3279C143.299 29.4629 143.65 29.5169 144.163 29.5169C144.541 29.5169 145.619 29.4899 146.24 29.4359L145.99 32.9729C144.775 33.0809 143.515 33.1079 142.84 33.1079Z" fill="white"/>
<path d="M147.752 11.6699H151.748V20.9579C152.234 20.2019 152.855 19.6079 153.665 19.1759C154.475 18.7439 155.42 18.5279 156.5 18.5279C159.956 18.5279 161.711 20.7149 161.711 25.0349V32.9999H157.661V25.2239C157.661 24.1979 157.418 23.4149 156.932 22.8479C156.446 22.2809 155.771 21.9839 154.907 21.9839C153.935 21.9839 153.152 22.3349 152.585 23.0099C152.018 23.7119 151.748 24.6299 151.748 25.7639V32.9999H147.752V11.6699Z" fill="white"/>
<path d="M166.749 32.4869C165.615 31.8389 164.751 30.9479 164.13 29.8139C163.509 28.6799 163.212 27.4109 163.212 25.9529C163.212 24.5219 163.509 23.2529 164.13 22.1189C164.751 20.9849 165.615 20.1209 166.749 19.4729C167.856 18.8519 169.125 18.5279 170.556 18.5279C171.798 18.5279 172.905 18.8519 173.904 19.4459C174.903 20.0399 175.686 20.9039 176.28 22.0109C176.847 23.1449 177.144 24.4139 177.144 25.8719V27.1679H167.289C167.37 28.1129 167.694 28.8419 168.234 29.3819C168.774 29.9219 169.557 30.1649 170.583 30.1649C171.258 30.1649 171.825 30.0029 172.257 29.6789C172.689 29.3549 172.959 28.9499 173.067 28.4369H177.063C176.847 29.9489 176.118 31.1639 174.93 32.0819C173.742 32.9999 172.284 33.4319 170.556 33.4319C169.125 33.4319 167.856 33.1349 166.749 32.4869ZM173.121 24.7109C173.067 23.9009 172.824 23.2529 172.338 22.7399C171.852 22.2539 171.204 21.9839 170.394 21.9839C169.476 21.9839 168.774 22.2269 168.261 22.7129C167.748 23.1989 167.424 23.8739 167.316 24.7109H173.121Z" fill="white"/>
<path d="M180.151 32.1359C178.936 31.2719 178.315 30.0569 178.288 28.5179H182.257C182.257 29.1929 182.554 29.7059 183.094 30.0839C183.634 30.4619 184.336 30.6509 185.2 30.6509C185.929 30.6509 186.523 30.5159 186.955 30.1919C187.387 29.8679 187.63 29.4899 187.63 29.0579C187.63 28.5449 187.36 28.1939 186.82 27.9779C186.28 27.7889 185.47 27.5999 184.336 27.4379C183.148 27.2759 182.176 27.0869 181.42 26.8709C180.664 26.6549 179.989 26.2499 179.449 25.6559C178.909 25.0619 178.639 24.2249 178.639 23.1449C178.639 21.7409 179.206 20.6069 180.394 19.7699C181.582 18.9599 183.202 18.5279 185.254 18.5279C187.117 18.5279 188.602 18.9869 189.736 19.8779C190.87 20.7689 191.491 21.9839 191.626 23.5229H187.684C187.63 22.8479 187.387 22.3079 186.928 21.9029C186.442 21.5249 185.821 21.3089 185.011 21.3089C184.255 21.3089 183.688 21.4709 183.283 21.7679C182.851 22.0919 182.662 22.4969 182.662 22.9829C182.662 23.4689 182.905 23.8199 183.418 24.0089C183.931 24.2249 184.741 24.3869 185.821 24.4949C187.009 24.6569 188.008 24.8729 188.791 25.0889C189.547 25.3049 190.222 25.7369 190.789 26.3309C191.329 26.9249 191.626 27.7889 191.626 28.9229C191.626 30.3269 191.032 31.4069 189.871 32.2169C188.71 33.0269 187.117 33.4319 185.092 33.4319C182.986 33.4319 181.339 32.9999 180.151 32.1359Z" fill="white"/>
<path d="M193.461 16.5299C192.975 16.0439 192.732 15.4499 192.732 14.6939C192.732 13.9919 192.975 13.3979 193.461 12.9119C193.947 12.4529 194.541 12.2099 195.297 12.2099C196.026 12.2099 196.62 12.4529 197.106 12.9119C197.592 13.3979 197.835 13.9919 197.835 14.6939C197.835 15.4229 197.592 16.0169 197.106 16.5029C196.62 16.9889 196.026 17.2319 195.297 17.2319C194.541 17.2319 193.947 17.0159 193.461 16.5299ZM193.272 18.9599H197.295V32.9999H193.272V18.9599Z" fill="white"/>
<path d="M210.425 32.1359C211.64 31.2719 212.261 30.0569 212.288 28.5179H208.319C208.319 29.1929 208.022 29.7059 207.482 30.0839C206.942 30.4619 206.24 30.6509 205.376 30.6509C204.647 30.6509 204.053 30.5159 203.621 30.1919C203.189 29.8679 202.946 29.4899 202.946 29.0579C202.946 28.5449 203.216 28.1939 203.756 27.9779C204.296 27.7889 205.106 27.5999 206.24 27.4379C207.428 27.2759 208.4 27.0869 209.156 26.8709C209.912 26.6549 210.587 26.2499 211.127 25.6559C211.667 25.0619 211.937 24.2249 211.937 23.1449C211.937 21.7409 211.37 20.6069 210.182 19.7699C208.994 18.9599 207.374 18.5279 205.322 18.5279C203.459 18.5279 201.974 18.9869 200.84 19.8779C199.706 20.7689 199.085 21.9839 198.95 23.5229H202.892C202.946 22.8479 203.189 22.3079 203.648 21.9029C204.134 21.5249 204.755 21.3089 205.565 21.3089C206.321 21.3089 206.888 21.4709 207.293 21.7679C207.725 22.0919 207.914 22.4969 207.914 22.9829C207.914 23.4689 207.671 23.8199 207.158 24.0089C206.645 24.2249 205.835 24.3869 204.755 24.4949C203.567 24.6569 202.568 24.8729 201.785 25.0889C201.029 25.3049 200.354 25.7369 199.787 26.3309C199.247 26.9249 198.95 27.7889 198.95 28.9229C198.95 30.3269 199.544 31.4069 200.705 32.2169C201.866 33.0269 203.459 33.4319 205.484 33.4319C207.59 33.4319 209.237 32.9999 210.425 32.1359Z" fill="white"/>
</svg>
