<svg width="182" height="48" viewBox="0 0 182 48" fill="none" xmlns="http://www.w3.org/2000/svg">
<path fill-rule="evenodd" clip-rule="evenodd" d="M20 4C31.0457 4 40 12.9543 40 24C40 35.0457 31.0457 44 20 44C8.9543 44 0 35.0457 0 24C0 12.9543 8.9543 4 20 4ZM35 24C35 32.2843 28.2843 39 20 39V9C28.2843 9 35 15.7157 35 24Z" fill="white"/>
<path d="M59.423 12.912C64.931 12.912 67.55 15.666 68.063 19.662H64.094C63.635 17.637 62.042 16.422 59.45 16.422C56.075 16.422 54.077 18.582 54.077 23.037C54.077 28.167 56.453 29.868 59.531 29.868C62.096 29.868 63.635 28.68 64.121 26.628H68.063C67.496 31.029 64.445 33.378 59.423 33.378C53.402 33.378 50 29.976 50 23.226C50 17.259 52.943 12.912 59.423 12.912Z" fill="white"/>
<path d="M73.2225 25.845C73.2225 29.112 74.4645 30.246 76.5705 30.246C78.6495 30.246 79.8645 29.112 79.8645 25.845C79.8645 22.632 78.6495 21.471 76.5705 21.471C74.4645 21.471 73.2225 22.632 73.2225 25.845ZM69.1995 25.845C69.1995 20.985 71.7645 18.366 76.5705 18.366C81.3765 18.366 83.9145 20.985 83.9145 25.845C83.9145 30.732 81.3495 33.378 76.5705 33.378C71.7645 33.378 69.1995 30.732 69.1995 25.845Z" fill="white"/>
<path d="M93.8832 18.366C96.8802 18.366 98.6082 19.554 98.9592 22.173C99.0402 22.902 99.0672 23.577 99.0672 24.738V33H95.2062V24.684C95.2062 22.794 94.6932 21.579 92.5602 21.579C90.8052 21.525 89.5632 22.74 89.5632 25.44V33H85.7022V18.744H89.2392L89.4012 21.066C89.8602 18.96 91.5342 18.366 93.8832 18.366Z" fill="white"/>
<path d="M106.341 28.059C106.341 30.165 106.8 30.354 109.365 30.219V33.135C108.474 33.243 107.718 33.324 106.449 33.324C103.587 33.324 102.669 32.163 102.507 30.327C102.453 29.544 102.453 28.977 102.453 28.167V21.822H100.401V18.771H102.453V14.613H106.341V18.771H109.527V21.822H106.341V28.059Z" fill="white"/>
<path d="M118.672 18.366C119.185 18.366 119.509 18.366 119.833 18.447V21.579C116.404 21.228 114.838 22.794 114.838 26.817V33H110.977V18.744H114.514L114.676 21.471C114.946 19.257 116.512 18.366 118.672 18.366Z" fill="white"/>
<path d="M126.656 18.366C130.868 18.366 132.434 20.175 132.623 22.686C132.677 23.415 132.704 24.09 132.704 24.9V33H129.221L129.005 31.11C128.357 33.027 126.656 33.378 124.55 33.378C121.931 33.378 119.879 31.893 119.879 29.112C119.879 25.548 122.606 24.252 128.114 24.252H128.897V23.739C128.897 22.335 128.438 21.444 126.494 21.444C124.793 21.444 124.037 22.038 123.875 23.361H120.338C120.446 20.283 122.336 18.366 126.656 18.366ZM123.632 28.653C123.632 29.706 124.469 30.3 125.792 30.3C127.304 30.3 128.897 29.436 128.897 28.032V26.898C125.495 26.736 123.632 27.087 123.632 28.653Z" fill="white"/>
<path d="M140.412 18.366C144.462 18.366 146.19 19.932 146.379 22.929H142.653C142.464 21.606 141.573 21.282 140.331 21.282C139.197 21.282 138.333 21.714 138.333 22.524C138.333 23.388 139.035 23.874 141.249 24.225C145.002 24.792 146.811 26.088 146.811 28.896C146.811 31.92 144.057 33.378 140.628 33.378C136.578 33.378 134.499 31.947 134.121 28.707H137.901C138.144 30.003 138.954 30.435 140.736 30.435C142.14 30.435 142.977 29.976 142.977 29.22C142.977 28.275 142.005 27.735 139.899 27.411C136.119 26.79 134.499 25.656 134.499 22.767C134.499 20.148 136.821 18.366 140.412 18.366Z" fill="white"/>
<path d="M153.33 28.059C153.33 30.165 153.789 30.354 156.354 30.219V33.135C155.463 33.243 154.707 33.324 153.438 33.324C150.576 33.324 149.658 32.163 149.496 30.327C149.442 29.544 149.442 28.977 149.442 28.167V21.822H147.39V18.771H149.442V14.613H153.33V18.771H156.516V21.822H153.33V28.059Z" fill="white"/>
<path d="M168.87 13.29L175.836 33H171.651L170.004 28.248H162.741L161.067 33H156.936L164.037 13.29H168.87ZM163.686 24.9H169.113L166.44 16.989L163.686 24.9Z" fill="white"/>
<path d="M181.355 13.29V33H177.413V13.29H181.355Z" fill="white"/>
</svg>
