<svg width="147" height="48" viewBox="0 0 147 48" fill="none" xmlns="http://www.w3.org/2000/svg">
<path opacity="0.5" d="M0 14.5264V33.4737L17.8947 21.23V2.28259L0 14.5264Z" fill="white"/>
<path opacity="0.5" d="M0 33.4737V14.5263L17.8947 26.7701V45.7175L0 33.4737Z" fill="white"/>
<path opacity="0.5" d="M40 14.5263V33.4737L22.1053 21.2299V2.28253L40 14.5263Z" fill="white"/>
<path opacity="0.5" d="M40 33.4737V14.5263L22.1053 26.7701V45.7175L40 33.4737Z" fill="white"/>
<path d="M50 24.2C50 22.4666 50.375 20.925 51.125 19.575C51.875 18.2083 52.9167 17.15 54.25 16.4C55.6 15.6333 57.125 15.25 58.825 15.25C60.9083 15.25 62.6917 15.8 64.175 16.9C65.6583 18 66.65 19.5 67.15 21.4H62.45C62.1 20.6666 61.6 20.1083 60.95 19.725C60.3167 19.3416 59.5917 19.15 58.775 19.15C57.4583 19.15 56.3917 19.6083 55.575 20.525C54.7583 21.4416 54.35 22.6666 54.35 24.2C54.35 25.7333 54.7583 26.9583 55.575 27.875C56.3917 28.7916 57.4583 29.25 58.775 29.25C59.5917 29.25 60.3167 29.0583 60.95 28.675C61.6 28.2916 62.1 27.7333 62.45 27H67.15C66.65 28.9 65.6583 30.4 64.175 31.5C62.6917 32.5833 60.9083 33.125 58.825 33.125C57.125 33.125 55.6 32.75 54.25 32C52.9167 31.2333 51.875 30.175 51.125 28.825C50.375 27.475 50 25.9333 50 24.2Z" fill="white"/>
<path d="M83.043 19.05V33H78.768V31.1C78.3346 31.7166 77.743 32.2166 76.993 32.6C76.2596 32.9666 75.443 33.15 74.543 33.15C73.4763 33.15 72.5346 32.9166 71.718 32.45C70.9013 31.9666 70.268 31.275 69.818 30.375C69.368 29.475 69.143 28.4166 69.143 27.2V19.05H73.393V26.625C73.393 27.5583 73.6346 28.2833 74.118 28.8C74.6013 29.3166 75.2513 29.575 76.068 29.575C76.9013 29.575 77.5596 29.3166 78.043 28.8C78.5263 28.2833 78.768 27.5583 78.768 26.625V19.05H83.043Z" fill="white"/>
<path d="M89.8887 21.025C90.2887 20.375 90.8637 19.85 91.6137 19.45C92.3637 19.05 93.222 18.85 94.1887 18.85C95.3387 18.85 96.3803 19.1416 97.3137 19.725C98.247 20.3083 98.9803 21.1416 99.5137 22.225C100.064 23.3083 100.339 24.5666 100.339 26C100.339 27.4333 100.064 28.7 99.5137 29.8C98.9803 30.8833 98.247 31.725 97.3137 32.325C96.3803 32.9083 95.3387 33.2 94.1887 33.2C93.2053 33.2 92.347 33.0083 91.6137 32.625C90.8803 32.225 90.3053 31.7 89.8887 31.05V33H85.6137V14.5H89.8887V21.025ZM95.9887 26C95.9887 24.9333 95.6887 24.1 95.0887 23.5C94.5053 22.8833 93.7803 22.575 92.9137 22.575C92.0637 22.575 91.3387 22.8833 90.7387 23.5C90.1553 24.1166 89.8637 24.9583 89.8637 26.025C89.8637 27.0916 90.1553 27.9333 90.7387 28.55C91.3387 29.1666 92.0637 29.475 92.9137 29.475C93.7637 29.475 94.4887 29.1666 95.0887 28.55C95.6887 27.9166 95.9887 27.0666 95.9887 26Z" fill="white"/>
<path d="M115.231 25.8C115.231 26.2 115.206 26.6166 115.156 27.05H105.481C105.548 27.9166 105.823 28.5833 106.306 29.05C106.806 29.5 107.415 29.725 108.131 29.725C109.198 29.725 109.94 29.275 110.356 28.375H114.906C114.673 29.2916 114.248 30.1166 113.631 30.85C113.031 31.5833 112.273 32.1583 111.356 32.575C110.44 32.9916 109.415 33.2 108.281 33.2C106.915 33.2 105.698 32.9083 104.631 32.325C103.565 31.7416 102.731 30.9083 102.131 29.825C101.531 28.7416 101.231 27.475 101.231 26.025C101.231 24.575 101.523 23.3083 102.106 22.225C102.706 21.1416 103.54 20.3083 104.606 19.725C105.673 19.1416 106.898 18.85 108.281 18.85C109.631 18.85 110.831 19.1333 111.881 19.7C112.931 20.2666 113.748 21.075 114.331 22.125C114.931 23.175 115.231 24.4 115.231 25.8ZM110.856 24.675C110.856 23.9416 110.606 23.3583 110.106 22.925C109.606 22.4916 108.981 22.275 108.231 22.275C107.515 22.275 106.906 22.4833 106.406 22.9C105.923 23.3166 105.623 23.9083 105.506 24.675H110.856Z" fill="white"/>
<path d="M125.512 33L121.262 27.15V33H116.987V14.5H121.262V24.725L125.487 19.05H130.762L124.962 26.05L130.812 33H125.512Z" fill="white"/>
<path d="M134.091 17.6C133.341 17.6 132.724 17.3833 132.241 16.95C131.774 16.5 131.541 15.95 131.541 15.3C131.541 14.6333 131.774 14.0833 132.241 13.65C132.724 13.2 133.341 12.975 134.091 12.975C134.824 12.975 135.424 13.2 135.891 13.65C136.374 14.0833 136.616 14.6333 136.616 15.3C136.616 15.95 136.374 16.5 135.891 16.95C135.424 17.3833 134.824 17.6 134.091 17.6ZM136.216 19.05V33H131.941V19.05H136.216Z" fill="white"/>
<path d="M146.589 29.375V33H144.414C142.864 33 141.656 32.625 140.789 31.875C139.922 31.1083 139.489 29.8666 139.489 28.15V22.6H137.789V19.05H139.489V15.65H143.764V19.05H146.564V22.6H143.764V28.2C143.764 28.6166 143.864 28.9166 144.064 29.1C144.264 29.2833 144.597 29.375 145.064 29.375H146.589Z" fill="white"/>
</svg>
