<svg width="151" height="48" viewBox="0 0 151 48" fill="none" xmlns="http://www.w3.org/2000/svg">
<path fill-rule="evenodd" clip-rule="evenodd" d="M20 44C31.0457 44 40 35.0457 40 24C40 12.9543 31.0457 4 20 4C8.9543 4 0 12.9543 0 24C0 35.0457 8.9543 44 20 44ZM25 28C29.9706 28 34 23.9706 34 19C34 14.0294 29.9706 10 25 10C20.0294 10 16 14.0294 16 19C16 23.9706 20.0294 28 25 28Z" fill="white"/>
<path d="M63.041 29.4359V32.9999H50V13.6139H62.852V17.1779H54.104V21.2549H62.042V24.7919H54.104V29.4359H63.041Z" fill="white"/>
<path d="M69.1588 15.2339C69.1588 16.5029 68.1328 17.4479 66.6478 17.4479C65.1898 17.4479 64.1638 16.5029 64.1638 15.2339C64.1638 13.9109 65.1898 12.9659 66.6478 12.9659C68.1328 12.9659 69.1588 13.9109 69.1588 15.2339ZM68.5648 32.9999H64.8118V18.5819H68.5648V32.9999Z" fill="white"/>
<path d="M76.9536 38.4809C73.0656 38.4809 70.4736 36.3749 70.3116 33.0539H73.9296C74.0916 34.7009 75.1446 35.5649 76.9266 35.5649C79.0056 35.5649 80.0856 34.4579 80.0856 32.3789V30.2729C79.3026 31.6499 77.8176 32.4599 76.0626 32.4599C72.5256 32.4599 69.8796 29.4629 69.8796 25.3859C69.8796 21.2009 72.3636 18.3119 75.9276 18.3119C77.8716 18.3119 79.3296 19.0679 80.3826 20.5529V18.5819H83.8116V32.3249C83.8116 36.1589 81.2196 38.4809 76.9536 38.4809ZM73.6326 25.3859C73.6326 27.7349 74.8476 29.2199 76.7916 29.2199C78.7626 29.2199 80.0586 27.6809 80.0586 25.4129C80.0586 23.0639 78.7626 21.5519 76.7916 21.5519C74.8746 21.5519 73.6326 23.0369 73.6326 25.3859Z" fill="white"/>
<path d="M89.8716 25.1429V32.9999H86.1186V13.6139H89.8716V20.4719C90.8706 19.1489 92.1126 18.3119 94.0026 18.3119C96.8916 18.3119 98.8896 20.2019 98.8896 23.6849V32.9999H95.1636V24.9539C95.1636 22.8209 94.3266 21.6329 92.6256 21.6329C91.1406 21.6329 89.8716 22.8209 89.8716 25.1429Z" fill="white"/>
<path d="M109.902 29.3549V32.6219C108.984 33.0809 108.12 33.2699 107.013 33.2699C104.043 33.2699 102.18 31.5689 102.18 28.3289V21.7949H99.264V18.5819H102.18V14.3159H105.906V18.5819H110.037V21.7949H105.906V27.4649C105.906 29.1389 106.662 29.8139 108.012 29.8139C108.714 29.8139 109.362 29.6519 109.902 29.3549Z" fill="white"/>
<path d="M125.64 25.7909C125.64 30.0029 123.129 33.2699 119.241 33.2699C117.378 33.2699 115.812 32.4329 114.705 30.9209V32.9999H111.249V13.6139H115.002V20.4449C116.055 19.0409 117.513 18.3119 119.241 18.3119C123.129 18.3119 125.64 21.5249 125.64 25.7909ZM121.779 25.7909C121.779 23.0369 120.24 21.6329 118.404 21.6329C116.595 21.6329 115.029 23.0099 115.029 25.7369C115.029 28.4639 116.541 29.9219 118.404 29.9219C120.24 29.9219 121.779 28.4909 121.779 25.7909Z" fill="white"/>
<path d="M135.551 32.9999V31.2179C134.606 32.5679 133.175 33.2699 131.204 33.2699C128.207 33.2699 126.209 31.5149 126.209 28.8149C126.209 26.0069 128.477 24.4949 132.689 24.4949C133.499 24.4949 134.201 24.5489 135.092 24.6569V23.7929C135.092 22.1729 134.174 21.2279 132.608 21.2279C130.988 21.2279 130.016 22.1729 129.881 23.7929H126.506C126.722 20.4719 129.125 18.3119 132.608 18.3119C136.388 18.3119 138.602 20.3909 138.602 23.9279V32.9999H135.551ZM129.746 28.7069C129.746 29.9219 130.61 30.6779 132.014 30.6779C133.931 30.6779 135.092 29.6249 135.092 27.9509V26.9249C134.201 26.7899 133.58 26.7359 132.932 26.7359C130.799 26.7359 129.746 27.4109 129.746 28.7069Z" fill="white"/>
<path d="M144.536 32.9999H140.756V13.6139H144.536V32.9999Z" fill="white"/>
<path d="M150.601 32.9999H146.821V13.6139H150.601V32.9999Z" fill="white"/>
</svg>
