<svg width="162" height="48" viewBox="0 0 162 48" fill="none" xmlns="http://www.w3.org/2000/svg">
<path d="M9 8.5C9 10.9853 6.98528 13 4.5 13C2.01472 13 0 10.9853 0 8.5C0 6.01472 2.01472 4 4.5 4C6.98528 4 9 6.01472 9 8.5Z" fill="white"/>
<path d="M24.5 8.5C24.5 10.9853 22.4853 13 20 13C17.5147 13 15.5 10.9853 15.5 8.5C15.5 6.01472 17.5147 4 20 4C22.4853 4 24.5 6.01472 24.5 8.5Z" fill="white"/>
<path d="M40 8.5C40 10.9853 37.9853 13 35.5 13C33.0147 13 31 10.9853 31 8.5C31 6.01472 33.0147 4 35.5 4C37.9853 4 40 6.01472 40 8.5Z" fill="white"/>
<path d="M9 24C9 26.4853 6.98528 28.5 4.5 28.5C2.01472 28.5 0 26.4853 0 24C0 21.5147 2.01472 19.5 4.5 19.5C6.98528 19.5 9 21.5147 9 24Z" fill="white"/>
<path d="M24.5 24C24.5 26.4853 22.4853 28.5 20 28.5C17.5147 28.5 15.5 26.4853 15.5 24C15.5 21.5147 17.5147 19.5 20 19.5C22.4853 19.5 24.5 21.5147 24.5 24Z" fill="white"/>
<path d="M40 24C40 26.4853 37.9853 28.5 35.5 28.5C33.0147 28.5 31 26.4853 31 24C31 21.5147 33.0147 19.5 35.5 19.5C37.9853 19.5 40 21.5147 40 24Z" fill="white"/>
<path d="M9 39.5C9 41.9853 6.98528 44 4.5 44C2.01472 44 0 41.9853 0 39.5C0 37.0147 2.01472 35 4.5 35C6.98528 35 9 37.0147 9 39.5Z" fill="white"/>
<path d="M24.5 39.5C24.5 41.9853 22.4853 44 20 44C17.5147 44 15.5 41.9853 15.5 39.5C15.5 37.0147 17.5147 35 20 35C22.4853 35 24.5 37.0147 24.5 39.5Z" fill="white"/>
<path d="M40 39.5C40 41.9853 37.9853 44 35.5 44C33.0147 44 31 41.9853 31 39.5C31 37.0147 33.0147 35 35.5 35C37.9853 35 40 37.0147 40 39.5Z" fill="white"/>
<path d="M57.992 33.224C56.816 33.224 55.7707 33.0093 54.856 32.58C53.96 32.132 53.26 31.516 52.756 30.732C52.252 29.9293 52 29.0147 52 27.988V24.376C52 23.2747 52.252 22.304 52.756 21.464C53.26 20.624 53.96 19.9707 54.856 19.504C55.7707 19.0373 56.816 18.804 57.992 18.804H60.232C62.024 18.804 63.4613 19.308 64.544 20.316C65.6267 21.324 66.168 22.668 66.168 24.348V27.316H55.808V27.988C55.808 28.604 56.004 29.0987 56.396 29.472C56.788 29.8453 57.32 30.032 57.992 30.032H60.176C60.8293 30.032 61.352 29.892 61.744 29.612C62.1547 29.3133 62.36 28.9307 62.36 28.464H66.112C66.112 29.3973 65.86 30.228 65.356 30.956C64.852 31.684 64.1427 32.244 63.228 32.636C62.332 33.028 61.296 33.224 60.12 33.224H57.992ZM62.416 24.572V24.348C62.416 23.62 62.22 23.0413 61.828 22.612C61.436 22.164 60.9133 21.94 60.26 21.94H57.992C57.32 21.94 56.7787 22.1733 56.368 22.64C55.9573 23.1067 55.752 23.7227 55.752 24.488V24.572H62.416Z" fill="white"/>
<path d="M68.1875 19.028H71.7155V20.708C72.1262 20.1293 72.6582 19.672 73.3115 19.336C73.9648 18.9813 74.6182 18.804 75.2715 18.804H76.9515C78.4448 18.804 79.6395 19.2707 80.5355 20.204C81.4502 21.1373 81.9075 22.3693 81.9075 23.9V33H78.0995V24.04C78.0995 23.4613 77.9408 22.9947 77.6235 22.64C77.3248 22.2853 76.9328 22.108 76.4475 22.108H74.7675C74.1142 22.108 73.5262 22.3507 73.0035 22.836C72.4995 23.3027 72.1635 23.9187 71.9955 24.684V33H68.1875V19.028Z" fill="white"/>
<path d="M84.4166 19.028H87.9446V20.708C88.3552 20.1293 88.8872 19.672 89.5406 19.336C90.1939 18.9813 90.8472 18.804 91.5006 18.804H93.1806C94.6739 18.804 95.8686 19.2707 96.7646 20.204C97.6792 21.1373 98.1366 22.3693 98.1366 23.9V33H94.3286V24.04C94.3286 23.4613 94.1699 22.9947 93.8526 22.64C93.5539 22.2853 93.1619 22.108 92.6766 22.108H90.9966C90.3432 22.108 89.7552 22.3507 89.2326 22.836C88.7286 23.3027 88.3926 23.9187 88.2246 24.684V33H84.4166V19.028Z" fill="white"/>
<path d="M103.474 33C102.652 33 101.99 32.7667 101.486 32.3C101 31.8147 100.758 31.18 100.758 30.396V13.4H104.622V29.64H115.262V33H103.474Z" fill="white"/>
<path d="M120.971 33.224C119.515 33.224 118.339 32.86 117.443 32.132C116.547 31.404 116.099 30.4427 116.099 29.248V28.212C116.099 27.036 116.565 26.0933 117.499 25.384C118.432 24.656 119.664 24.292 121.195 24.292H122.903C123.388 24.292 123.911 24.3573 124.471 24.488C125.031 24.6187 125.544 24.796 126.011 25.02V23.564C126.011 23.0973 125.852 22.724 125.535 22.444C125.236 22.1453 124.835 21.996 124.331 21.996H121.923C121.4 21.996 120.98 22.1173 120.663 22.36C120.345 22.6027 120.187 22.9293 120.187 23.34H116.491C116.491 21.9773 116.985 20.8853 117.975 20.064C118.983 19.224 120.299 18.804 121.923 18.804H124.331C125.973 18.804 127.299 19.2427 128.307 20.12C129.315 20.9787 129.819 22.1267 129.819 23.564V33H126.291V31.32C125.843 31.8987 125.292 32.3653 124.639 32.72C123.985 33.056 123.341 33.224 122.707 33.224H120.971ZM122.987 30.312C123.677 30.312 124.293 30.1347 124.835 29.78C125.376 29.4253 125.768 28.9493 126.011 28.352V27.876C125.712 27.652 125.292 27.4747 124.751 27.344C124.228 27.2133 123.668 27.148 123.071 27.148H121.307C120.859 27.148 120.495 27.26 120.215 27.484C119.935 27.708 119.795 28.0067 119.795 28.38V29.108C119.795 29.4627 119.944 29.752 120.243 29.976C120.56 30.2 120.971 30.312 121.475 30.312H122.987Z" fill="white"/>
<path d="M139.086 33.224C138.507 33.224 137.919 33.0373 137.322 32.664C136.725 32.2907 136.239 31.8053 135.866 31.208V33H132.338V13.4H136.146V20.12C136.519 19.728 136.977 19.4107 137.518 19.168C138.078 18.9253 138.61 18.804 139.114 18.804H141.074C142.157 18.804 143.109 19.0373 143.93 19.504C144.77 19.952 145.414 20.596 145.862 21.436C146.329 22.276 146.562 23.2467 146.562 24.348V27.54C146.562 28.66 146.329 29.6493 145.862 30.508C145.395 31.3667 144.742 32.0387 143.902 32.524C143.062 32.9907 142.101 33.224 141.018 33.224H139.086ZM140.57 29.892C141.223 29.892 141.746 29.6493 142.138 29.164C142.549 28.6787 142.754 28.044 142.754 27.26V24.628C142.754 23.8813 142.558 23.284 142.166 22.836C141.774 22.3693 141.261 22.136 140.626 22.136H138.89C138.143 22.136 137.518 22.3973 137.014 22.92C136.51 23.4427 136.221 24.1333 136.146 24.992V27.4C136.277 28.1467 136.575 28.7533 137.042 29.22C137.527 29.668 138.097 29.892 138.75 29.892H140.57Z" fill="white"/>
<path d="M153.633 33.224C151.934 33.224 150.571 32.776 149.545 31.88C148.518 30.984 148.005 29.808 148.005 28.352H151.757C151.757 28.856 151.925 29.2667 152.261 29.584C152.615 29.8827 153.073 30.032 153.633 30.032H156.153C157.273 30.032 157.833 29.724 157.833 29.108V28.632C157.833 28.4453 157.739 28.2773 157.553 28.128C157.366 27.96 157.114 27.848 156.797 27.792L151.953 26.952C150.814 26.7653 149.909 26.364 149.237 25.748C148.583 25.1133 148.257 24.376 148.257 23.536V22.612C148.257 21.4173 148.742 20.484 149.713 19.812C150.702 19.14 152.074 18.804 153.829 18.804H156.013C157.581 18.804 158.841 19.224 159.793 20.064C160.763 20.8853 161.249 21.9773 161.249 23.34H157.497C157.497 22.9293 157.357 22.6027 157.077 22.36C156.815 22.1173 156.461 21.996 156.013 21.996H153.885C152.671 21.996 152.065 22.276 152.065 22.836V23.284C152.065 23.4893 152.139 23.6667 152.289 23.816C152.457 23.9467 152.69 24.04 152.989 24.096L158.085 25.02C159.149 25.2067 160.007 25.608 160.661 26.224C161.314 26.8213 161.641 27.5027 161.641 28.268V29.276C161.641 30.4893 161.137 31.4507 160.129 32.16C159.139 32.8693 157.814 33.224 156.153 33.224H153.633Z" fill="white"/>
</svg>
