<svg width="178" height="48" viewBox="0 0 178 48" fill="none" xmlns="http://www.w3.org/2000/svg">
<path d="M19.6007 4.95239C16.134 4.95239 13.334 7.71836 13.334 11.1429C13.334 14.5411 16.134 17.307 19.574 17.3333C18.7206 17.307 18.054 16.6221 18.054 15.7791C18.054 14.9362 18.7473 14.225 19.6273 14.225C23.3606 14.225 31.654 14.2249 35.3073 14.2249C37.894 14.2249 40.0007 12.1439 40.0007 9.5887C40.0007 7.03344 37.894 4.95239 35.3073 4.95239L19.6007 4.95239Z" fill="white"/>
<path opacity="0.7" d="M11.9815 17.3333C8.51484 17.3333 5.71484 20.0993 5.71484 23.5238C5.71484 26.922 8.51484 29.6879 11.9548 29.7143C11.1015 29.6879 10.4348 29.003 10.4348 28.16C10.4348 27.3171 11.1282 26.6059 12.0082 26.6059C15.7415 26.6059 24.0349 26.6059 27.6882 26.6059C30.2748 26.6059 32.3815 24.5248 32.3815 21.9696C32.3815 19.4144 30.2748 17.3333 27.6882 17.3333L11.9815 17.3333Z" fill="white"/>
<path opacity="0.5" d="M6.71429 29.7143C3 29.7143 -1.08238e-07 32.693 0 36.3809C1.07406e-07 40.0405 3 43.0192 6.68569 43.0476C5.77142 43.0192 5.05714 42.2817 5.05714 41.3738C5.05714 40.466 5.80002 39.7001 6.74288 39.7001C10.7428 39.7001 19.6286 39.7001 23.5429 39.7001C26.3143 39.7001 28.5714 37.459 28.5714 34.7072C28.5714 31.9554 26.3143 29.7143 23.5429 29.7143L6.71429 29.7143Z" fill="white"/>
<path fill-rule="evenodd" clip-rule="evenodd" d="M83.3468 12.8C82.1117 12.8 81.1758 13.6634 81.1758 14.89C81.1758 16.1381 82.106 17.034 83.3468 17.034C84.5839 17.034 85.5448 16.1416 85.5448 14.89C85.5448 13.6599 84.5782 12.8 83.3468 12.8Z" fill="white"/>
<path fill-rule="evenodd" clip-rule="evenodd" d="M129.836 12.8C128.601 12.8 127.665 13.6634 127.665 14.89C127.665 16.1381 128.596 17.034 129.836 17.034C131.073 17.034 132.034 16.1416 132.034 14.89C132.034 13.6599 131.068 12.8 129.836 12.8Z" fill="white"/>
<path d="M85.4246 18.69H81.3206V33H85.4246V18.69Z" fill="white"/>
<path d="M50 13.83H63.365V17.313H54.131V21.687H63.041V25.089H54.131V29.517H63.581V33H50V13.83Z" fill="white"/>
<path fill-rule="evenodd" clip-rule="evenodd" d="M65.4729 37.05V18.69H69.3879L69.4689 20.796C70.2519 19.23 71.7369 18.366 73.7349 18.366C77.7849 18.366 79.8369 21.633 79.8369 25.845C79.8369 30.057 77.7849 33.324 73.7349 33.324C71.8719 33.324 70.4139 32.514 69.5769 31.002V37.05H65.4729ZM69.3069 25.845C69.3069 28.194 70.3059 30.219 72.4659 30.219C74.6529 30.219 75.6519 28.194 75.6519 25.845C75.6519 23.523 74.5989 21.471 72.4659 21.471C70.3059 21.471 69.3069 23.523 69.3069 25.845Z" fill="white"/>
<path d="M97.2053 24.171C96.9623 22.443 95.8283 21.498 94.3973 21.498C92.3723 21.498 91.2383 23.091 91.2383 25.845C91.2383 28.599 92.3723 30.192 94.3973 30.192C95.9093 30.192 97.0163 29.247 97.2593 27.384L101.471 27.546C101.093 31.11 98.2043 33.324 94.3973 33.324C89.9693 33.324 87.0533 30.381 87.0533 25.845C87.0533 21.309 89.9693 18.366 94.3973 18.366C98.0963 18.366 101.012 20.499 101.39 23.982L97.2053 24.171Z" fill="white"/>
<path d="M111.781 33H115.48V18.69H111.403V26.547C111.403 28.815 110.512 30.084 108.838 30.084C107.191 30.084 106.705 28.815 106.705 26.547V18.69H102.601V27.897C102.601 31.218 104.41 33.324 107.488 33.324C109.324 33.324 110.917 32.622 111.7 30.759L111.781 33Z" fill="white"/>
<path d="M117.948 18.69H121.836L121.917 21.552C122.484 19.635 123.564 18.69 125.373 18.69H126.669V21.741H125.319C122.97 21.741 122.052 22.821 122.052 25.035V33H117.948V18.69Z" fill="white"/>
<path d="M131.914 18.69H127.81V33H131.914V18.69Z" fill="white"/>
<path fill-rule="evenodd" clip-rule="evenodd" d="M140.887 33.324C136.459 33.324 133.543 30.381 133.543 25.845C133.543 21.309 136.459 18.366 140.887 18.366C145.315 18.366 148.231 21.309 148.231 25.845C148.231 30.381 145.315 33.324 140.887 33.324ZM137.728 25.845C137.728 28.599 138.862 30.192 140.887 30.192C142.912 30.192 144.046 28.599 144.046 25.845C144.046 23.091 142.912 21.498 140.887 21.498C138.862 21.498 137.728 23.091 137.728 25.845Z" fill="white"/>
<path d="M158.824 33H162.523V18.69H158.446V26.547C158.446 28.815 157.555 30.084 155.881 30.084C154.234 30.084 153.748 28.815 153.748 26.547V18.69H149.644V27.897C149.644 31.218 151.453 33.324 154.531 33.324C156.367 33.324 157.96 32.622 158.743 30.759L158.824 33Z" fill="white"/>
<path d="M173.523 23.334C173.307 22.011 172.173 21.201 170.931 21.201C169.716 21.201 168.771 21.849 168.825 22.875C168.879 23.928 170.094 24.387 171.444 24.603C175.656 25.278 177.735 26.385 177.735 29.085C177.735 31.947 175.035 33.324 171.363 33.324C167.178 33.324 164.505 31.515 164.289 28.464L168.393 28.248C168.636 29.625 169.635 30.462 171.282 30.462C172.308 30.462 173.55 30.03 173.55 29.004C173.525 27.861 172.305 27.6021 171.014 27.3282C170.933 27.311 170.851 27.2936 170.769 27.276C166.827 26.52 164.613 25.548 164.613 22.902C164.613 20.04 167.016 18.339 171.093 18.339C174.711 18.339 177.141 20.175 177.627 23.172L173.523 23.334Z" fill="white"/>
</svg>
