<svg width="185" height="48" viewBox="0 0 185 48" fill="none" xmlns="http://www.w3.org/2000/svg">
<path opacity="0.5" d="M36.3068 11.4224C35.8746 10.9901 35.4424 10.5579 35.0101 10.1257C33.7135 8.74259 32.3304 7.35949 30.6015 6.49505C28.6133 5.45772 26.4522 5.71705 24.2911 5.71705C21.0062 5.71705 12.794 5.71705 7.95312 5.71705L11.238 10.1257C17.2026 10.1257 26.5386 10.1257 30.8608 10.1257C32.6761 10.1257 34.2321 10.4715 35.7017 11.4224C35.961 11.5088 36.2203 11.5088 36.3068 11.4224Z" fill="white"/>
<path opacity="0.7" d="M39.9368 18.511C39.5046 18.0788 39.0723 17.6465 38.6401 17.2143C37.3434 15.8312 35.9604 14.4481 34.2315 13.5837C32.2433 12.5463 30.0821 12.8057 27.921 12.8057C25.0684 12.8057 18.2393 12.8057 13.3984 12.8057L16.6833 17.2143C22.5615 17.2143 30.6008 17.2143 34.5772 17.2143C36.3926 17.2143 37.9486 17.5601 39.4181 18.511C39.591 18.5974 39.7639 18.5974 39.9368 18.511Z" fill="white"/>
<path d="M44 25.4263C43.5678 24.994 43.1355 24.5618 42.7033 24.1296C41.4067 22.7465 40.0236 21.3634 38.2947 20.4989C36.3065 19.4616 34.1454 19.721 31.9843 19.721C29.3045 19.721 23.4263 19.721 18.6719 19.721L21.9567 24.1296C27.6621 24.1296 34.9234 24.1296 38.554 24.1296C40.3693 24.1296 41.9253 24.4754 43.3949 25.4263C43.6542 25.5127 43.8271 25.5992 44 25.4263Z" fill="white"/>
<path opacity="0.5" d="M7.60742 37.0961C8.03964 37.5283 8.47186 37.9605 8.90408 38.3927C10.2007 39.7758 11.5838 41.1589 13.3127 42.0234C15.3009 43.0607 17.462 42.8014 19.6231 42.8014H35.9611L32.6762 38.3927C26.7116 38.3927 17.3756 38.3927 13.0534 38.3927C11.2381 38.3927 9.68208 38.047 8.21253 37.0961C7.9532 37.0096 7.78031 37.0096 7.60742 37.0961Z" fill="white"/>
<path opacity="0.7" d="M3.97656 30.0079C4.40878 30.4402 4.841 30.8724 5.27322 31.3046C6.56989 32.6877 7.95298 34.0708 9.68186 34.9353C11.6701 35.9726 13.8312 35.7133 15.9923 35.7133H30.5149L27.23 31.3046C21.3518 31.3046 13.3125 31.3046 9.33609 31.3046C7.52077 31.3046 5.96477 30.9588 4.49522 30.0079C4.32233 29.9215 4.14945 29.9215 3.97656 30.0079Z" fill="white"/>
<path d="M0 23.0058C0.43222 23.438 0.864441 23.8702 1.29666 24.3024C2.59332 25.6855 3.97643 27.0686 5.70532 27.9331C7.69353 28.9704 9.85462 28.7111 12.0157 28.7111H25.3281L22.0432 24.3024C16.3379 24.3024 9.07663 24.3024 5.44598 24.3024C3.63065 24.3024 2.07466 23.9566 0.605106 23.0058C0.345774 22.9193 0.172888 22.9193 0 23.0058Z" fill="white"/>
<path fill-rule="evenodd" clip-rule="evenodd" d="M68.5633 32.467C69.6639 33.0824 70.9336 33.39 72.3723 33.39C73.7243 33.39 74.9679 33.0347 76.1033 32.324C77.2473 31.6134 78.0836 30.6167 78.6123 29.334L75.0763 28.32C74.8162 28.892 74.4393 29.3297 73.9453 29.633C73.4513 29.9364 72.8576 30.088 72.1643 30.088C71.0636 30.088 70.2273 29.7327 69.6553 29.022C69.2428 28.4953 68.9813 27.8107 68.8709 26.968H78.7293C78.8766 25.2694 78.7033 23.7917 78.2093 22.535C77.7153 21.2784 76.9526 20.3034 75.9213 19.61C74.8899 18.9167 73.6376 18.57 72.1643 18.57C70.7776 18.57 69.5513 18.8864 68.4853 19.519C67.4193 20.143 66.5829 21.0227 65.9763 22.158C65.3696 23.2934 65.0663 24.628 65.0663 26.162C65.0663 27.566 65.3739 28.814 65.9893 29.906C66.6132 30.9894 67.4713 31.843 68.5633 32.467ZM75.1516 24.342C75.0483 23.5826 74.8455 22.9976 74.5433 22.587C74.0926 21.9544 73.3516 21.638 72.3203 21.638C71.1156 21.638 70.2273 22.0064 69.6553 22.743C69.3322 23.1606 69.1017 23.6936 68.9639 24.342H75.1516Z" fill="white"/>
<path fill-rule="evenodd" clip-rule="evenodd" d="M83.7507 33.39C82.7454 33.39 81.8917 33.1994 81.1897 32.818C80.4964 32.428 79.9677 31.9124 79.6037 31.271C79.2484 30.621 79.0707 29.906 79.0707 29.126C79.0707 28.476 79.1704 27.8824 79.3697 27.345C79.569 26.8077 79.8897 26.3354 80.3317 25.928C80.7824 25.512 81.3847 25.1654 82.1387 24.888C82.6587 24.6974 83.2784 24.5284 83.9977 24.381C84.717 24.2337 85.5317 24.095 86.4417 23.965C86.9773 23.8834 87.5445 23.7973 88.1431 23.7067C88.0759 23.1278 87.8858 22.6853 87.5727 22.379C87.174 21.989 86.5067 21.794 85.5707 21.794C85.0507 21.794 84.509 21.9197 83.9457 22.171C83.3824 22.4224 82.988 22.8687 82.7627 23.51L79.5647 22.496C79.92 21.3347 80.5874 20.39 81.5667 19.662C82.546 18.934 83.8807 18.57 85.5707 18.57C86.81 18.57 87.9107 18.7607 88.8727 19.142C89.8347 19.5234 90.5627 20.182 91.0567 21.118C91.334 21.638 91.4987 22.158 91.5507 22.678C91.6027 23.198 91.6287 23.7787 91.6287 24.42V33H88.5347V31.2766C87.9761 31.9347 87.3824 32.4312 86.7537 32.766C85.965 33.182 84.964 33.39 83.7507 33.39ZM84.5047 30.608C85.1547 30.608 85.7007 30.4954 86.1427 30.27C86.5934 30.036 86.9487 29.7717 87.2087 29.477C87.4774 29.1824 87.6594 28.9354 87.7547 28.736C87.9367 28.3547 88.0407 27.9127 88.0667 27.41C88.0878 27.0985 88.1025 26.8191 88.1108 26.5719C87.5284 26.6714 87.0284 26.7601 86.6107 26.838C85.9607 26.9507 85.4364 27.0547 85.0377 27.15C84.639 27.2454 84.288 27.3494 83.9847 27.462C83.638 27.6007 83.3564 27.7524 83.1397 27.917C82.9317 28.073 82.7757 28.2464 82.6717 28.437C82.5764 28.6277 82.5287 28.84 82.5287 29.074C82.5287 29.3947 82.6067 29.672 82.7627 29.906C82.9274 30.1314 83.157 30.3047 83.4517 30.426C83.7464 30.5474 84.0974 30.608 84.5047 30.608Z" fill="white"/>
<path d="M99.0129 33.234C99.9489 33.26 100.902 33.182 101.873 33V30.062C101.041 30.1747 100.283 30.2094 99.5979 30.166C98.9132 30.1227 98.4149 29.854 98.1029 29.36C97.9382 29.1 97.8472 28.7534 97.8299 28.32C97.8212 27.878 97.8169 27.384 97.8169 26.838V21.69H101.873V18.96H97.8169V15.06H94.2809V18.96H91.8889V21.69H94.2809V27.046C94.2809 27.8867 94.2896 28.6407 94.3069 29.308C94.3242 29.9667 94.5062 30.6167 94.8529 31.258C95.2342 31.9427 95.7889 32.441 96.5169 32.753C97.2536 33.0564 98.0856 33.2167 99.0129 33.234Z" fill="white"/>
<path d="M116.546 24.004C116.58 24.5154 116.598 24.888 116.598 25.122V33H113.01V26.37C113.01 26.0494 112.992 25.642 112.958 25.148C112.923 24.6454 112.815 24.1427 112.633 23.64C112.451 23.1374 112.152 22.717 111.736 22.379C111.328 22.041 110.748 21.872 109.994 21.872C109.69 21.872 109.365 21.9197 109.019 22.015C108.672 22.1104 108.347 22.2967 108.044 22.574C107.74 22.8427 107.489 23.2414 107.29 23.77C107.099 24.2987 107.004 25.0007 107.004 25.876V33H103.416V14.28H106.562V20.4037C106.885 20.042 107.258 19.7211 107.68 19.441C108.59 18.843 109.734 18.544 111.112 18.544C112.212 18.544 113.109 18.7304 113.803 19.103C114.496 19.4757 115.033 19.948 115.415 20.52C115.805 21.092 116.082 21.69 116.247 22.314C116.411 22.9294 116.511 23.4927 116.546 24.004Z" fill="white"/>
<path fill-rule="evenodd" clip-rule="evenodd" d="M121.128 32.467C122.229 33.0824 123.498 33.39 124.937 33.39C126.289 33.39 127.533 33.0347 128.668 32.324C129.812 31.6134 130.648 30.6167 131.177 29.334L127.641 28.32C127.381 28.892 127.004 29.3297 126.51 29.633C126.016 29.9364 125.422 30.088 124.729 30.088C123.628 30.088 122.792 29.7327 122.22 29.022C121.807 28.4953 121.546 27.8107 121.436 26.968H131.294C131.441 25.2694 131.268 23.7917 130.774 22.535C130.28 21.2784 129.517 20.3034 128.486 19.61C127.455 18.9167 126.202 18.57 124.729 18.57C123.342 18.57 122.116 18.8864 121.05 19.519C119.984 20.143 119.148 21.0227 118.541 22.158C117.934 23.2934 117.631 24.628 117.631 26.162C117.631 27.566 117.939 28.814 118.554 29.906C119.178 30.9894 120.036 31.843 121.128 32.467ZM127.716 24.342C127.613 23.5826 127.41 22.9976 127.108 22.587C126.657 21.9544 125.916 21.638 124.885 21.638C123.68 21.638 122.792 22.0064 122.22 22.743C121.897 23.1606 121.666 23.6936 121.529 24.342H127.716Z" fill="white"/>
<path d="M136.452 24.381C136.305 24.8057 136.231 25.2867 136.231 25.824V33H132.669V18.96H135.789V21.2193C135.906 21.0112 136.036 20.8128 136.179 20.624C136.483 20.2254 136.855 19.896 137.297 19.636C137.635 19.428 138.004 19.2677 138.402 19.155C138.801 19.0337 139.213 18.96 139.637 18.934C140.062 18.8994 140.487 18.908 140.911 18.96V22.262C140.521 22.1407 140.066 22.1017 139.546 22.145C139.035 22.1797 138.571 22.2967 138.155 22.496C137.739 22.6867 137.388 22.9424 137.102 23.263C136.816 23.575 136.6 23.9477 136.452 24.381Z" fill="white"/>
<path fill-rule="evenodd" clip-rule="evenodd" d="M148.792 14.293C148.333 14.2844 148.029 14.28 147.882 14.28H141.824V33H147.882C148.029 33 148.333 32.9957 148.792 32.987C149.251 32.9784 149.693 32.948 150.118 32.896C151.626 32.714 152.904 32.1897 153.953 31.323C155.002 30.4564 155.799 29.3557 156.345 28.021C156.891 26.6864 157.164 25.226 157.164 23.64C157.164 22.054 156.891 20.5937 156.345 19.259C155.799 17.9244 155.002 16.8237 153.953 15.957C152.904 15.0904 151.626 14.566 150.118 14.384C149.693 14.332 149.251 14.3017 148.792 14.293ZM148.831 29.659C148.432 29.6677 148.116 29.672 147.882 29.672H145.412V17.608H147.882C148.116 17.608 148.432 17.6124 148.831 17.621C149.23 17.6297 149.589 17.6687 149.91 17.738C150.699 17.894 151.353 18.2624 151.873 18.843C152.393 19.4237 152.779 20.1344 153.03 20.975C153.29 21.8157 153.42 22.704 153.42 23.64C153.42 24.5327 153.294 25.3994 153.043 26.24C152.8 27.0807 152.419 27.8 151.899 28.398C151.388 28.996 150.725 29.3774 149.91 29.542C149.589 29.6027 149.23 29.6417 148.831 29.659Z" fill="white"/>
<path fill-rule="evenodd" clip-rule="evenodd" d="M165.249 33.39C163.81 33.39 162.541 33.0824 161.44 32.467C160.348 31.843 159.49 30.9894 158.866 29.906C158.251 28.814 157.943 27.566 157.943 26.162C157.943 24.628 158.246 23.2934 158.853 22.158C159.46 21.0227 160.296 20.143 161.362 19.519C162.428 18.8864 163.654 18.57 165.041 18.57C166.514 18.57 167.767 18.9167 168.798 19.61C169.829 20.3034 170.592 21.2784 171.086 22.535C171.58 23.7917 171.753 25.2694 171.606 26.968H161.748C161.858 27.8107 162.12 28.4953 162.532 29.022C163.104 29.7327 163.94 30.088 165.041 30.088C165.734 30.088 166.328 29.9364 166.822 29.633C167.316 29.3297 167.693 28.892 167.953 28.32L171.489 29.334C170.96 30.6167 170.124 31.6134 168.98 32.324C167.845 33.0347 166.601 33.39 165.249 33.39ZM167.42 22.587C167.722 22.9976 167.925 23.5826 168.029 24.342H161.841C161.979 23.6936 162.209 23.1606 162.532 22.743C163.104 22.0064 163.992 21.638 165.197 21.638C166.228 21.638 166.969 21.9544 167.42 22.587Z" fill="white"/>
<path d="M171.174 18.96L176.27 33H179.806L184.902 18.96H181.366L178.038 28.684L174.71 18.96H171.174Z" fill="white"/>
<path d="M54 14.28V33H57.536V25.408H63.88V21.872H57.536V17.816H65.44V14.28H54Z" fill="white"/>
</svg>
