<svg width="180" height="48" viewBox="0 0 180 48" fill="none" xmlns="http://www.w3.org/2000/svg">
<path d="M10.7788 6.1817L15.4689 23.6853V4.44148C15.8408 4.35469 16.2167 4.27826 16.5962 4.21251V23.6871L21.8714 4C22.2515 4.03442 22.6286 4.07945 23.0023 4.13479L17.6847 23.9805L28.2548 5.67256C28.5991 5.82748 28.9383 5.99183 29.272 6.1653L18.6625 24.5416L33.8089 9.3951C34.082 9.65334 34.3478 9.91917 34.606 10.1923L19.4574 25.341L37.8358 14.7302C38.0092 15.0639 38.1735 15.4031 38.3284 15.7475L20.025 26.315L39.8653 20.9988C39.9206 21.3725 39.9656 21.7496 40 22.1297L20.3131 27.4048L39.7872 27.4048C39.7214 27.7844 39.645 28.1602 39.5582 28.5321L20.3101 28.5321L37.8171 33.2231C37.6373 33.5674 37.4478 33.9058 37.249 34.238L20.0233 29.6224L34.4107 37.929C34.1384 38.2091 33.8579 38.4812 33.5696 38.7451L19.4609 30.5994L30.1368 41.2752C29.7991 41.4725 29.4551 41.6602 29.1052 41.838L18.6626 31.3954L25.5047 43.2462C25.1301 43.3521 24.751 43.4474 24.3679 43.5317L17.6854 31.9573L20.9073 43.9816C20.6201 43.9938 20.3314 44 20.0412 44C19.9421 44 19.8432 43.9993 19.7445 43.9978L16.5962 32.2481V43.705C16.2167 43.6393 15.8408 43.5629 15.4689 43.4761V32.25L12.693 42.61C12.3389 42.4704 11.9897 42.321 11.6459 42.1622L14.3796 31.9598L9.24785 40.8482C8.93015 40.6448 8.61857 40.4326 8.31345 40.2121L13.4048 31.3935L6.2747 38.5237C6.0016 38.2654 5.73577 37.9996 5.47753 37.7266L12.6054 30.5987L3.78941 35.6886C3.56882 35.3835 3.35661 35.0719 3.15311 34.7542L12.0457 29.6201L1.83833 32.3551C1.67945 32.0113 1.53003 31.6621 1.3904 31.3081L11.7503 28.5321L0.524176 28.5321C0.43737 28.1602 0.36092 27.7844 0.295146 27.4048L11.7473 27.4048L0.00218417 24.2577C0.000729739 24.1582 0 24.0586 0 23.9588C0 23.6694 0.00613487 23.3814 0.0182816 23.0949L12.0441 26.3173L0.46789 19.6337C0.552181 19.2505 0.647439 18.8714 0.753317 18.4968L12.609 25.3417L2.16202 14.8947C2.33976 14.5448 2.52746 14.2008 2.72475 13.8632L13.405 24.5434L5.25604 10.429C5.51991 10.1408 5.79209 9.86037 6.07221 9.58804L14.3803 23.978L9.76396 6.74972C10.0961 6.55092 10.4346 6.36146 10.7788 6.1817Z" fill="white"/>
<path d="M64.121 13.7759V17.8529H54.563V21.3359H63V25.1969H54.563V32.9999H50V16.2759C50 14.8952 51.1193 13.7759 52.5 13.7759H64.121Z" fill="white"/>
<path d="M77.1327 31.3259C75.8007 32.6579 74.0277 33.3239 71.8137 33.3239C69.5997 33.3239 67.8267 32.6579 66.4947 31.3259C65.1627 29.9939 64.4967 28.2299 64.4967 26.0339C64.4967 23.8199 65.1627 22.0469 66.4947 20.7149C67.8087 19.4009 69.5817 18.7439 71.8137 18.7439C74.0457 18.7439 75.8187 19.4009 77.1327 20.7149C78.4467 22.0289 79.1037 23.8019 79.1037 26.0339C79.1037 28.2479 78.4467 30.0119 77.1327 31.3259ZM71.8137 29.9489C72.7857 29.9489 73.5327 29.6159 74.0547 28.9499C74.5767 28.2839 74.8377 27.3119 74.8377 26.0339C74.8377 24.7559 74.5767 23.7839 74.0547 23.1179C73.5327 22.4519 72.7857 22.1189 71.8137 22.1189C70.8237 22.1189 70.0677 22.4519 69.5457 23.1179C69.0237 23.7839 68.7627 24.7559 68.7627 26.0339C68.7627 27.3119 69.0237 28.2839 69.5457 28.9499C70.0677 29.6159 70.8237 29.9489 71.8137 29.9489Z" fill="white"/>
<path d="M87.0111 33.3239C84.8331 33.3239 83.0961 32.6579 81.8001 31.3259C80.5041 29.9939 79.8561 28.2299 79.8561 26.0339C79.8561 23.8019 80.5041 22.0289 81.8001 20.7149C83.0961 19.4009 84.8331 18.7439 87.0111 18.7439C88.9191 18.7439 90.4761 19.2479 91.6821 20.2559C92.9061 21.2459 93.6171 22.5959 93.8151 24.3059H89.6301C89.3961 22.8839 88.5231 22.1729 87.0111 22.1729C85.0851 22.1729 84.1221 23.4599 84.1221 26.0339C84.1221 28.5899 85.0851 29.8679 87.0111 29.8679C88.6311 29.8679 89.5311 29.0849 89.7111 27.5189H93.8961C93.7701 29.2829 93.0771 30.6959 91.8171 31.7579C90.5571 32.8019 88.9551 33.3239 87.0111 33.3239Z" fill="white"/>
<path d="M104.413 20.6879V19.0679H108.652V32.9999H104.548V31.1909C103.684 32.6129 102.352 33.3239 100.552 33.3239C98.6262 33.3239 97.1322 32.6759 96.0702 31.3799C95.0082 30.0839 94.4772 28.3019 94.4772 26.0339C94.4772 23.7659 95.0082 21.9839 96.0702 20.6879C97.1322 19.3919 98.6262 18.7439 100.552 18.7439C102.244 18.7439 103.531 19.3919 104.413 20.6879ZM101.605 29.9489C103.531 29.9489 104.494 28.6439 104.494 26.0339C104.494 23.4239 103.531 22.1189 101.605 22.1189C99.6972 22.1189 98.7432 23.4599 98.7432 26.1419C98.7432 28.6799 99.6972 29.9489 101.605 29.9489Z" fill="white"/>
<path d="M115.206 33.1079C113.568 33.1079 112.38 32.7929 111.642 32.1629C110.904 31.5329 110.535 30.5159 110.535 29.1119V13.7759H114.747V28.6529C114.747 29.1209 114.846 29.4449 115.044 29.6249C115.242 29.7869 115.593 29.8679 116.097 29.8679H117.042V32.9999C116.538 33.0719 115.926 33.1079 115.206 33.1079Z" fill="white"/>
<path d="M118.228 16.2759C118.228 14.8952 119.347 13.7759 120.728 13.7759H126.976C129.19 13.7759 130.927 14.3609 132.187 15.5309C133.447 16.6829 134.077 18.2579 134.077 20.2559C134.077 22.2539 133.447 23.8379 132.187 25.0079C130.927 26.1599 129.19 26.7359 126.976 26.7359H122.791V32.9999H118.228V16.2759ZM122.791 22.8749H126.679C127.579 22.8749 128.272 22.6499 128.758 22.1999C129.262 21.7499 129.514 21.1019 129.514 20.2559C129.514 19.4099 129.262 18.7619 128.758 18.3119C128.254 17.8619 127.561 17.6369 126.679 17.6369H122.791V22.8749Z" fill="white"/>
<path d="M146.784 31.3259C145.452 32.6579 143.679 33.3239 141.465 33.3239C139.251 33.3239 137.478 32.6579 136.146 31.3259C134.814 29.9939 134.148 28.2299 134.148 26.0339C134.148 23.8199 134.814 22.0469 136.146 20.7149C137.46 19.4009 139.233 18.7439 141.465 18.7439C143.697 18.7439 145.47 19.4009 146.784 20.7149C148.098 22.0289 148.755 23.8019 148.755 26.0339C148.755 28.2479 148.098 30.0119 146.784 31.3259ZM141.465 29.9489C142.437 29.9489 143.184 29.6159 143.706 28.9499C144.228 28.2839 144.489 27.3119 144.489 26.0339C144.489 24.7559 144.228 23.7839 143.706 23.1179C143.184 22.4519 142.437 22.1189 141.465 22.1189C140.475 22.1189 139.719 22.4519 139.197 23.1179C138.675 23.7839 138.414 24.7559 138.414 26.0339C138.414 27.3119 138.675 28.2839 139.197 28.9499C139.719 29.6159 140.475 29.9489 141.465 29.9489Z" fill="white"/>
<path d="M152.181 17.6099C151.569 17.6099 151.047 17.4029 150.615 16.9889C150.201 16.5569 149.994 16.0439 149.994 15.4499C149.994 14.8379 150.201 14.3249 150.615 13.9109C151.047 13.4789 151.569 13.2629 152.181 13.2629C152.775 13.2629 153.279 13.4789 153.693 13.9109C154.125 14.3249 154.341 14.8379 154.341 15.4499C154.341 16.0439 154.125 16.5569 153.693 16.9889C153.279 17.4029 152.775 17.6099 152.181 17.6099ZM154.287 32.9999H150.075V19.0679H154.287V32.9999Z" fill="white"/>
<path d="M164.684 18.7439C166.16 18.7439 167.33 19.1939 168.194 20.0939C169.076 20.9759 169.517 22.2359 169.517 23.8739V32.9999H165.305V24.7109C165.305 23.1269 164.558 22.3349 163.064 22.3349C162.308 22.3349 161.678 22.5869 161.174 23.0909C160.67 23.5949 160.418 24.3059 160.418 25.2239V32.9999H156.206V19.0679H160.31V21.0389C161.39 19.5089 162.848 18.7439 164.684 18.7439Z" fill="white"/>
<path d="M179.031 19.0679V22.1459H176.358V28.6529C176.358 29.1209 176.475 29.4449 176.709 29.6249C176.943 29.7869 177.357 29.8679 177.951 29.8679H179.031V32.9999C178.527 33.0719 177.879 33.1079 177.087 33.1079C175.341 33.1079 174.081 32.8019 173.307 32.1899C172.533 31.5599 172.146 30.5339 172.146 29.1119V22.1459H170.067V19.0679H172.146V14.9369H176.358V19.0679H179.031Z" fill="white"/>
</svg>
