<svg width="163" height="48" viewBox="0 0 163 48" fill="none" xmlns="http://www.w3.org/2000/svg">
<path d="M0 17.8433L30.9054 0L30.0865 12.6994L3.76597 27.8955L0 17.8433Z" fill="white"/>
<path opacity="0.5" d="M3.76562 27.8951L25.5013 15.3459L24.6824 28.0453L7.53159 37.9473L3.76562 27.8951Z" fill="white"/>
<path opacity="0.25" d="M7.5293 37.9477L20.0953 30.6927L19.2764 43.3921L11.2953 48L7.5293 37.9477Z" fill="white"/>
<path d="M41.002 33V13.317H55.258V17.07H45.43V21.849H54.178V25.413H45.43V33H41.002Z" fill="white"/>
<path d="M62.9549 33.27C60.5969 33.27 58.8418 32.595 57.6898 31.245C56.5378 29.895 55.9619 28.095 55.9619 25.845V25.764C55.9619 23.208 56.6009 21.318 57.8789 20.094C59.1569 18.852 60.8489 18.231 62.9549 18.231C65.0789 18.231 66.7799 18.852 68.0578 20.094C69.3538 21.318 70.0019 23.208 70.0019 25.764V25.845C69.9839 28.095 69.3989 29.895 68.2469 31.245C67.0949 32.595 65.3309 33.27 62.9549 33.27ZM62.9549 29.922C63.8729 29.922 64.5659 29.67 65.0339 29.166C65.5199 28.662 65.7629 27.969 65.7629 27.087V24.495C65.7629 23.595 65.5109 22.893 65.0069 22.389C64.5209 21.867 63.8369 21.606 62.9549 21.606C62.0909 21.606 61.4069 21.867 60.9029 22.389C60.4169 22.893 60.1739 23.595 60.1739 24.495V27.087C60.1739 27.969 60.4079 28.662 60.8759 29.166C61.3619 29.67 62.0549 29.922 62.9549 29.922Z" fill="white"/>
<path d="M72.2663 33V21.714C72.2663 20.724 72.5633 19.941 73.1573 19.365C73.7513 18.789 74.5253 18.501 75.4793 18.501H81.3923V21.849H76.4243V33H72.2663Z" fill="white"/>
<path d="M89.5385 33.27C87.9365 33.27 86.5955 32.964 85.5155 32.352C84.4535 31.722 83.6615 30.849 83.1395 29.733C82.6175 28.599 82.3565 27.285 82.3565 25.791V25.548C82.3565 23.982 82.6445 22.659 83.2205 21.579C83.7965 20.481 84.5975 19.653 85.6235 19.095C86.6675 18.519 87.8645 18.231 89.2145 18.231C90.6905 18.231 91.9415 18.51 92.9675 19.068C94.0115 19.626 94.8035 20.409 95.3435 21.417C95.8835 22.425 96.1535 23.604 96.1535 24.954V26.79H86.5685V27.546C86.5685 28.32 86.8295 28.941 87.3515 29.409C87.8915 29.877 88.5755 30.111 89.4035 30.111C90.1415 30.111 90.7445 29.949 91.2125 29.625C91.6985 29.301 91.9865 28.869 92.0765 28.329H95.9915C95.9375 29.319 95.6315 30.183 95.0735 30.921C94.5155 31.659 93.7595 32.235 92.8055 32.649C91.8515 33.063 90.7625 33.27 89.5385 33.27ZM86.5685 24.09V24.225H92.0765V24.09C92.0765 23.118 91.8245 22.416 91.3205 21.984C90.8165 21.534 90.1595 21.309 89.3495 21.309C88.4855 21.309 87.8015 21.552 87.2975 22.038C86.8115 22.506 86.5685 23.19 86.5685 24.09Z" fill="white"/>
<path d="M103.743 33.27C101.673 33.27 100.089 32.82 98.9906 31.92C97.9106 31.02 97.3796 29.85 97.3976 28.41H101.367C101.403 29.13 101.646 29.643 102.096 29.949C102.564 30.255 103.158 30.408 103.878 30.408C104.598 30.408 105.111 30.273 105.417 30.003C105.741 29.715 105.903 29.373 105.903 28.977C105.903 28.347 105.678 27.933 105.228 27.735C104.778 27.519 104.076 27.339 103.122 27.195C102.258 27.069 101.412 26.871 100.584 26.601C99.7556 26.331 99.0716 25.908 98.5316 25.332C98.0096 24.738 97.7486 23.928 97.7486 22.902C97.7486 21.894 98.0006 21.048 98.5046 20.364C99.0266 19.662 99.7376 19.131 100.638 18.771C101.538 18.411 102.573 18.231 103.743 18.231C105.525 18.231 106.965 18.627 108.063 19.419C109.179 20.211 109.755 21.327 109.791 22.767L105.876 22.74C105.876 22.182 105.678 21.759 105.282 21.471C104.904 21.165 104.391 21.012 103.743 21.012C103.113 21.012 102.636 21.138 102.312 21.39C101.988 21.642 101.826 21.975 101.826 22.389C101.826 22.965 102.087 23.343 102.609 23.523C103.149 23.703 103.824 23.856 104.634 23.982C105.318 24.072 105.984 24.198 106.632 24.36C107.28 24.504 107.865 24.738 108.387 25.062C108.927 25.386 109.35 25.836 109.656 26.412C109.962 26.97 110.115 27.708 110.115 28.626C110.115 30.048 109.557 31.182 108.441 32.028C107.343 32.856 105.777 33.27 103.743 33.27Z" fill="white"/>
<path d="M112.517 33V18.501H116.675V33H112.517ZM112.517 16.665V13.317H116.675V16.665H112.517Z" fill="white"/>
<path d="M125.638 37.779C123.748 37.779 122.254 37.374 121.156 36.564C120.076 35.772 119.491 34.719 119.401 33.405H123.397C123.487 33.873 123.757 34.233 124.207 34.485C124.675 34.755 125.26 34.89 125.962 34.89C127.042 34.89 127.807 34.647 128.257 34.161C128.725 33.675 128.959 32.991 128.959 32.109V29.598H128.77C128.41 30.408 127.843 31.029 127.069 31.461C126.295 31.875 125.431 32.082 124.477 32.082C122.623 32.082 121.237 31.461 120.319 30.219C119.419 28.977 118.969 27.321 118.969 25.251V25.143C118.969 22.857 119.455 21.138 120.427 19.986C121.399 18.816 122.758 18.231 124.504 18.231C125.638 18.231 126.547 18.447 127.231 18.879C127.915 19.311 128.428 19.869 128.77 20.553H128.986L129.202 18.501H133.117V31.623C133.117 33.747 132.478 35.304 131.2 36.294C129.94 37.284 128.086 37.779 125.638 37.779ZM126.178 28.788C127.06 28.788 127.744 28.527 128.23 28.005C128.716 27.465 128.959 26.772 128.959 25.926V24.414C128.959 23.514 128.707 22.812 128.203 22.308C127.699 21.786 127.024 21.525 126.178 21.525C125.296 21.525 124.612 21.777 124.126 22.281C123.658 22.785 123.424 23.478 123.424 24.36V26.034C123.424 26.898 123.676 27.573 124.18 28.059C124.684 28.545 125.35 28.788 126.178 28.788Z" fill="white"/>
<path d="M136.275 33V13.317H140.433V20.877H140.676C140.982 20.085 141.513 19.446 142.269 18.96C143.025 18.474 143.925 18.231 144.969 18.231C146.517 18.231 147.741 18.699 148.641 19.635C149.541 20.571 149.991 22.065 149.991 24.117V33H145.86V24.63C145.86 23.46 145.626 22.659 145.158 22.227C144.69 21.795 144.06 21.579 143.268 21.579C142.332 21.579 141.621 21.885 141.135 22.497C140.667 23.109 140.433 23.928 140.433 24.954V33H136.275Z" fill="white"/>
<path d="M158.029 33C156.877 33 156.049 32.703 155.545 32.109C155.059 31.515 154.816 30.741 154.816 29.787V21.849H151.684V18.501H154.816V13.965H158.974V18.501H162.538V21.849H158.974V29.76H162.376V33H158.029Z" fill="white"/>
</svg>
