<svg width="170" height="48" viewBox="0 0 170 48" fill="none" xmlns="http://www.w3.org/2000/svg">
<path d="M10 15C10 17.7614 7.76142 20 5 20C2.23858 20 0 17.7614 0 15C0 12.2386 2.23858 10 5 10C7.76142 10 10 12.2386 10 15Z" fill="white"/>
<path d="M10 33C10 35.7614 7.76142 38 5 38C2.23858 38 0 35.7614 0 33C0 30.2386 2.23858 28 5 28C7.76142 28 10 30.2386 10 33Z" fill="white"/>
<path d="M28 15C28 17.7614 25.7614 20 23 20C20.2386 20 18 17.7614 18 15C18 12.2386 20.2386 10 23 10C25.7614 10 28 12.2386 28 15Z" fill="white"/>
<path d="M28 33C28 35.7614 25.7614 38 23 38C20.2386 38 18 35.7614 18 33C18 30.2386 20.2386 28 23 28C25.7614 28 28 30.2386 28 33Z" fill="white"/>
<path d="M54.121 13.776V17.853H44.563V21.336H53.392V25.197H44.563V33H40V13.776H54.121Z" fill="white"/>
<path d="M67.1327 31.326C65.8007 32.658 64.0277 33.324 61.8137 33.324C59.5997 33.324 57.8267 32.658 56.4947 31.326C55.1627 29.994 54.4967 28.23 54.4967 26.034C54.4967 23.82 55.1627 22.047 56.4947 20.715C57.8087 19.401 59.5817 18.744 61.8137 18.744C64.0457 18.744 65.8187 19.401 67.1327 20.715C68.4467 22.029 69.1037 23.802 69.1037 26.034C69.1037 28.248 68.4467 30.012 67.1327 31.326ZM61.8137 29.949C62.7857 29.949 63.5327 29.616 64.0547 28.95C64.5767 28.284 64.8377 27.312 64.8377 26.034C64.8377 24.756 64.5767 23.784 64.0547 23.118C63.5327 22.452 62.7857 22.119 61.8137 22.119C60.8237 22.119 60.0677 22.452 59.5457 23.118C59.0237 23.784 58.7627 24.756 58.7627 26.034C58.7627 27.312 59.0237 28.284 59.5457 28.95C60.0677 29.616 60.8237 29.949 61.8137 29.949Z" fill="white"/>
<path d="M76.8021 33.324C74.7501 33.324 73.1211 32.766 71.9151 31.65C70.7271 30.516 70.1331 28.977 70.1331 27.033V19.068H74.3721V27.087C74.3721 27.933 74.5971 28.59 75.0471 29.058C75.4971 29.508 76.0821 29.733 76.8021 29.733C77.5221 29.733 78.1071 29.508 78.5571 29.058C79.0071 28.59 79.2321 27.933 79.2321 27.087V19.068H83.4711V27.033C83.4711 28.995 82.8681 30.525 81.6621 31.623C80.4381 32.757 78.8181 33.324 76.8021 33.324Z" fill="white"/>
<path d="M93.46 18.852C93.532 18.852 93.838 18.87 94.378 18.906V22.74H93.298C90.832 22.74 89.599 24 89.599 26.52V33H85.387V19.068H89.491V21.66C90.139 19.788 91.462 18.852 93.46 18.852Z" fill="white"/>
<path d="M103.868 18.744C105.74 18.744 107.225 19.401 108.323 20.715C109.403 22.029 109.943 23.802 109.943 26.034C109.943 28.266 109.403 30.039 108.323 31.353C107.225 32.667 105.74 33.324 103.868 33.324C102.086 33.324 100.718 32.649 99.7641 31.299V38.292H95.5521V19.068H99.6561V20.931C100.61 19.473 102.014 18.744 103.868 18.744ZM102.707 29.949C103.643 29.949 104.372 29.607 104.894 28.923C105.416 28.221 105.677 27.222 105.677 25.926C105.677 23.388 104.687 22.119 102.707 22.119C100.709 22.119 99.7101 23.424 99.7101 26.034C99.7101 28.644 100.709 29.949 102.707 29.949Z" fill="white"/>
<path d="M123.323 31.326C121.991 32.658 120.218 33.324 118.004 33.324C115.79 33.324 114.017 32.658 112.685 31.326C111.353 29.994 110.687 28.23 110.687 26.034C110.687 23.82 111.353 22.047 112.685 20.715C113.999 19.401 115.772 18.744 118.004 18.744C120.236 18.744 122.009 19.401 123.323 20.715C124.637 22.029 125.294 23.802 125.294 26.034C125.294 28.248 124.637 30.012 123.323 31.326ZM118.004 29.949C118.976 29.949 119.723 29.616 120.245 28.95C120.767 28.284 121.028 27.312 121.028 26.034C121.028 24.756 120.767 23.784 120.245 23.118C119.723 22.452 118.976 22.119 118.004 22.119C117.014 22.119 116.258 22.452 115.736 23.118C115.214 23.784 114.953 24.756 114.953 26.034C114.953 27.312 115.214 28.284 115.736 28.95C116.258 29.616 117.014 29.949 118.004 29.949Z" fill="white"/>
<path d="M128.72 17.61C128.108 17.61 127.586 17.403 127.154 16.989C126.74 16.557 126.533 16.044 126.533 15.45C126.533 14.838 126.74 14.325 127.154 13.911C127.586 13.479 128.108 13.263 128.72 13.263C129.314 13.263 129.818 13.479 130.232 13.911C130.664 14.325 130.88 14.838 130.88 15.45C130.88 16.044 130.664 16.557 130.232 16.989C129.818 17.403 129.314 17.61 128.72 17.61ZM130.826 33H126.614V19.068H130.826V33Z" fill="white"/>
<path d="M155.57 19.068V22.146H152.897V28.653C152.897 29.121 153.014 29.445 153.248 29.625C153.482 29.787 153.896 29.868 154.49 29.868H155.57V33C155.066 33.072 154.418 33.108 153.626 33.108C151.88 33.108 150.62 32.802 149.846 32.19C149.072 31.56 148.685 30.534 148.685 29.112V22.146H146.606V19.068H148.685V14.937H152.897V19.068H155.57Z" fill="white"/>
<path d="M162.731 33.405C160.535 33.405 158.897 33.027 157.817 32.271C156.755 31.497 156.161 30.264 156.035 28.572H160.139C160.211 29.31 160.445 29.832 160.841 30.138C161.255 30.444 161.912 30.597 162.812 30.597C164.378 30.597 165.161 30.147 165.161 29.247C165.161 28.815 164.99 28.491 164.648 28.275C164.306 28.041 163.676 27.852 162.758 27.708L160.949 27.411C157.817 26.925 156.251 25.503 156.251 23.145C156.251 21.741 156.791 20.661 157.871 19.905C158.951 19.131 160.499 18.744 162.515 18.744C166.673 18.744 168.833 20.337 168.995 23.523H165.08C165.062 22.209 164.207 21.552 162.515 21.552C161.093 21.552 160.382 21.993 160.382 22.875C160.382 23.271 160.544 23.577 160.868 23.793C161.192 24.009 161.705 24.171 162.407 24.279L164.486 24.576C166.16 24.828 167.393 25.305 168.185 26.007C168.977 26.709 169.373 27.672 169.373 28.896C169.373 30.336 168.788 31.452 167.618 32.244C166.466 33.018 164.837 33.405 162.731 33.405Z" fill="white"/>
<path d="M139.409 18.744C137.357 18.744 135.728 19.302 134.522 20.418C133.334 21.552 132.74 23.091 132.74 25.035V33H136.979V24.981C136.979 24.135 137.204 23.478 137.654 23.01C138.104 22.56 138.689 22.335 139.409 22.335C140.129 22.335 140.714 22.56 141.164 23.01C141.614 23.478 141.839 24.135 141.839 24.981V33H146.078V25.035C146.078 23.073 145.475 21.543 144.269 20.445C143.045 19.311 141.425 18.744 139.409 18.744Z" fill="white"/>
</svg>
