<svg width="135" height="48" viewBox="0 0 135 48" fill="none" xmlns="http://www.w3.org/2000/svg">
<path opacity="0.7" d="M29.5411 6.41772C32.2324 11.6946 33.7501 17.67 33.7501 23.9999C33.7501 30.3298 32.2324 36.3053 29.541 41.5822C35.7714 38.1941 40.0003 31.5908 40.0003 23.9999C40.0003 16.409 35.7714 9.80586 29.5411 6.41772Z" fill="white"/>
<path d="M20.5481 5.99826C19.6434 4.71673 18.1024 4.02656 16.5568 4.29477C7.15184 5.92691 0 14.1282 0 23.9998C0 33.8715 7.1518 42.0727 16.5567 43.7049C18.1023 43.9731 19.6434 43.283 20.548 42.0014C24.1403 36.9125 26.2505 30.7026 26.2505 23.9998C26.2505 17.2971 24.1404 11.0872 20.5481 5.99826Z" fill="white"/>
<path fill-rule="evenodd" clip-rule="evenodd" d="M50 25.9879V21.6708C50.9338 16.7391 55.0512 13.21 60.2378 13.21C64.8654 13.21 69.0811 16.361 69.8585 20.0386L69.9095 20.28H65.6964L65.6476 20.1505C64.9308 18.2481 62.615 16.916 60.2378 16.916C56.5306 16.916 53.7098 19.8898 53.7098 23.821C53.7098 27.7782 56.5278 30.784 60.4698 30.784C63.4785 30.784 65.7868 28.8741 66.4021 26.109H59.0958V22.432H70.1206L70.1497 22.5973C70.2393 23.1049 70.2978 23.9291 70.2978 24.546C70.2978 30.3741 65.9405 34.49 60.2378 34.49C55.0268 34.49 50.9308 30.9406 50 25.9879Z" fill="white"/>
<path fill-rule="evenodd" clip-rule="evenodd" d="M75.0838 24.804H71.7785L71.7961 24.5877C72.0374 21.6321 74.6855 19.329 77.8245 19.329C79.8351 19.329 81.4053 19.9136 82.4736 20.9554C83.5422 21.9976 84.0855 23.4745 84.0855 25.213V34.2H80.6405V32.7899C79.6326 33.8969 78.2463 34.49 76.5195 34.49C73.671 34.49 71.6795 32.6187 71.6795 30.114C71.6795 28.5533 72.3726 27.2825 73.6131 26.4089C74.8464 25.5402 76.6096 25.071 78.7525 25.071H80.6405V25.01C80.6405 24.2027 80.3612 23.5471 79.8802 23.0928C79.3983 22.6374 78.6966 22.368 77.8245 22.368C76.3368 22.368 75.1742 23.297 75.0951 24.616L75.0838 24.804ZM75.4894 31.0537C75.8559 31.3521 76.3954 31.538 77.0705 31.538C79.1994 31.538 80.6405 29.9393 80.6405 28.287V27.878H78.6655C77.4162 27.878 76.4693 28.0514 75.8417 28.3872C75.5306 28.5537 75.3027 28.7575 75.152 28.996C75.0018 29.2338 74.9215 29.5166 74.9215 29.853C74.9215 30.3432 75.1259 30.7577 75.4894 31.0537Z" fill="white"/>
<path fill-rule="evenodd" clip-rule="evenodd" d="M89.8538 13.5V34.2H86.2347V13.5H89.8538Z" fill="white"/>
<path fill-rule="evenodd" clip-rule="evenodd" d="M92.2817 19.619H95.9007V34.2H92.2817V19.619Z" fill="white"/>
<path fill-rule="evenodd" clip-rule="evenodd" d="M102.118 13.5V34.2H98.4986V13.5H102.118Z" fill="white"/>
<path fill-rule="evenodd" clip-rule="evenodd" d="M118.1 27.878H107.042C107.213 28.8949 107.663 29.7333 108.319 30.3284C109.022 30.9663 109.973 31.335 111.103 31.335C112.879 31.335 114.154 30.494 114.416 29.2885L114.45 29.131H118.037L117.999 29.3633C117.486 32.4994 114.655 34.49 111.132 34.49C106.873 34.49 103.566 31.1804 103.566 26.866C103.566 22.6086 106.874 19.329 111.074 19.329C115.011 19.329 118.176 22.4045 118.176 26.46C118.176 26.7566 118.146 27.3717 118.117 27.6961L118.1 27.878ZM107.251 25.129H114.325C114.065 23.5844 112.697 22.455 110.929 22.455C109.996 22.455 109.185 22.7191 108.546 23.211C107.965 23.6585 107.517 24.3019 107.251 25.129Z" fill="white"/>
<path fill-rule="evenodd" clip-rule="evenodd" d="M91.8467 15.324C91.8467 14.0862 92.8606 13.036 94.1057 13.036C95.378 13.036 96.3937 14.0844 96.3937 15.324C96.3937 16.5365 95.3762 17.583 94.1057 17.583C92.8624 17.583 91.8467 16.5346 91.8467 15.324Z" fill="white"/>
<path fill-rule="evenodd" clip-rule="evenodd" d="M126.468 19.329C130.725 19.329 134.034 22.6086 134.034 26.924C134.034 31.211 130.725 34.49 126.468 34.49C122.21 34.49 118.931 31.2099 118.931 26.924C118.931 22.6096 122.209 19.329 126.468 19.329ZM122.463 26.924C122.463 29.2233 124.203 30.987 126.468 30.987C128.706 30.987 130.502 29.2206 130.502 26.924C130.502 24.5958 128.704 22.803 126.468 22.803C124.205 22.803 122.463 24.5931 122.463 26.924Z" fill="white"/>
</svg>
