<svg width="193" height="48" viewBox="0 0 193 48" fill="none" xmlns="http://www.w3.org/2000/svg">
<path d="M27.6627 4H12.3374L0 16.3373V31.6626L12.3374 44H27.6627L40 31.6626V16.3373L27.6627 4ZM14.4578 31.8554L6.55423 23.9518L14.4578 16.0482C17.4458 13.0602 22.3615 13.0602 25.3494 16.0482L33.253 23.9518L25.3494 31.8554C22.3615 34.8434 17.5422 34.8434 14.4578 31.8554Z" fill="white"/>
<path fill-rule="evenodd" clip-rule="evenodd" d="M98.3415 31.405C99.1535 32.536 100.662 33.232 102.344 33.232C106.665 33.232 109.246 30.245 109.246 25.692C109.246 21.139 106.665 18.152 102.402 18.152C100.575 18.152 99.1535 18.848 98.3415 19.921V12.033H94.3105V33H98.3415V31.405ZM105.273 25.692C105.273 28.128 103.823 29.752 101.706 29.752C99.5305 29.752 98.1096 28.128 98.1096 25.692C98.1096 23.227 99.5305 21.603 101.706 21.603C103.823 21.603 105.273 23.227 105.273 25.692Z" fill="white"/>
<path fill-rule="evenodd" clip-rule="evenodd" d="M116.283 18.152C119.966 18.152 122.663 20.298 122.663 23.604V33H118.661V30.97C118.168 32.333 116.544 33.232 114.543 33.232C111.701 33.232 109.758 31.347 109.758 28.853C109.758 25.982 111.904 24.242 115.094 24.242H117.559C118.284 24.242 118.661 23.778 118.661 23.169C118.661 21.951 117.704 21.11 116.051 21.11C114.282 21.11 113.383 22.212 113.325 23.43H109.729C109.903 20.501 112.281 18.152 116.283 18.152ZM115.558 30.303C117.53 30.303 118.661 28.853 118.661 26.997V26.794H115.703C114.485 26.794 113.615 27.548 113.615 28.679C113.615 29.636 114.427 30.303 115.558 30.303Z" fill="white"/>
<path d="M124.502 12.033V33H128.533V12.033H124.502Z" fill="white"/>
<path fill-rule="evenodd" clip-rule="evenodd" d="M130.965 12.7H139.027C142.71 12.7 145.465 14.527 145.465 17.92C145.465 19.834 144.276 21.284 143.087 21.922C144.943 22.647 146.509 24.271 146.509 26.939C146.509 30.796 143.551 33 139.259 33H130.965V12.7ZM135.257 20.443H138.708C140.564 20.443 141.434 19.66 141.434 18.297C141.434 16.934 140.564 16.151 138.621 16.151H135.257V20.443ZM135.257 29.23H138.882C141.289 29.23 142.362 28.36 142.362 26.707C142.362 25.054 141.289 24.126 138.882 24.126H135.257V29.23Z" fill="white"/>
<path fill-rule="evenodd" clip-rule="evenodd" d="M160.191 23.604C160.191 20.298 157.494 18.152 153.811 18.152C149.809 18.152 147.431 20.501 147.257 23.43H150.853C150.911 22.212 151.81 21.11 153.579 21.11C155.232 21.11 156.189 21.951 156.189 23.169C156.189 23.778 155.812 24.242 155.087 24.242H152.622C149.432 24.242 147.286 25.982 147.286 28.853C147.286 31.347 149.229 33.232 152.071 33.232C154.072 33.232 155.696 32.333 156.189 30.97V33H160.191V23.604ZM156.189 26.997C156.189 28.853 155.058 30.303 153.086 30.303C151.955 30.303 151.143 29.636 151.143 28.679C151.143 27.548 152.013 26.794 153.231 26.794H156.189V26.997Z" fill="white"/>
<path d="M161.798 33V18.63H165.858V20.414C166.67 18.993 168.294 18.152 170.295 18.152C173.601 18.152 175.747 20.53 175.747 23.894V33H171.687V24.793C171.687 23.024 170.556 21.748 168.874 21.748C167.105 21.748 165.858 23.111 165.858 24.996V33H161.798Z" fill="white"/>
<path d="M183.461 26.823L187.608 33H192.48L186.187 24.126L191.767 18.63H186.662L181.837 23.372V12.033H177.777V33H181.837V28.418L183.461 26.823Z" fill="white"/>
<path fill-rule="evenodd" clip-rule="evenodd" d="M92.3105 22.5652L87.6654 17.92H81.8756L77.2305 22.5652V28.3549L81.8756 33H87.6654L92.3105 28.3549V22.5652ZM80.1079 25.4423L82.8717 28.2061C83.9302 29.2304 85.5776 29.227 86.5973 28.2072L89.3622 25.4423L86.5973 22.6774C85.5761 21.6562 83.8941 21.6562 82.8728 22.6774L80.1079 25.4423Z" fill="white"/>
<path d="M71.2017 12.033V33H75.2327V12.033H71.2017Z" fill="white"/>
<path d="M50 22.85C50 29.781 54.785 33.232 59.976 33.232C62.586 33.232 64.732 31.898 65.399 29.897V33H69.256V25.17C69.256 24.3782 68.9771 23.6387 68.5 23.0633C67.9111 22.3531 67.0203 21.893 65.979 21.893H60.469V25.17H64.384C64.877 25.17 65.196 25.489 65.196 25.982C65.196 27.867 62.702 29.694 60.179 29.694C56.815 29.694 54.147 27.055 54.147 22.85C54.147 18.645 56.815 16.209 60.266 16.209C62.876 16.209 64.674 17.63 64.993 19.805H69.314C69.053 15.455 65.399 12.468 60.295 12.468C54.93 12.468 50 15.919 50 22.85Z" fill="white"/>
</svg>
