<svg width="170" height="48" viewBox="0 0 170 48" fill="none" xmlns="http://www.w3.org/2000/svg">
<path opacity="0.7" d="M0 41.2222C0 42.7563 1.24365 44 2.77778 44H27.2222C28.7563 44 30 42.7563 30 41.2222V34C30 25.7157 23.2843 19 15 19C6.71573 19 0 25.7157 0 34V41.2222Z" fill="white"/>
<path opacity="0.7" d="M0 6.77778C0 5.24365 1.24365 4 2.77778 4H27.2222C28.7563 4 30 5.24365 30 6.77778V14C30 22.2843 23.2843 29 15 29C6.71573 29 0 22.2843 0 14V6.77778Z" fill="white"/>
<path d="M40 13.4H43.864V21.492H52.992V13.4H56.856V33H52.992V24.852H43.864V33H40V13.4Z" fill="white"/>
<path d="M65.0484 33.224C63.8724 33.224 62.8271 33 61.9124 32.552C61.0164 32.0854 60.3164 31.432 59.8124 30.592C59.3271 29.752 59.0844 28.7814 59.0844 27.68V24.404C59.0844 23.3027 59.3364 22.332 59.8404 21.492C60.3444 20.6334 61.0444 19.9707 61.9404 19.504C62.8551 19.0374 63.9004 18.804 65.0764 18.804H67.5964C68.7724 18.804 69.8084 19.0374 70.7044 19.504C71.6191 19.9707 72.3284 20.6334 72.8324 21.492C73.3364 22.332 73.5884 23.3027 73.5884 24.404V27.68C73.5884 28.7814 73.3364 29.752 72.8324 30.592C72.3284 31.432 71.6191 32.0854 70.7044 32.552C69.8084 33 68.7631 33.224 67.5684 33.224H65.0484ZM67.5124 29.948C68.2031 29.948 68.7537 29.7147 69.1644 29.248C69.5751 28.7627 69.7804 28.1374 69.7804 27.372V24.656C69.7804 23.8907 69.5751 23.2747 69.1644 22.808C68.7537 22.3227 68.2124 22.08 67.5404 22.08H65.1324C64.4604 22.08 63.9191 22.3227 63.5084 22.808C63.0977 23.2747 62.8924 23.8907 62.8924 24.656V27.372C62.8924 28.1374 63.0977 28.7627 63.5084 29.248C63.9191 29.7147 64.4511 29.948 65.1044 29.948H67.5124Z" fill="white"/>
<path d="M80.4414 33.224C78.9667 33.224 77.7814 32.7294 76.8854 31.74C75.9894 30.732 75.5414 29.416 75.5414 27.792V19.028H79.3494V27.848C79.3494 28.464 79.4987 28.968 79.7974 29.36C80.1147 29.7334 80.5254 29.92 81.0294 29.92H82.6534C83.2694 29.92 83.8294 29.668 84.3334 29.164C84.8374 28.6414 85.1921 27.96 85.3974 27.12V19.028H89.2054V33H85.6774V31.208C85.2481 31.8054 84.7161 32.2907 84.0814 32.664C83.4654 33.0374 82.8681 33.224 82.2894 33.224H80.4414Z" fill="white"/>
<path d="M91.8838 19.028H95.4118V20.82C95.7664 20.2787 96.2704 19.84 96.9238 19.504C97.5958 19.1494 98.2958 18.972 99.0238 18.972H100.928V22.276H99.0238C98.0344 22.276 97.2318 22.5747 96.6158 23.172C95.9998 23.7694 95.6918 24.5347 95.6918 25.468V33H91.8838V19.028Z" fill="white"/>
<path d="M107.037 38.684C105.544 38.684 104.302 38.2547 103.313 37.396C102.324 36.556 101.773 35.4454 101.661 34.064H105.413C105.45 34.4747 105.618 34.8014 105.917 35.044C106.216 35.3054 106.589 35.436 107.037 35.436H109.557C110.136 35.436 110.602 35.1934 110.957 34.708C111.33 34.2414 111.517 33.6254 111.517 32.86V31.544C111.144 31.9547 110.686 32.2814 110.145 32.524C109.622 32.7667 109.118 32.888 108.633 32.888H106.701C105.002 32.888 103.63 32.384 102.585 31.376C101.558 30.368 101.045 29.0427 101.045 27.4V24.544C101.045 23.4054 101.288 22.4067 101.773 21.548C102.258 20.6707 102.94 19.9987 103.817 19.532C104.694 19.0467 105.702 18.804 106.841 18.804H108.465C109.1 18.804 109.716 18.9534 110.313 19.252C110.929 19.5507 111.424 19.9427 111.797 20.428V19.028H115.325V32.86C115.325 34.0174 115.082 35.0347 114.597 35.912C114.13 36.7894 113.458 37.4707 112.581 37.956C111.704 38.4414 110.696 38.684 109.557 38.684H107.037ZM108.885 29.668C109.594 29.668 110.192 29.3787 110.677 28.8C111.162 28.2027 111.442 27.428 111.517 26.476V24.544C111.442 23.7974 111.19 23.2 110.761 22.752C110.332 22.304 109.79 22.08 109.137 22.08H107.177C106.486 22.08 105.926 22.332 105.497 22.836C105.068 23.34 104.853 24.0027 104.853 24.824V27.12C104.853 27.8854 105.049 28.5014 105.441 28.968C105.833 29.4347 106.337 29.668 106.953 29.668H108.885Z" fill="white"/>
<path d="M122.841 33C121.18 33 119.957 32.6547 119.174 31.964C118.408 31.2547 118.025 30.1627 118.025 28.688V13.4H121.833V28.464C121.833 28.912 121.936 29.2387 122.141 29.444C122.347 29.6494 122.673 29.752 123.121 29.752H124.633V33H122.841Z" fill="white"/>
<path d="M130.175 33.224C128.719 33.224 127.543 32.86 126.647 32.132C125.751 31.404 125.303 30.4427 125.303 29.248V28.212C125.303 27.036 125.769 26.0934 126.703 25.384C127.636 24.656 128.868 24.292 130.399 24.292H132.107C132.592 24.292 133.115 24.3574 133.675 24.488C134.235 24.6187 134.748 24.796 135.215 25.02V23.564C135.215 23.0974 135.056 22.724 134.739 22.444C134.44 22.1454 134.039 21.996 133.535 21.996H131.127C130.604 21.996 130.184 22.1174 129.867 22.36C129.549 22.6027 129.391 22.9294 129.391 23.34H125.695C125.695 21.9774 126.189 20.8854 127.179 20.064C128.187 19.224 129.503 18.804 131.127 18.804H133.535C135.177 18.804 136.503 19.2427 137.511 20.12C138.519 20.9787 139.023 22.1267 139.023 23.564V33H135.495V31.32C135.047 31.8987 134.496 32.3654 133.843 32.72C133.189 33.056 132.545 33.224 131.911 33.224H130.175ZM132.191 30.312C132.881 30.312 133.497 30.1347 134.039 29.78C134.58 29.4254 134.972 28.9494 135.215 28.352V27.876C134.916 27.652 134.496 27.4747 133.955 27.344C133.432 27.2134 132.872 27.148 132.275 27.148H130.511C130.063 27.148 129.699 27.26 129.419 27.484C129.139 27.708 128.999 28.0067 128.999 28.38V29.108C128.999 29.4627 129.148 29.752 129.447 29.976C129.764 30.2 130.175 30.312 130.679 30.312H132.191Z" fill="white"/>
<path d="M146.498 33.224C144.8 33.224 143.437 32.776 142.41 31.88C141.384 30.984 140.87 29.808 140.87 28.352H144.622C144.622 28.856 144.79 29.2667 145.126 29.584C145.481 29.8827 145.938 30.032 146.498 30.032H149.018C150.138 30.032 150.698 29.724 150.698 29.108V28.632C150.698 28.4454 150.605 28.2774 150.418 28.128C150.232 27.96 149.98 27.848 149.662 27.792L144.818 26.952C143.68 26.7654 142.774 26.364 142.102 25.748C141.449 25.1134 141.122 24.376 141.122 23.536V22.612C141.122 21.4174 141.608 20.484 142.578 19.812C143.568 19.14 144.94 18.804 146.694 18.804H148.878C150.446 18.804 151.706 19.224 152.658 20.064C153.629 20.8854 154.114 21.9774 154.114 23.34H150.362C150.362 22.9294 150.222 22.6027 149.942 22.36C149.681 22.1174 149.326 21.996 148.878 21.996H146.75C145.537 21.996 144.93 22.276 144.93 22.836V23.284C144.93 23.4894 145.005 23.6667 145.154 23.816C145.322 23.9467 145.556 24.04 145.854 24.096L150.95 25.02C152.014 25.2067 152.873 25.608 153.526 26.224C154.18 26.8214 154.506 27.5027 154.506 28.268V29.276C154.506 30.4894 154.002 31.4507 152.994 32.16C152.005 32.8694 150.68 33.224 149.018 33.224H146.498Z" fill="white"/>
<path d="M161.305 33.224C159.607 33.224 158.244 32.776 157.217 31.88C156.191 30.984 155.677 29.808 155.677 28.352H159.429C159.429 28.856 159.597 29.2667 159.933 29.584C160.288 29.8827 160.745 30.032 161.305 30.032H163.825C164.945 30.032 165.505 29.724 165.505 29.108V28.632C165.505 28.4454 165.412 28.2774 165.225 28.128C165.039 27.96 164.787 27.848 164.469 27.792L159.625 26.952C158.487 26.7654 157.581 26.364 156.909 25.748C156.256 25.1134 155.929 24.376 155.929 23.536V22.612C155.929 21.4174 156.415 20.484 157.385 19.812C158.375 19.14 159.747 18.804 161.501 18.804H163.685C165.253 18.804 166.513 19.224 167.465 20.064C168.436 20.8854 168.921 21.9774 168.921 23.34H165.169C165.169 22.9294 165.029 22.6027 164.749 22.36C164.488 22.1174 164.133 21.996 163.685 21.996H161.557C160.344 21.996 159.737 22.276 159.737 22.836V23.284C159.737 23.4894 159.812 23.6667 159.961 23.816C160.129 23.9467 160.363 24.04 160.661 24.096L165.757 25.02C166.821 25.2067 167.68 25.608 168.333 26.224C168.987 26.8214 169.313 27.5027 169.313 28.268V29.276C169.313 30.4894 168.809 31.4507 167.801 32.16C166.812 32.8694 165.487 33.224 163.825 33.224H161.305Z" fill="white"/>
</svg>
