<svg width="151" height="48" viewBox="0 0 151 48" fill="none" xmlns="http://www.w3.org/2000/svg">
<path d="M14.5 4C21.9775 4 28.1311 9.66023 28.9141 16.9297C33.2578 19.4343 36.1816 24.1257 36.1816 29.5C36.1816 37.5081 29.6898 44 21.6816 44C14.2038 44 8.04905 38.3393 7.2666 31.0693C2.92349 28.5646 0 23.8738 0 18.5C0 10.4919 6.49187 4 14.5 4ZM28.6543 21.6523C27.2148 28.1445 21.4254 33 14.5 33C13.5379 33 12.5981 32.9043 11.6885 32.7256C13.0498 36.9461 17.0082 40 21.6816 40C27.4806 40 32.1816 35.299 32.1816 29.5C32.1816 26.3778 30.8174 23.5756 28.6543 21.6523ZM21.6816 19C16.2273 19 11.7451 23.1589 11.2314 28.4785C12.2604 28.8153 13.3585 29 14.5 29C19.9546 29 24.436 24.8405 24.9492 19.5205C23.9206 19.1839 22.8227 19 21.6816 19ZM14.5 8C8.70101 8 4 12.701 4 18.5C4 21.6217 5.36387 24.4234 7.52637 26.3467C8.9661 19.8549 14.7565 15 21.6816 15C22.6433 15 23.5829 15.0948 24.4922 15.2734C23.1305 11.0535 19.173 8 14.5 8Z" fill="white"/>
<path d="M103.548 33V12.033H107.579V33H103.548Z" fill="white"/>
<path d="M46 33V12.7H50.379V33H46Z" fill="white"/>
<path d="M52.5903 33V18.384H56.6503V20.414C57.4623 18.993 59.0863 18.152 61.0873 18.152C64.3933 18.152 66.5392 20.53 66.5392 23.894V33H62.4792V24.793C62.4792 23.024 61.3483 21.748 59.6663 21.748C57.8973 21.748 56.6503 23.111 56.6503 24.996V33H52.5903Z" fill="white"/>
<path d="M73.8004 14.063H69.7694V18.384H66.9564V21.748H69.7694V27.693C69.7694 31.086 71.9444 33 75.3084 33H77.7154V29.607H75.8594C74.5544 29.607 73.8004 28.94 73.8004 27.519V21.748H77.7154V18.384H73.8004V14.063Z" fill="white"/>
<path fill-rule="evenodd" clip-rule="evenodd" d="M88.2503 28.041H92.1943C91.6143 31.202 88.8303 33.232 85.2343 33.232C80.2753 33.232 77.7233 29.346 77.7233 25.663C77.7233 21.951 79.9853 18.152 84.9443 18.152C90.1063 18.152 92.1653 21.951 92.1653 25.286C92.1653 25.837 92.1363 26.272 92.1073 26.591H81.6093C81.8993 28.65 83.2043 29.926 85.2343 29.926C86.8583 29.926 87.9313 29.288 88.2503 28.041ZM84.9443 21.11C83.1173 21.11 82.0153 22.009 81.6673 24.039H88.1343C88.0183 22.415 86.8873 21.11 84.9443 21.11Z" fill="white"/>
<path d="M100.193 21.748H102.6V18.384H100.947C99.1783 18.384 98.0763 18.993 97.2933 20.82V18.384H93.2333V33H97.2933V25.895C97.2933 23.401 98.1923 21.748 100.193 21.748Z" fill="white"/>
<path fill-rule="evenodd" clip-rule="evenodd" d="M108.851 25.692C108.851 30.042 112.07 33.232 116.565 33.232C118.872 33.232 120.843 32.3914 122.215 30.9847C123.538 32.382 125.451 33.232 127.755 33.232C131.554 33.232 134.57 30.796 135.005 27.548H130.887C130.597 28.853 129.408 29.752 127.929 29.752C125.725 29.752 124.42 28.07 124.42 25.692C124.42 23.314 125.696 21.603 127.871 21.603C129.35 21.603 130.597 22.56 130.829 23.865H134.889C134.628 20.472 131.583 18.152 127.755 18.152C125.451 18.152 123.538 19.0019 122.215 20.3992C120.843 18.9926 118.872 18.152 116.565 18.152C112.07 18.152 108.851 21.342 108.851 25.692ZM120.216 25.5257C120.151 23.181 118.69 21.603 116.565 21.603C114.39 21.603 112.911 23.256 112.911 25.692C112.911 28.099 114.39 29.752 116.565 29.752C118.69 29.752 120.15 28.1742 120.216 25.8571C120.215 25.8022 120.215 25.7472 120.215 25.692C120.215 25.6364 120.215 25.5809 120.216 25.5257Z" fill="white"/>
<path d="M141.811 26.823L145.958 33H150.83L144.537 24.126L150.366 18.384H145.262L140.187 23.372V12.033H136.127V33H140.187V28.418L141.811 26.823Z" fill="white"/>
</svg>
