<svg width="221" height="48" viewBox="0 0 221 48" fill="none" xmlns="http://www.w3.org/2000/svg">
<path fill-rule="evenodd" clip-rule="evenodd" d="M8 4C3.58172 4 0 7.58172 0 12V36C0 40.4183 3.58172 44 8 44H32C36.4183 44 40 40.4183 40 36V12C40 7.58172 36.4183 4 32 4H8ZM11 19.5H20.9645L9.23223 31.2322L12.7678 34.7678L24.5 23.0355V33H29.5V17C29.5 15.6193 28.3807 14.5 27 14.5H11V19.5Z" fill="white"/>
<path d="M50 33V14.1H54.05V29.517H61.556V33H50Z" fill="white"/>
<path d="M76.3564 19.122V33H72.23L72.6574 31.056C71.5594 32.442 70.1194 33.135 68.3374 33.135C67.1134 33.135 66.0154 32.847 65.0434 32.271C64.0714 31.695 63.3064 30.867 62.7484 29.787C62.2084 28.707 61.9384 27.456 61.9384 26.034C61.9384 24.63 62.2084 23.388 62.7484 22.308C63.3064 21.228 64.0714 20.4 65.0434 19.824C66.0334 19.23 67.1404 18.933 68.3644 18.933C69.3004 18.933 70.1284 19.113 70.8484 19.473C71.5684 19.833 72.1624 20.328 72.6304 20.958L72.26 19.122H76.3564ZM69.2284 30.057C70.2544 30.057 71.0734 29.697 71.6854 28.977C72.2974 28.239 72.6034 27.276 72.6034 26.088C72.6034 24.882 72.2974 23.91 71.6854 23.172C71.0734 22.434 70.2544 22.065 69.2284 22.065C68.2024 22.065 67.3744 22.434 66.7444 23.172C66.1324 23.91 65.8264 24.882 65.8264 26.088C65.8264 27.276 66.1324 28.239 66.7444 28.977C67.3744 29.697 68.2024 30.057 69.2284 30.057Z" fill="white"/>
<path d="M91.5387 19.122V33H87.41L87.8127 31.326C87.3267 31.902 86.7597 32.352 86.1117 32.676C85.4637 33 84.6717 33.162 83.7357 33.162C82.1157 33.162 80.7927 32.667 79.7667 31.677C78.7407 30.669 78.2277 28.995 78.2277 26.655V19.122H82.0347V26.196C82.0347 27.456 82.2507 28.41 82.6827 29.058C83.1327 29.688 83.8167 30.003 84.7347 30.003C85.6887 30.003 86.4267 29.652 86.9487 28.95C87.4707 28.23 87.7317 27.231 87.7317 25.953V19.122H91.5387Z" fill="white"/>
<path d="M101.611 18.96C103.231 18.96 104.563 19.464 105.607 20.472C106.651 21.48 107.173 23.145 107.173 25.467V33H103.366V25.683C103.366 23.289 102.43 22.092 100.558 22.092C99.5675 22.092 98.8025 22.425 98.2625 23.091C97.7225 23.757 97.4525 24.693 97.4525 25.899V33H93.6455V19.122H97.72L97.3175 20.85C97.8035 20.256 98.3885 19.797 99.0725 19.473C99.7565 19.131 100.603 18.96 101.611 18.96Z" fill="white"/>
<path d="M122.369 27.735C122.117 29.427 121.397 30.759 120.209 31.731C119.039 32.685 117.518 33.162 115.646 33.162C114.206 33.162 112.946 32.874 111.866 32.298C110.786 31.704 109.949 30.867 109.355 29.787C108.779 28.707 108.491 27.465 108.491 26.061C108.491 24.639 108.779 23.397 109.355 22.335C109.949 21.255 110.786 20.427 111.866 19.851C112.964 19.257 114.233 18.96 115.673 18.96C117.527 18.96 119.039 19.437 120.209 20.391C121.379 21.327 122.099 22.632 122.369 24.306H118.427C118.265 23.622 117.941 23.082 117.455 22.686C116.969 22.272 116.366 22.065 115.646 22.065C114.656 22.065 113.864 22.434 113.27 23.172C112.676 23.91 112.379 24.873 112.379 26.061C112.379 27.249 112.676 28.212 113.27 28.95C113.864 29.688 114.656 30.057 115.646 30.057C116.384 30.057 116.996 29.85 117.482 29.436C117.986 29.022 118.31 28.455 118.454 27.735H122.369Z" fill="white"/>
<path d="M131.801 18.96C133.439 18.96 134.78 19.464 135.824 20.472C136.886 21.48 137.417 23.145 137.417 25.467V33H133.61V25.629C133.61 24.477 133.376 23.604 132.908 23.01C132.44 22.398 131.738 22.092 130.802 22.092C129.83 22.092 129.065 22.425 128.507 23.091C127.967 23.757 127.697 24.684 127.697 25.872V33H123.89V14.1H127.697V20.823C128.723 19.581 130.091 18.96 131.801 18.96Z" fill="white"/>
<path d="M142.785 26.844C142.857 27.78 143.236 28.536 143.92 29.112C144.622 29.67 145.549 29.949 146.701 29.949C147.655 29.949 148.428 29.751 149.022 29.355C149.634 28.941 149.941 28.374 149.941 27.654C149.941 27.15 149.77 26.754 149.428 26.466C149.104 26.16 148.636 25.926 148.024 25.764C147.43 25.584 146.503 25.368 145.243 25.116C144.001 24.882 142.957 24.585 142.111 24.225C141.265 23.847 140.572 23.298 140.032 22.578C139.51 21.84 139.249 20.868 139.249 19.662C139.249 18.564 139.546 17.583 140.14 16.719C140.752 15.855 141.589 15.18 142.651 14.694C143.731 14.19 144.946 13.938 146.296 13.938C147.682 13.938 148.923 14.199 150.021 14.721C151.137 15.225 152.011 15.927 152.641 16.827C153.289 17.727 153.622 18.744 153.64 19.878H149.671C149.581 19.068 149.239 18.42 148.645 17.934C148.051 17.43 147.268 17.178 146.296 17.178C145.396 17.178 144.676 17.367 144.136 17.745C143.596 18.123 143.326 18.663 143.326 19.365C143.326 19.869 143.488 20.265 143.812 20.553C144.136 20.823 144.594 21.048 145.188 21.228C145.782 21.39 146.701 21.588 147.943 21.822C149.203 22.056 150.265 22.353 151.129 22.713C151.993 23.055 152.686 23.586 153.208 24.306C153.748 25.008 154.018 25.953 154.018 27.141C154.018 28.293 153.703 29.328 153.073 30.246C152.443 31.146 151.561 31.857 150.427 32.379C149.311 32.901 148.05 33.162 146.646 33.162C145.134 33.162 143.785 32.892 142.597 32.352C141.427 31.794 140.508 31.029 139.842 30.057C139.176 29.085 138.835 27.996 138.817 26.79L142.785 26.844Z" fill="white"/>
<path d="M157.528 13.344C158.158 13.344 158.679 13.551 159.093 13.965C159.507 14.361 159.715 14.865 159.715 15.477C159.715 16.089 159.507 16.602 159.093 17.016C158.679 17.43 158.158 17.637 157.528 17.637C156.898 17.637 156.367 17.43 155.935 17.016C155.521 16.602 155.313 16.089 155.313 15.477C155.313 14.865 155.521 14.361 155.935 13.965C156.367 13.551 156.898 13.344 157.528 13.344ZM155.611 19.122H159.418V33H155.611V19.122Z" fill="white"/>
<path d="M178.216 18.96C179.71 18.96 180.925 19.455 181.861 20.445C182.797 21.435 183.265 23.082 183.265 25.386V33.027H179.458V25.251C179.458 23.145 178.657 22.092 177.055 22.092C176.227 22.092 175.561 22.389 175.057 22.983C174.553 23.559 174.301 24.369 174.301 25.413V33.027H170.494V25.251C170.494 23.145 169.684 22.092 168.064 22.092C167.236 22.092 166.57 22.398 166.066 23.01C165.58 23.604 165.337 24.414 165.337 25.44V33.027H161.53V19.122H165.6L165.202 20.85C165.67 20.256 166.228 19.797 166.876 19.473C167.524 19.149 168.334 18.978 169.306 18.96C171.286 18.96 172.663 19.743 173.437 21.309C173.941 20.553 174.598 19.977 175.408 19.581C176.236 19.167 177.172 18.96 178.216 18.96Z" fill="white"/>
<path d="M193.135 18.96C194.377 18.96 195.475 19.257 196.429 19.851C197.401 20.427 198.157 21.255 198.697 22.335C199.255 23.415 199.534 24.666 199.534 26.088C199.534 27.51 199.255 28.752 198.697 29.814C198.157 30.876 197.401 31.704 196.429 32.298C195.457 32.874 194.35 33.162 193.108 33.162C191.326 33.162 189.931 32.523 188.923 31.245V38.4H185.116V19.122H189.19L188.815 21.039C189.283 20.409 189.877 19.905 190.597 19.527C191.335 19.149 192.181 18.96 193.135 18.96ZM192.244 30.057C193.27 30.057 194.098 29.688 194.728 28.95C195.358 28.194 195.673 27.222 195.673 26.034C195.673 24.846 195.358 23.892 194.728 23.172C194.098 22.434 193.27 22.065 192.244 22.065C191.218 22.065 190.399 22.434 189.787 23.172C189.175 23.892 188.869 24.846 188.869 26.034C188.869 27.24 189.175 28.212 189.787 28.95C190.399 29.688 191.218 30.057 192.244 30.057Z" fill="white"/>
<path d="M201.109 14.1H204.916V33H201.109V14.1Z" fill="white"/>
<path d="M206.489 26.088C206.489 24.648 206.777 23.397 207.353 22.335C207.947 21.255 208.766 20.427 209.81 19.851C210.872 19.257 212.096 18.96 213.482 18.96C214.886 18.96 216.119 19.239 217.181 19.797C218.261 20.337 219.098 21.111 219.692 22.119C220.304 23.109 220.619 24.279 220.637 25.629C220.637 26.115 220.601 26.547 220.529 26.925H210.458V27.033C210.548 28.041 210.872 28.833 211.43 29.409C211.988 29.985 212.753 30.273 213.725 30.273C214.499 30.273 215.138 30.111 215.642 29.787C216.164 29.445 216.506 28.95 216.668 28.302H220.421C220.277 29.22 219.926 30.048 219.368 30.786C218.81 31.524 218.072 32.109 217.154 32.541C216.236 32.955 215.183 33.162 213.995 33.162C212.447 33.162 211.106 32.874 209.972 32.298C208.856 31.722 207.992 30.903 207.38 29.841C206.786 28.761 206.489 27.51 206.489 26.088ZM216.83 24.441C216.704 23.595 216.353 22.947 215.777 22.497C215.219 22.029 214.508 21.795 213.644 21.795C212.816 21.795 212.114 22.038 211.538 22.524C210.98 22.992 210.647 23.631 210.539 24.441H216.83Z" fill="white"/>
</svg>
