<svg width="181" height="48" viewBox="0 0 181 48" fill="none" xmlns="http://www.w3.org/2000/svg">
<path fill-rule="evenodd" clip-rule="evenodd" d="M16.1746 28.4936L20.7434 33.0624C23.5238 35.8427 28.0316 35.8427 30.812 33.0624C31.7289 32.1454 32.3435 31.0406 32.6556 29.8718L35.8462 33.0624C38.6266 35.8427 43.1344 35.8427 45.9147 33.0624C48.6951 30.282 48.6951 25.7742 45.9147 22.9939L35.8462 12.9253C33.0659 10.145 28.558 10.145 25.7777 12.9253C24.8607 13.8423 24.2462 14.9472 23.9341 16.116L20.7434 12.9253C17.9631 10.145 13.4553 10.145 10.6749 12.9254L2.38936 21.2109C-0.796453 24.3967 -0.796453 29.5619 2.38936 32.7478C5.57517 35.9336 10.7404 35.9336 13.9262 32.7478C15.1322 31.5418 15.8817 30.0521 16.1746 28.4936ZM18.2263 15.4425C16.8361 14.0523 14.5822 14.0523 13.192 15.4425C11.8025 16.8321 11.8019 19.0846 13.1903 20.475L23.2606 30.5453C24.6507 31.9354 26.9047 31.9354 28.2948 30.5453C29.6843 29.1558 29.685 26.9036 28.297 25.5132L18.2263 15.4425ZM11.4091 23.728L8.15778 20.4767L4.90649 23.728C3.11085 25.5237 3.11085 28.435 4.90649 30.2306C6.70213 32.0263 9.61344 32.0263 11.4091 30.2306C13.2047 28.435 13.2047 25.5237 11.4091 23.728ZM28.2919 20.4738C26.9047 19.0834 26.9056 16.8317 28.2948 15.4425C29.685 14.0523 31.9389 14.0523 33.3291 15.4425L43.3976 25.511C44.7878 26.9012 44.7878 29.1551 43.3976 30.5453C42.0074 31.9354 39.7535 31.9354 38.3634 30.5453L28.2919 20.4738Z" fill="white"/>
<path d="M60.553 32.9998H56V11.5398H60.553L66.933 25.5478L73.342 11.5398H77.953V32.9998H73.4V28.5048C73.4 23.8648 73.4 22.8498 73.632 21.2548L69.079 30.9998H64.787L60.263 21.2548C60.524 22.8498 60.553 24.6478 60.553 26.9968V32.9998Z" fill="white"/>
<path d="M86.2509 33.3768C83.1769 33.3768 81.2629 31.5788 81.2629 28.7368C81.2629 26.0688 83.1479 24.4158 86.6279 24.1548L90.6879 23.8358V23.6038C90.6879 22.1828 89.8179 21.4288 88.2229 21.4288C86.3379 21.4288 85.3229 22.1538 85.3229 23.4588H81.6109C81.6109 20.1818 84.3079 18.0358 88.4549 18.0358C92.6599 18.0358 95.0379 20.3848 95.0379 24.5318V32.9998H91.0939L90.8039 31.0858C90.3399 32.4198 88.4259 33.3768 86.2509 33.3768ZM87.8169 30.0708C89.5279 30.0708 90.7169 29.2298 90.7169 27.5768V26.7938L88.4549 26.9968C86.5119 27.1708 85.8159 27.6058 85.8159 28.5338C85.8159 29.5778 86.4539 30.0708 87.8169 30.0708Z" fill="white"/>
<path d="M97.516 25.4888C97.516 21.0808 100.387 18.0068 104.476 18.0068C106.448 18.0068 108.014 18.7608 108.797 19.9498L109.029 18.4998H113.234V32.0718C113.234 37.2628 110.247 40.3948 105.288 40.3948C100.851 40.3948 97.864 37.8718 97.458 33.7538H101.982C102.069 35.3778 103.287 36.3348 105.259 36.3348C107.405 36.3348 108.768 35.0588 108.768 32.9998V31.1148C107.898 32.1588 106.274 32.8258 104.389 32.8258C100.329 32.8258 97.516 29.8388 97.516 25.4888ZM102.011 25.3728C102.011 27.4608 103.403 28.9398 105.375 28.9398C107.405 28.9398 108.768 27.5188 108.768 25.3728C108.768 23.2558 107.405 21.8928 105.346 21.8928C103.374 21.8928 102.011 23.3138 102.011 25.3728Z" fill="white"/>
<path d="M121.059 32.9998H116.593V18.4998H120.798L121.088 20.0078C121.987 18.7608 123.64 18.0358 125.525 18.0358C128.976 18.0358 130.977 20.2398 130.977 24.0388V32.9998H126.511V25.1118C126.511 23.2848 125.496 22.0958 123.959 22.0958C122.19 22.0958 121.059 23.2558 121.059 25.0538V32.9998Z" fill="white"/>
<path d="M133.396 25.7208C133.396 21.1388 136.76 18.0648 141.4 18.0648C146.011 18.0648 149.375 21.1388 149.375 25.7208C149.375 30.3028 146.011 33.3478 141.4 33.3478C136.76 33.3478 133.396 30.3028 133.396 25.7208ZM137.891 25.6918C137.891 27.8958 139.312 29.3458 141.4 29.3458C143.459 29.3458 144.88 27.8958 144.88 25.6918C144.88 23.5168 143.459 22.0668 141.4 22.0668C139.312 22.0668 137.891 23.5168 137.891 25.6918Z" fill="white"/>
<path d="M156.431 32.9998H151.965V11.1338H156.431V32.9998Z" fill="white"/>
<path d="M161.985 16.2378C160.564 16.2378 159.433 15.1068 159.433 13.6858C159.433 12.2648 160.564 11.1628 161.985 11.1628C163.377 11.1628 164.508 12.2648 164.508 13.6858C164.508 15.1068 163.377 16.2378 161.985 16.2378ZM159.781 32.9998V18.4998H164.247V32.9998H159.781Z" fill="white"/>
<path d="M171.976 33.3768C168.902 33.3768 166.988 31.5788 166.988 28.7368C166.988 26.0688 168.873 24.4158 172.353 24.1548L176.413 23.8358V23.6038C176.413 22.1828 175.543 21.4288 173.948 21.4288C172.063 21.4288 171.048 22.1538 171.048 23.4588H167.336C167.336 20.1818 170.033 18.0358 174.18 18.0358C178.385 18.0358 180.763 20.3848 180.763 24.5318V32.9998H176.819L176.529 31.0858C176.065 32.4198 174.151 33.3768 171.976 33.3768ZM173.542 30.0708C175.253 30.0708 176.442 29.2298 176.442 27.5768V26.7938L174.18 26.9968C172.237 27.1708 171.541 27.6058 171.541 28.5338C171.541 29.5778 172.179 30.0708 173.542 30.0708Z" fill="white"/>
</svg>
