<svg width="177" height="48" viewBox="0 0 177 48" fill="none" xmlns="http://www.w3.org/2000/svg">
<path d="M17.1019 28.5854V43H20.9019V28.5883L31.0921 38.7785L33.7791 36.0915L23.5876 25.9H38V22.1H23.5873L33.7788 11.9085L31.0918 9.22148L20.9019 19.4114V5H17.1019V19.4143L6.90904 9.22146L4.22203 11.9085L14.4136 22.1H0V25.9H14.4133L4.22175 36.0915L6.90875 38.7785L17.1019 28.5854Z" fill="white"/>
<path d="M48.002 33.0001V13.4001H55.03L58.922 30.4801H59.426V13.4001H63.066V33.0001H56.038L52.146 15.9201H51.642V33.0001H48.002Z" fill="white"/>
<path d="M72.0798 33.3921C70.6984 33.3921 69.4571 33.1121 68.3558 32.5521C67.2544 31.9921 66.3864 31.1801 65.7518 30.1161C65.1171 29.0521 64.7998 27.7734 64.7998 26.2801V25.8321C64.7998 24.3387 65.1171 23.0601 65.7518 21.9961C66.3864 20.9321 67.2544 20.1201 68.3558 19.5601C69.4571 19.0001 70.6984 18.7201 72.0798 18.7201C73.4611 18.7201 74.7024 19.0001 75.8038 19.5601C76.9051 20.1201 77.7731 20.9321 78.4078 21.9961C79.0424 23.0601 79.3598 24.3387 79.3598 25.8321V26.2801C79.3598 27.7734 79.0424 29.0521 78.4078 30.1161C77.7731 31.1801 76.9051 31.9921 75.8038 32.5521C74.7024 33.1121 73.4611 33.3921 72.0798 33.3921ZM72.0798 30.2561C73.1624 30.2561 74.0584 29.9107 74.7678 29.2201C75.4771 28.5107 75.8318 27.5027 75.8318 26.1961V25.9161C75.8318 24.6094 75.4771 23.6107 74.7678 22.9201C74.0771 22.2107 73.1811 21.8561 72.0798 21.8561C70.9971 21.8561 70.1011 22.2107 69.3918 22.9201C68.6824 23.6107 68.3278 24.6094 68.3278 25.9161V26.1961C68.3278 27.5027 68.6824 28.5107 69.3918 29.2201C70.1011 29.9107 70.9971 30.2561 72.0798 30.2561Z" fill="white"/>
<path d="M81.2163 33.0001V19.1121H84.6883V20.6801H85.1923C85.3976 20.1201 85.7336 19.7094 86.2003 19.4481C86.6856 19.1867 87.2456 19.0561 87.8803 19.0561H89.5603V22.1921H87.8243C86.9283 22.1921 86.191 22.4347 85.6123 22.9201C85.0336 23.3867 84.7443 24.1147 84.7443 25.1041V33.0001H81.2163Z" fill="white"/>
<path d="M96.3577 33.3921C94.5471 33.3921 93.0631 33.0001 91.9057 32.2161C90.7484 31.4321 90.0484 30.3121 89.8057 28.8561L93.0537 28.0161C93.1844 28.6694 93.3991 29.1827 93.6977 29.5561C94.0151 29.9294 94.3977 30.2001 94.8457 30.3681C95.3124 30.5174 95.8164 30.5921 96.3577 30.5921C97.1791 30.5921 97.7857 30.4521 98.1777 30.1721C98.5697 29.8734 98.7657 29.5094 98.7657 29.0801C98.7657 28.6507 98.5791 28.3241 98.2057 28.1001C97.8324 27.8574 97.2351 27.6614 96.4137 27.5121L95.6297 27.3721C94.6591 27.1854 93.7724 26.9334 92.9697 26.6161C92.1671 26.2801 91.5231 25.8227 91.0377 25.2441C90.5524 24.6654 90.3097 23.9187 90.3097 23.0041C90.3097 21.6227 90.8137 20.5681 91.8217 19.8401C92.8297 19.0934 94.1551 18.7201 95.7977 18.7201C97.3471 18.7201 98.6351 19.0654 99.6617 19.7561C100.688 20.4467 101.36 21.3521 101.678 22.4721L98.4017 23.4801C98.2524 22.7707 97.9444 22.2667 97.4777 21.9681C97.0297 21.6694 96.4697 21.5201 95.7977 21.5201C95.1257 21.5201 94.6124 21.6414 94.2577 21.8841C93.9031 22.1081 93.7257 22.4254 93.7257 22.8361C93.7257 23.2841 93.9124 23.6201 94.2857 23.8441C94.6591 24.0494 95.1631 24.2081 95.7977 24.3201L96.5817 24.4601C97.6271 24.6467 98.5697 24.8987 99.4097 25.2161C100.268 25.5147 100.94 25.9534 101.426 26.5321C101.93 27.0921 102.182 27.8574 102.182 28.8281C102.182 30.2841 101.65 31.4134 100.586 32.2161C99.5404 33.0001 98.1311 33.3921 96.3577 33.3921Z" fill="white"/>
<path d="M110.201 33.3921C108.82 33.3921 107.597 33.1027 106.533 32.5241C105.488 31.9267 104.667 31.0961 104.069 30.0321C103.491 28.9494 103.201 27.6801 103.201 26.2241V25.8881C103.201 24.4321 103.491 23.1721 104.069 22.1081C104.648 21.0254 105.46 20.1947 106.505 19.6161C107.551 19.0187 108.764 18.7201 110.145 18.7201C111.508 18.7201 112.693 19.0281 113.701 19.6441C114.709 20.2414 115.493 21.0814 116.053 22.1641C116.613 23.2281 116.893 24.4694 116.893 25.8881V27.0921H106.785C106.823 28.0441 107.177 28.8187 107.849 29.4161C108.521 30.0134 109.343 30.3121 110.313 30.3121C111.303 30.3121 112.031 30.0974 112.497 29.6681C112.964 29.2387 113.319 28.7627 113.561 28.2401L116.445 29.7521C116.184 30.2374 115.801 30.7694 115.297 31.3481C114.812 31.9081 114.159 32.3934 113.337 32.8041C112.516 33.1961 111.471 33.3921 110.201 33.3921ZM106.813 24.4601H113.309C113.235 23.6574 112.908 23.0134 112.329 22.5281C111.769 22.0427 111.032 21.8001 110.117 21.8001C109.165 21.8001 108.409 22.0427 107.849 22.5281C107.289 23.0134 106.944 23.6574 106.813 24.4601Z" fill="white"/>
<path d="M131.035 33.3921C129.523 33.3921 128.188 33.1214 127.031 32.5801C125.874 32.0387 124.968 31.2641 124.315 30.2561C123.662 29.2481 123.335 28.0347 123.335 26.6161V25.8321H126.975V26.6161C126.975 27.7921 127.339 28.6787 128.067 29.2761C128.795 29.8547 129.784 30.1441 131.035 30.1441C132.304 30.1441 133.247 29.8921 133.863 29.3881C134.498 28.8841 134.815 28.2401 134.815 27.4561C134.815 26.9147 134.656 26.4761 134.339 26.1401C134.04 25.8041 133.592 25.5334 132.995 25.3281C132.416 25.1041 131.707 24.8987 130.867 24.7121L130.223 24.5721C128.879 24.2734 127.722 23.9001 126.751 23.4521C125.799 22.9854 125.062 22.3787 124.539 21.6321C124.035 20.8854 123.783 19.9147 123.783 18.7201C123.783 17.5254 124.063 16.5081 124.623 15.6681C125.202 14.8094 126.004 14.1561 127.031 13.7081C128.076 13.2414 129.299 13.0081 130.699 13.0081C132.099 13.0081 133.34 13.2507 134.423 13.7361C135.524 14.2027 136.383 14.9121 136.999 15.8641C137.634 16.7974 137.951 17.9734 137.951 19.3921V20.2321H134.311V19.3921C134.311 18.6454 134.162 18.0481 133.863 17.6001C133.583 17.1334 133.172 16.7974 132.631 16.5921C132.09 16.3681 131.446 16.2561 130.699 16.2561C129.579 16.2561 128.748 16.4707 128.207 16.9001C127.684 17.3107 127.423 17.8801 127.423 18.6081C127.423 19.0934 127.544 19.5041 127.787 19.8401C128.048 20.1761 128.431 20.4561 128.935 20.6801C129.439 20.9041 130.083 21.1001 130.867 21.2681L131.511 21.4081C132.911 21.7067 134.124 22.0894 135.151 22.5561C136.196 23.0227 137.008 23.6387 137.587 24.4041C138.166 25.1694 138.455 26.1494 138.455 27.3441C138.455 28.5387 138.147 29.5934 137.531 30.5081C136.934 31.4041 136.075 32.1134 134.955 32.6361C133.854 33.1401 132.547 33.3921 131.035 33.3921Z" fill="white"/>
<path d="M145.243 33.0001C144.329 33.0001 143.582 32.7201 143.003 32.1601C142.443 31.5814 142.163 30.8161 142.163 29.8641V22.0241H138.691V19.1121H142.163V14.8001H145.691V19.1121H149.499V22.0241H145.691V29.2481C145.691 29.8081 145.953 30.0881 146.475 30.0881H149.163V33.0001H145.243Z" fill="white"/>
<path d="M156.401 33.3921C155.281 33.3921 154.245 33.1214 153.293 32.5801C152.341 32.0201 151.575 31.2081 150.997 30.1441C150.418 29.0801 150.129 27.7921 150.129 26.2801V25.8321C150.129 24.3201 150.418 23.0321 150.997 21.9681C151.575 20.9041 152.341 20.1014 153.293 19.5601C154.263 19.0001 155.299 18.7201 156.401 18.7201C157.67 18.7201 158.631 18.9347 159.285 19.3641C159.957 19.7747 160.451 20.2507 160.769 20.7921H161.273V19.1121H164.745V29.2481C164.745 29.8081 165.006 30.0881 165.529 30.0881H166.649V33.0001H163.849C163.177 33.0001 162.617 32.8134 162.169 32.4401C161.739 32.0667 161.525 31.5534 161.525 30.9001V30.8721H161.021C160.703 31.5627 160.19 32.1601 159.481 32.6641C158.79 33.1494 157.763 33.3921 156.401 33.3921ZM157.465 30.3121C158.566 30.3121 159.471 29.9667 160.181 29.2761C160.909 28.5667 161.273 27.5401 161.273 26.1961V25.9161C161.273 24.5721 160.909 23.5547 160.181 22.8641C159.453 22.1547 158.547 21.8001 157.465 21.8001C156.382 21.8001 155.477 22.1547 154.749 22.8641C154.021 23.5547 153.657 24.5721 153.657 25.9161V26.1961C153.657 27.5401 154.021 28.5667 154.749 29.2761C155.477 29.9667 156.382 30.3121 157.465 30.3121Z" fill="white"/>
<path d="M167.885 33.0001V19.1121H171.357V20.6801H171.861C172.066 20.1201 172.402 19.7094 172.869 19.4481C173.354 19.1867 173.914 19.0561 174.549 19.0561H176.229V22.1921H174.493C173.597 22.1921 172.86 22.4347 172.281 22.9201C171.702 23.3867 171.413 24.1147 171.413 25.1041V33.0001H167.885Z" fill="white"/>
</svg>
