<svg width="190" height="48" viewBox="0 0 190 48" fill="none" xmlns="http://www.w3.org/2000/svg">
<rect y="4" width="10" height="10" fill="white"/>
<rect opacity="0.6" x="20" y="4" width="10" height="10" fill="white"/>
<rect opacity="0.6" x="10" y="14" width="10" height="10" fill="white"/>
<rect opacity="0.45" x="20" y="14" width="10" height="10" fill="white"/>
<rect opacity="0.3" x="30" y="14" width="10" height="10" fill="white"/>
<rect opacity="0.6" y="24" width="10" height="10" fill="white"/>
<rect opacity="0.45" x="10" y="24" width="10" height="10" fill="white"/>
<rect opacity="0.3" x="20" y="24" width="10" height="10" fill="white"/>
<rect opacity="0.15" x="30" y="24" width="10" height="10" fill="white"/>
<rect opacity="0.3" x="10" y="34" width="10" height="10" fill="white"/>
<rect opacity="0.15" x="20" y="34" width="10" height="10" fill="white"/>
<path d="M69.92 23.2201C69.92 25.9801 69.03 28.3501 67.25 30.3301C65.49 32.3101 63.03 33.3001 59.87 33.3001C56.69 33.3001 54.25 32.3101 52.55 30.3301C50.85 28.3501 50 26.0001 50 23.2801C50 20.4401 50.9 18.0501 52.7 16.1101C54.5 14.1701 56.93 13.2001 59.99 13.2001C63.11 13.2001 65.54 14.1901 67.28 16.1701C69.04 18.1301 69.92 20.4801 69.92 23.2201ZM65.57 23.3401C65.57 21.2601 65.09 19.6401 64.13 18.4801C63.17 17.3201 61.78 16.7401 59.96 16.7401C58.02 16.7401 56.6 17.3601 55.7 18.6001C54.8 19.8201 54.35 21.3501 54.35 23.1901C54.35 24.9701 54.79 26.5101 55.67 27.8101C56.55 29.1101 58.02 29.7601 60.08 29.7601C61.98 29.7601 63.37 29.1701 64.25 27.9901C65.13 26.7901 65.57 25.2401 65.57 23.3401Z" fill="white"/>
<path d="M86.7174 33.0001H81.0474V30.4801C80.6674 31.2601 80.1074 31.9301 79.3674 32.4901C78.6274 33.0301 77.6474 33.3001 76.4274 33.3001C74.6474 33.3001 73.2474 32.6901 72.2274 31.4701C71.2074 30.2501 70.6974 28.5901 70.6974 26.4901C70.6974 24.4701 71.1974 22.7501 72.1974 21.3301C73.1974 19.9101 74.7074 19.2001 76.7274 19.2001C77.8274 19.2001 78.7274 19.4201 79.4274 19.8601C80.1274 20.3001 80.6674 20.8601 81.0474 21.5401V15.3001H78.3474V12.3601H84.9174V30.0901H86.7174V33.0001ZM81.0474 26.1601V25.8301C81.0474 24.7101 80.7474 23.8401 80.1474 23.2201C79.5674 22.5801 78.8374 22.2601 77.9574 22.2601C77.0974 22.2601 76.3374 22.5801 75.6774 23.2201C75.0374 23.8601 74.7174 24.8701 74.7174 26.2501C74.7174 27.5501 75.0174 28.5401 75.6174 29.2201C76.2174 29.9001 76.9274 30.2401 77.7474 30.2401C78.7674 30.2401 79.5674 29.8101 80.1474 28.9501C80.7474 28.0901 81.0474 27.1601 81.0474 26.1601Z" fill="white"/>
<path d="M100.437 28.7401C100.337 29.9401 99.7468 31.0001 98.6668 31.9201C97.5868 32.8401 96.0768 33.3001 94.1368 33.3001C92.1168 33.3001 90.4468 32.7301 89.1268 31.5901C87.8268 30.4501 87.1768 28.7501 87.1768 26.4901C87.1768 24.4101 87.7668 22.6801 88.9468 21.3001C90.1468 19.9001 91.8168 19.2001 93.9568 19.2001C95.8368 19.2001 97.3568 19.7401 98.5168 20.8201C99.6968 21.9001 100.297 23.3201 100.317 25.0801C100.317 25.7401 100.247 26.3901 100.107 27.0301H91.2268C91.4468 29.1701 92.5068 30.2401 94.4068 30.2401C95.4468 30.2401 96.1468 29.9901 96.5068 29.4901C96.8868 28.9901 97.1168 28.5401 97.1968 28.1401L100.437 28.7401ZM96.3268 24.7801C96.4068 24.1001 96.2568 23.4601 95.8768 22.8601C95.5168 22.2601 94.8768 21.9601 93.9568 21.9601C93.1568 21.9601 92.5368 22.2201 92.0968 22.7401C91.6568 23.2601 91.3768 23.9401 91.2568 24.7801H96.3268Z" fill="white"/>
<path d="M102.489 20.4301C103.669 19.9501 104.649 19.6301 105.429 19.4701C106.229 19.2901 107.179 19.2001 108.279 19.2001C109.739 19.2001 110.999 19.5801 112.059 20.3401C113.119 21.1001 113.649 22.2501 113.649 23.7901V29.6701C113.649 30.3701 113.959 30.7201 114.579 30.7201C114.759 30.7201 114.949 30.6901 115.149 30.6301L115.179 32.6701C114.399 33.0901 113.589 33.3001 112.749 33.3001C110.969 33.3001 109.979 32.4101 109.779 30.6301V30.6001C109.399 31.2801 108.849 31.9001 108.129 32.4601C107.429 33.0201 106.529 33.3001 105.429 33.3001C104.449 33.3001 103.509 33.0101 102.609 32.4301C101.709 31.8501 101.259 30.8501 101.259 29.4301C101.259 27.7701 101.919 26.6701 103.239 26.1301C104.579 25.5901 106.019 25.3201 107.559 25.3201C108.419 25.3201 109.159 25.3601 109.779 25.4401V24.9901C109.779 24.2901 109.679 23.6101 109.479 22.9501C109.299 22.2901 108.659 21.9601 107.559 21.9601C107.159 21.9601 106.789 21.9901 106.449 22.0501C106.129 22.0901 105.809 22.1901 105.489 22.3501L104.979 24.2701L101.889 23.9401L102.489 20.4301ZM109.779 27.4801V27.3001C109.459 27.2601 109.129 27.2201 108.789 27.1801C108.469 27.1401 108.149 27.1201 107.829 27.1201C107.149 27.1201 106.549 27.2501 106.029 27.5101C105.509 27.7501 105.249 28.2401 105.249 28.9801C105.249 29.4201 105.369 29.7901 105.609 30.0901C105.849 30.3901 106.259 30.5401 106.839 30.5401C107.519 30.5401 108.149 30.3001 108.729 29.8201C109.329 29.3201 109.679 28.5401 109.779 27.4801Z" fill="white"/>
<path d="M130.115 26.2501C130.115 28.3901 129.415 30.1001 128.015 31.3801C126.615 32.6601 124.835 33.3001 122.675 33.3001C120.595 33.3001 118.895 32.7001 117.575 31.5001C116.275 30.2801 115.625 28.5801 115.625 26.4001C115.625 24.4201 116.225 22.7201 117.425 21.3001C118.625 19.8801 120.445 19.1701 122.885 19.1701C125.325 19.1701 127.135 19.8801 128.315 21.3001C129.515 22.7001 130.115 24.3501 130.115 26.2501ZM126.125 26.1301C126.125 24.7501 125.805 23.7401 125.165 23.1001C124.525 22.4601 123.745 22.1401 122.825 22.1401C121.825 22.1401 121.035 22.5001 120.455 23.2201C119.895 23.9201 119.615 24.9101 119.615 26.1901C119.615 27.3501 119.875 28.3301 120.395 29.1301C120.935 29.9301 121.735 30.3301 122.795 30.3301C123.795 30.3301 124.595 29.9601 125.195 29.2201C125.815 28.4601 126.125 27.4301 126.125 26.1301Z" fill="white"/>
<path d="M145.293 33.0001H130.653V29.5801H132.753V16.9201H130.653V13.5001H139.503V16.9201H136.773V29.5801H141.873L142.473 25.8001L145.893 26.1001L145.293 33.0001Z" fill="white"/>
<path d="M147.652 20.4301C148.832 19.9501 149.812 19.6301 150.592 19.4701C151.392 19.2901 152.342 19.2001 153.442 19.2001C154.902 19.2001 156.162 19.5801 157.222 20.3401C158.282 21.1001 158.812 22.2501 158.812 23.7901V29.6701C158.812 30.3701 159.122 30.7201 159.742 30.7201C159.922 30.7201 160.112 30.6901 160.312 30.6301L160.342 32.6701C159.562 33.0901 158.752 33.3001 157.912 33.3001C156.132 33.3001 155.142 32.4101 154.942 30.6301V30.6001C154.562 31.2801 154.012 31.9001 153.292 32.4601C152.592 33.0201 151.692 33.3001 150.592 33.3001C149.612 33.3001 148.672 33.0101 147.772 32.4301C146.872 31.8501 146.422 30.8501 146.422 29.4301C146.422 27.7701 147.082 26.6701 148.402 26.1301C149.742 25.5901 151.182 25.3201 152.722 25.3201C153.582 25.3201 154.322 25.3601 154.942 25.4401V24.9901C154.942 24.2901 154.842 23.6101 154.642 22.9501C154.462 22.2901 153.822 21.9601 152.722 21.9601C152.322 21.9601 151.952 21.9901 151.612 22.0501C151.292 22.0901 150.972 22.1901 150.652 22.3501L150.142 24.2701L147.052 23.9401L147.652 20.4301ZM154.942 27.4801V27.3001C154.622 27.2601 154.292 27.2201 153.952 27.1801C153.632 27.1401 153.312 27.1201 152.992 27.1201C152.312 27.1201 151.712 27.2501 151.192 27.5101C150.672 27.7501 150.412 28.2401 150.412 28.9801C150.412 29.4201 150.532 29.7901 150.772 30.0901C151.012 30.3901 151.422 30.5401 152.002 30.5401C152.682 30.5401 153.312 30.3001 153.892 29.8201C154.492 29.3201 154.842 28.5401 154.942 27.4801Z" fill="white"/>
<path d="M176.087 25.9201C176.087 27.9201 175.557 29.6501 174.497 31.1101C173.457 32.5701 171.917 33.3001 169.877 33.3001C167.817 33.3001 166.367 32.5201 165.527 30.9601C165.487 31.3001 165.437 31.6401 165.377 31.9801C165.337 32.3201 165.287 32.6601 165.227 33.0001H161.357C161.497 32.3001 161.617 31.6001 161.717 30.9001C161.817 30.2001 161.867 29.5101 161.867 28.8301V15.3001H160.067V12.3601H165.737V22.0501C166.097 21.2701 166.637 20.6001 167.357 20.0401C168.097 19.4801 169.077 19.2001 170.297 19.2001C171.997 19.2001 173.387 19.7901 174.467 20.9701C175.547 22.1501 176.087 23.8001 176.087 25.9201ZM172.067 26.2501C172.067 24.9501 171.787 23.9601 171.227 23.2801C170.667 22.6001 169.927 22.2601 169.007 22.2601C167.967 22.2601 167.157 22.6401 166.577 23.4001C166.017 24.1601 165.737 25.0401 165.737 26.0401V26.3701C165.737 27.4701 166.007 28.4001 166.547 29.1601C167.107 29.9001 167.897 30.2701 168.917 30.2701C169.797 30.2701 170.537 29.9501 171.137 29.3101C171.757 28.6501 172.067 27.6301 172.067 26.2501Z" fill="white"/>
<path d="M189.161 28.8601C189.161 30.3601 188.561 31.4801 187.361 32.2201C186.181 32.9401 184.641 33.3001 182.741 33.3001C181.761 33.3001 180.771 33.2001 179.771 33.0001C178.791 32.7801 177.851 32.4401 176.951 31.9801L177.491 28.2001L180.491 28.5301V30.2101C180.851 30.3301 181.231 30.4101 181.631 30.4501C182.031 30.4701 182.331 30.4801 182.531 30.4801C183.271 30.4801 183.911 30.3601 184.451 30.1201C184.991 29.8801 185.261 29.5201 185.261 29.0401C185.261 28.4601 184.851 28.0801 184.031 27.9001C183.211 27.7201 182.261 27.5401 181.181 27.3601C180.101 27.1801 179.151 26.8101 178.331 26.2501C177.511 25.6901 177.101 24.7401 177.101 23.4001C177.101 21.7401 177.741 20.6301 179.021 20.0701C180.321 19.4901 181.661 19.2001 183.041 19.2001C184.841 19.2001 186.531 19.6101 188.111 20.4301L188.441 23.8801L185.441 24.2101L185.201 22.3201C184.541 22.1001 183.831 21.9901 183.071 21.9901C182.571 21.9901 182.141 22.1001 181.781 22.3201C181.441 22.5201 181.271 22.8401 181.271 23.2801C181.271 23.8601 181.661 24.2501 182.441 24.4501C183.241 24.6301 184.161 24.8101 185.201 24.9901C186.261 25.1701 187.181 25.5401 187.961 26.1001C188.761 26.6401 189.161 27.5601 189.161 28.8601Z" fill="white"/>
</svg>
