<svg width="105" height="48" viewBox="0 0 105 48" fill="none" xmlns="http://www.w3.org/2000/svg">
<path d="M26.9513 34.9836C21.9252 38.1721 15.1881 37.5741 10.8037 33.1897C6.41928 28.8053 5.82132 22.0682 9.00983 17.0421L4.69571 12.728C-0.795653 20.1642 -0.17387 30.6974 6.56106 37.4323C13.296 44.1673 23.8292 44.7891 31.2654 39.2977L26.9513 34.9836Z" fill="white"/>
<path d="M13.0402 13.0115C18.0664 9.82249 24.8039 10.4203 29.1885 14.8049C33.5731 19.1895 34.1709 25.927 30.9819 30.9532L35.296 35.2673C40.7879 27.831 40.1662 17.2974 33.4311 10.5623C26.696 3.82716 16.1624 3.20553 8.72614 8.6974L13.0402 13.0115Z" fill="white"/>
<path opacity="0.2" d="M29.1882 14.8049C24.8036 10.4203 18.0662 9.82247 13.04 13.0115L10.8781 10.8496C10.1066 11.386 9.37184 11.998 8.68408 12.6858C7.99621 13.3736 7.38407 14.1086 6.84766 14.8802L9.00957 17.0421C5.82106 22.0682 6.41902 28.8053 10.8034 33.1897C15.1879 37.5741 21.9249 38.1721 26.951 34.9836L29.1171 37.1496C29.8887 36.6132 30.6236 36.0011 31.3115 35.3132C31.9993 34.6254 32.6113 33.8906 33.1477 33.1192L30.9817 30.9532C34.1707 25.927 33.5728 19.1895 29.1882 14.8049Z" fill="white"/>
<path d="M58.444 33.3361C56.9507 33.3361 55.5693 33.0748 54.3 32.5521C53.0493 32.0295 51.948 31.3015 50.996 30.3681C50.044 29.4348 49.3067 28.3521 48.784 27.1201C48.2613 25.8695 48 24.5255 48 23.0881C48 21.6321 48.2613 20.2881 48.784 19.0561C49.3067 17.8241 50.0347 16.7508 50.968 15.8361C51.9013 14.9028 52.9933 14.1841 54.244 13.6801C55.5133 13.1575 56.8947 12.8961 58.388 12.8961C59.8627 12.8961 61.2253 13.1575 62.476 13.6801C63.7453 14.1841 64.8467 14.9028 65.78 15.8361C66.732 16.7508 67.4693 17.8335 67.992 19.0841C68.5147 20.3161 68.776 21.6601 68.776 23.1161C68.776 24.5535 68.5147 25.8975 67.992 27.1481C67.4693 28.3801 66.7413 29.4628 65.808 30.3961C64.8747 31.3108 63.7733 32.0295 62.504 32.5521C61.2533 33.0748 59.9 33.3361 58.444 33.3361ZM58.388 29.3321C59.564 29.3321 60.5907 29.0708 61.468 28.5481C62.364 28.0255 63.0547 27.2975 63.54 26.3641C64.0253 25.4121 64.268 24.3201 64.268 23.0881C64.268 22.1548 64.128 21.3148 63.848 20.5681C63.568 19.8028 63.1667 19.1495 62.644 18.6081C62.1213 18.0481 61.496 17.6281 60.768 17.3481C60.0587 17.0495 59.2653 16.9001 58.388 16.9001C57.212 16.9001 56.176 17.1615 55.28 17.6841C54.4027 18.1881 53.7213 18.9068 53.236 19.8401C52.7507 20.7548 52.508 21.8375 52.508 23.0881C52.508 24.0215 52.648 24.8708 52.928 25.6361C53.208 26.4015 53.6 27.0641 54.104 27.6241C54.6267 28.1655 55.252 28.5855 55.98 28.8841C56.708 29.1828 57.5107 29.3321 58.388 29.3321Z" fill="white"/>
<path d="M70.6146 33.0001V12.6721H74.8986V33.0001H70.6146Z" fill="white"/>
<path d="M77.3554 33.0001V12.6721H81.6394V33.0001H77.3554Z" fill="white"/>
<path d="M84.0962 33.0001V19.3921H88.3802V33.0001H84.0962ZM86.2522 17.5161C85.5802 17.5161 85.0202 17.2921 84.5722 16.8441C84.1428 16.3775 83.9282 15.8175 83.9282 15.1641C83.9282 14.4921 84.1428 13.9321 84.5722 13.4841C85.0202 13.0361 85.5802 12.8121 86.2522 12.8121C86.9242 12.8121 87.4748 13.0361 87.9042 13.4841C88.3335 13.9321 88.5482 14.4921 88.5482 15.1641C88.5482 15.8175 88.3335 16.3775 87.9042 16.8441C87.4748 17.2921 86.9242 17.5161 86.2522 17.5161Z" fill="white"/>
<path d="M97.3889 33.3081C95.9889 33.3081 94.7196 33.0001 93.5809 32.3841C92.4609 31.7495 91.5743 30.8908 90.9209 29.8081C90.2676 28.7255 89.9409 27.5121 89.9409 26.1681C89.9409 24.8241 90.2676 23.6201 90.9209 22.5561C91.5743 21.4921 92.4609 20.6521 93.5809 20.0361C94.7009 19.4015 95.9703 19.0841 97.3889 19.0841C98.8076 19.0841 100.077 19.3921 101.197 20.0081C102.317 20.6241 103.204 21.4735 103.857 22.5561C104.51 23.6201 104.837 24.8241 104.837 26.1681C104.837 27.5121 104.51 28.7255 103.857 29.8081C103.204 30.8908 102.317 31.7495 101.197 32.3841C100.077 33.0001 98.8076 33.3081 97.3889 33.3081ZM97.3889 29.4161C98.0049 29.4161 98.5463 29.2855 99.0129 29.0241C99.4796 28.7441 99.8343 28.3615 100.077 27.8761C100.338 27.3721 100.469 26.8028 100.469 26.1681C100.469 25.5335 100.338 24.9828 100.077 24.5161C99.8156 24.0308 99.4516 23.6575 98.9849 23.3961C98.5369 23.1161 98.0049 22.9761 97.3889 22.9761C96.7916 22.9761 96.2596 23.1161 95.7929 23.3961C95.3263 23.6575 94.9623 24.0308 94.7009 24.5161C94.4396 25.0015 94.3089 25.5615 94.3089 26.1961C94.3089 26.8121 94.4396 27.3721 94.7009 27.8761C94.9623 28.3615 95.3263 28.7441 95.7929 29.0241C96.2596 29.2855 96.7916 29.4161 97.3889 29.4161Z" fill="white"/>
</svg>
