<svg width="166" height="48" viewBox="0 0 166 48" fill="none" xmlns="http://www.w3.org/2000/svg">
<path d="M9 23C9 17.4772 13.4772 13 19 13C24.5229 13 29 17.4772 29 23L38 23C38 12.5066 29.4934 4 19 4C8.50659 4 9.17363e-07 12.5066 0 23C-9.17363e-07 33.4934 8.50659 42 19 42L19 33C13.4772 33 9 28.5229 9 23Z" fill="white"/>
<path opacity="0.5" d="M29 23C29 28.5228 33.4772 33 39 33V42C28.5066 42 20 33.4934 20 23H29Z" fill="white"/>
<path d="M156.663 20.2871C156.257 20.9423 156.054 21.8003 156.054 22.8299V23.9999H165.399V21.3635H159.486C159.486 21.1139 159.564 20.9111 159.736 20.7239C159.908 20.5367 160.126 20.3807 160.407 20.2403C160.672 20.1155 161.062 19.9439 161.561 19.7411C162.357 19.4291 163.012 19.1171 163.527 18.8207C164.026 18.5399 164.478 18.1187 164.853 17.5727C165.227 17.0267 165.414 16.3403 165.414 15.4979C165.414 14.1875 165.009 13.1891 164.198 12.4871C163.386 11.7851 162.248 11.4263 160.781 11.4263C159.268 11.4263 158.082 11.8007 157.24 12.5339C156.382 13.2827 155.961 14.3123 155.961 15.6227C155.961 15.7475 155.961 15.9191 155.992 16.1687H158.769C158.738 15.9815 158.738 15.8567 158.738 15.7631C158.738 15.2327 158.909 14.8115 159.268 14.4995C159.611 14.2031 160.11 14.0471 160.734 14.0471C161.312 14.0471 161.78 14.2031 162.123 14.5151C162.466 14.8271 162.638 15.2171 162.638 15.6539C162.638 15.9971 162.528 16.2935 162.326 16.5431C162.123 16.7927 161.858 16.9955 161.546 17.1515C161.234 17.3231 160.797 17.5259 160.235 17.7443C159.362 18.1187 158.66 18.4619 158.098 18.8051C157.536 19.1483 157.068 19.6319 156.663 20.2871Z" fill="white"/>
<path fill-rule="evenodd" clip-rule="evenodd" d="M61.2407 31.9594L62.678 33.3899L64.836 31.2059L63.4291 29.799C63.654 29.4698 63.8587 29.1198 64.043 28.7489C64.7797 27.2842 65.148 25.5812 65.148 23.6399C65.148 21.6985 64.7797 19.9955 64.043 18.5309C63.315 17.0662 62.2707 15.9265 60.91 15.1119C59.558 14.2972 57.946 13.8899 56.074 13.8899C54.202 13.8899 52.5857 14.2972 51.225 15.1119C49.873 15.9265 48.8287 17.0662 48.092 18.5309C47.364 19.9955 47 21.6985 47 23.6399C47 25.5812 47.364 27.2842 48.092 28.7489C48.8287 30.2135 49.873 31.3532 51.225 32.1679C52.5857 32.9825 54.202 33.3899 56.074 33.3899C57.946 33.3899 59.558 32.9825 60.91 32.1679C61.0224 32.1006 61.1326 32.0311 61.2407 31.9594ZM60.7681 27.138L59.402 25.7719L57.218 27.9559L58.7437 29.4743C58.008 29.8813 57.118 30.0771 56.074 30.0619C54.8867 30.0445 53.8987 29.7715 53.11 29.2429C52.3213 28.7142 51.7277 27.9732 51.329 27.0199C50.939 26.0665 50.744 24.9399 50.744 23.6399C50.744 22.3399 50.939 21.2045 51.329 20.2339C51.7277 19.2632 52.3213 18.5135 53.11 17.9849C53.8987 17.4562 54.8867 17.2005 56.074 17.2179C57.2613 17.2352 58.2493 17.5082 59.038 18.0369C59.8267 18.5655 60.416 19.3065 60.806 20.2599C61.2047 21.2132 61.404 22.3399 61.404 23.6399C61.404 24.9399 61.2047 26.0752 60.806 27.0459C60.7936 27.0768 60.7809 27.1075 60.7681 27.138Z" fill="white"/>
<path d="M68.7181 32.8569C69.4115 33.2295 70.3085 33.4159 71.4091 33.4159C72.7871 33.4159 73.9268 33.1169 74.8281 32.5189C75.2559 32.2378 75.6329 31.9155 75.9591 31.5521V32.9999H79.0791V18.9599H75.5171V26.0839C75.5171 26.9505 75.4175 27.6525 75.2181 28.1899C75.0275 28.7185 74.7805 29.1215 74.4771 29.3989C74.1738 29.6675 73.8488 29.8495 73.5021 29.9449C73.1555 30.0402 72.8305 30.0879 72.5271 30.0879C71.7731 30.0879 71.1881 29.9189 70.7721 29.5809C70.3648 29.2429 70.0701 28.8225 69.8881 28.3199C69.7061 27.8172 69.5978 27.3189 69.5631 26.8249C69.5285 26.3222 69.5111 25.9105 69.5111 25.5899V18.9599H65.9231V26.8379C65.9231 27.0719 65.9405 27.4445 65.9751 27.9559C66.0098 28.4672 66.1095 29.0349 66.2741 29.6589C66.4388 30.2742 66.7118 30.8679 67.0931 31.4399C67.4831 32.0119 68.0248 32.4842 68.7181 32.8569Z" fill="white"/>
<path fill-rule="evenodd" clip-rule="evenodd" d="M85.0524 33.3899C84.0471 33.3899 83.1934 33.1992 82.4914 32.8179C81.7981 32.4279 81.2694 31.9122 80.9054 31.2709C80.5501 30.6209 80.3724 29.9059 80.3724 29.1259C80.3724 28.4759 80.4721 27.8822 80.6714 27.3449C80.8708 26.8075 81.1914 26.3352 81.6334 25.9279C82.0841 25.5119 82.6864 25.1652 83.4404 24.8879C83.9604 24.6972 84.5801 24.5282 85.2994 24.3809C86.0188 24.2335 86.8334 24.0949 87.7434 23.9649C88.279 23.8833 88.8462 23.7971 89.4449 23.7065C89.3776 23.1277 89.1875 22.6851 88.8744 22.3789C88.4758 21.9889 87.8084 21.7939 86.8724 21.7939C86.3524 21.7939 85.8108 21.9195 85.2474 22.1709C84.6841 22.4222 84.2898 22.8685 84.0644 23.5099L80.8664 22.4959C81.2218 21.3345 81.8891 20.3899 82.8684 19.6619C83.8478 18.9339 85.1824 18.5699 86.8724 18.5699C88.1118 18.5699 89.2124 18.7605 90.1744 19.1419C91.1364 19.5232 91.8644 20.1819 92.3584 21.1179C92.6358 21.6379 92.8004 22.1579 92.8524 22.6779C92.9044 23.1979 92.9304 23.7785 92.9304 24.4199V32.9999H89.8364V31.2764C89.2778 31.9345 88.6841 32.431 88.0554 32.7659C87.2668 33.1819 86.2658 33.3899 85.0524 33.3899ZM85.8064 30.6079C86.4564 30.6079 87.0024 30.4952 87.4444 30.2699C87.8951 30.0359 88.2504 29.7715 88.5104 29.4769C88.7791 29.1822 88.9611 28.9352 89.0564 28.7359C89.2384 28.3545 89.3424 27.9125 89.3684 27.4099C89.3895 27.0983 89.4042 26.8189 89.4125 26.5717C88.8301 26.6712 88.3301 26.7599 87.9124 26.8379C87.2624 26.9505 86.7381 27.0545 86.3394 27.1499C85.9408 27.2452 85.5898 27.3492 85.2864 27.4619C84.9398 27.6005 84.6581 27.7522 84.4414 27.9169C84.2334 28.0729 84.0774 28.2462 83.9734 28.4369C83.8781 28.6275 83.8304 28.8399 83.8304 29.0739C83.8304 29.3945 83.9084 29.6719 84.0644 29.9059C84.2291 30.1312 84.4588 30.3045 84.7534 30.4259C85.0481 30.5472 85.3991 30.6079 85.8064 30.6079Z" fill="white"/>
<path d="M104.267 25.1479C104.301 25.6419 104.319 26.0492 104.319 26.3699V32.9999H107.907V25.1219C107.907 24.8879 107.889 24.5152 107.855 24.0039C107.82 23.4925 107.72 22.9292 107.556 22.3139C107.391 21.6899 107.114 21.0919 106.724 20.5199C106.342 19.9479 105.805 19.4755 105.112 19.1029C104.418 18.7302 103.521 18.5439 102.421 18.5439C101.043 18.5439 99.8986 18.8429 98.9886 19.4409C98.5665 19.7209 98.1939 20.0418 97.8706 20.4036V18.9599H94.7246V32.9999H98.3126V25.8759C98.3126 25.0005 98.408 24.2985 98.5986 23.7699C98.798 23.2412 99.0493 22.8425 99.3526 22.5739C99.656 22.2965 99.981 22.1102 100.328 22.0149C100.674 21.9195 100.999 21.8719 101.303 21.8719C102.057 21.8719 102.637 22.0409 103.045 22.3789C103.461 22.7169 103.76 23.1372 103.942 23.6399C104.124 24.1425 104.232 24.6452 104.267 25.1479Z" fill="white"/>
<path d="M118.144 32.9999C117.173 33.1819 116.22 33.2599 115.284 33.2339C114.357 33.2165 113.525 33.0562 112.788 32.7529C112.06 32.4409 111.505 31.9425 111.124 31.2579C110.777 30.6165 110.595 29.9665 110.578 29.3079C110.561 28.6405 110.552 27.8865 110.552 27.0459V21.6899H108.16V18.9599H110.552V15.0599H114.088V18.9599H118.144V21.6899H114.088V26.8379C114.088 27.3839 114.092 27.8779 114.101 28.3199C114.118 28.7532 114.209 29.0999 114.374 29.3599C114.686 29.8539 115.184 30.1225 115.869 30.1659C116.554 30.2092 117.312 30.1745 118.144 30.0619V32.9999Z" fill="white"/>
<path d="M122.248 32.8569C122.941 33.2295 123.838 33.4159 124.939 33.4159C126.317 33.4159 127.456 33.1169 128.358 32.5189C128.785 32.2378 129.162 31.9155 129.489 31.5521V32.9999H132.609V18.9599H129.047V26.0839C129.047 26.9505 128.947 27.6525 128.748 28.1899C128.557 28.7185 128.31 29.1215 128.007 29.3989C127.703 29.6675 127.378 29.8495 127.032 29.9449C126.685 30.0402 126.36 30.0879 126.057 30.0879C125.303 30.0879 124.718 29.9189 124.302 29.5809C123.894 29.2429 123.6 28.8225 123.418 28.3199C123.236 27.8172 123.127 27.3189 123.093 26.8249C123.058 26.3222 123.041 25.9105 123.041 25.5899V18.9599H119.453V26.8379C119.453 27.0719 119.47 27.4445 119.505 27.9559C119.539 28.4672 119.639 29.0349 119.804 29.6589C119.968 30.2742 120.241 30.8679 120.623 31.4399C121.013 32.0119 121.554 32.4842 122.248 32.8569Z" fill="white"/>
<path d="M153.883 20.0519C154.706 20.9965 155.118 22.2359 155.118 23.7699V32.9999H151.582V24.7059C151.582 23.7785 151.361 23.0592 150.919 22.5479C150.486 22.0279 149.883 21.7679 149.112 21.7679C148.618 21.7679 148.189 21.8849 147.825 22.1189C147.461 22.3442 147.175 22.6649 146.967 23.0809C146.768 23.4882 146.668 23.9605 146.668 24.4979V32.9999H143.132V24.7059C143.132 23.7785 142.911 23.0592 142.469 22.5479C142.036 22.0279 141.433 21.7679 140.662 21.7679C139.925 21.7679 139.332 22.0235 138.881 22.5349C138.439 23.0375 138.218 23.6919 138.218 24.4979V32.9999H134.656V18.9599H137.776V20.4981C138.183 19.9965 138.682 19.5834 139.271 19.2589C140.051 18.8342 140.922 18.6219 141.884 18.6219C142.985 18.6219 143.886 18.8559 144.588 19.3239C145.174 19.71 145.634 20.2024 145.966 20.8009C146.413 20.1414 146.989 19.623 147.695 19.2459C148.466 18.8299 149.32 18.6219 150.256 18.6219C151.859 18.6219 153.068 19.0985 153.883 20.0519Z" fill="white"/>
</svg>
