<svg width="152" height="48" viewBox="0 0 152 48" fill="none" xmlns="http://www.w3.org/2000/svg">
<path d="M10 24C10 18.4772 14.4772 14 20 14C25.5229 14 30 18.4772 30 24L40 24C40 12.9543 31.0457 4 20 4C8.95431 4 9.65645e-07 12.9543 0 24C-9.65645e-07 35.0457 8.9543 44 20 44L20 34C14.4772 34 10 29.5229 10 24Z" fill="white"/>
<path opacity="0.5" d="M20 24H30V34H20V24Z" fill="white"/>
<path d="M37.3244 34H30V41.3244C33.0363 39.568 35.568 37.0363 37.3244 34Z" fill="white"/>
<path d="M87.1982 17.6001C86.4482 17.6001 85.8316 17.3834 85.3482 16.9501C84.8816 16.5001 84.6482 15.9501 84.6482 15.3001C84.6482 14.6334 84.8816 14.0834 85.3482 13.6501C85.8316 13.2001 86.4482 12.9751 87.1982 12.9751C87.9316 12.9751 88.5316 13.2001 88.9982 13.6501C89.4816 14.0834 89.7232 14.6334 89.7232 15.3001C89.7232 15.9501 89.4816 16.5001 88.9982 16.9501C88.5316 17.3834 87.9316 17.6001 87.1982 17.6001Z" fill="white"/>
<path d="M89.3232 19.0501V33.0001H85.0482V19.0501H89.3232Z" fill="white"/>
<path fill-rule="evenodd" clip-rule="evenodd" d="M56.7994 33.1215C55.5507 32.9918 54.384 32.6263 53.2992 32.0251C51.9326 31.2584 50.8409 30.1918 50.0242 28.8251C49.2242 27.4418 48.8242 25.8918 48.8242 24.1751C48.8242 22.4584 49.2242 20.9168 50.0242 19.5501C50.8409 18.1834 51.9326 17.1168 53.2992 16.3501C54.6826 15.5834 56.1992 15.2001 57.8492 15.2001C59.4992 15.2001 61.0076 15.5834 62.3742 16.3501C63.7576 17.1168 64.8409 18.1834 65.6242 19.5501C66.4242 20.9168 66.8242 22.4584 66.8242 24.1751C66.8242 25.8918 66.4242 27.4418 65.6242 28.8251C64.8242 30.1918 63.7409 31.2584 62.3742 32.0251C61.5415 32.4923 60.6561 32.8171 59.7181 32.9996C59.7812 33.4359 59.9168 33.7907 60.125 34.0638C60.4236 34.4745 60.825 34.7545 61.329 34.9038C61.833 35.0718 62.4023 35.1558 63.037 35.1558C63.8396 35.1558 64.5116 35.0718 65.053 34.9038C65.613 34.7358 66.0703 34.5025 66.425 34.2038L67.153 37.5358C66.6676 37.9092 66.0423 38.1892 65.277 38.3758C64.5116 38.5812 63.7556 38.6838 63.009 38.6838C61.777 38.6838 60.6943 38.4785 59.761 38.0678C58.8276 37.6572 58.0996 37.0598 57.577 36.2758C57.0543 35.4918 56.793 34.5212 56.793 33.3638C56.793 33.2839 56.7951 33.2031 56.7994 33.1215ZM61.1992 27.8751C60.3659 28.8084 59.2492 29.2751 57.8492 29.2751C56.4326 29.2751 55.2992 28.8168 54.4492 27.9001C53.6159 26.9668 53.1992 25.7251 53.1992 24.1751C53.1992 22.6084 53.6159 21.3668 54.4492 20.4501C55.2992 19.5334 56.4326 19.0751 57.8492 19.0751C59.2492 19.0751 60.3659 19.5418 61.1992 20.4751C62.0492 21.3918 62.4742 22.6251 62.4742 24.1751C62.4742 25.7084 62.0492 26.9418 61.1992 27.8751Z" fill="white"/>
<path d="M82.4775 33.0001V19.0501H78.2025V26.6251C78.2025 27.5584 77.9609 28.2834 77.4775 28.8001C76.9942 29.3168 76.3359 29.5751 75.5025 29.5751C74.6859 29.5751 74.0359 29.3168 73.5525 28.8001C73.0692 28.2834 72.8275 27.5584 72.8275 26.6251V19.0501H68.5775V27.2001C68.5775 28.4168 68.8025 29.4751 69.2525 30.3751C69.7025 31.2751 70.3359 31.9668 71.1525 32.4501C71.9692 32.9168 72.9109 33.1501 73.9775 33.1501C74.8775 33.1501 75.6942 32.9668 76.4275 32.6001C77.1775 32.2168 77.7692 31.7168 78.2025 31.1001V33.0001H82.4775Z" fill="white"/>
<path d="M97.4963 29.1251L100.171 33.0001H104.971L100.171 26.0751L104.846 19.0501H100.221L97.9713 22.9001L95.2963 19.0501H90.4963L95.2213 25.8751L90.6213 33.0001H95.2463L97.4963 29.1251Z" fill="white"/>
<path fill-rule="evenodd" clip-rule="evenodd" d="M112.469 33.2001C111.102 33.2001 109.869 32.9084 108.769 32.3251C107.685 31.7418 106.827 30.9084 106.194 29.8251C105.577 28.7418 105.269 27.4751 105.269 26.0251C105.269 24.5918 105.585 23.3334 106.219 22.2501C106.852 21.1501 107.719 20.3084 108.819 19.7251C109.919 19.1418 111.152 18.8501 112.519 18.8501C113.885 18.8501 115.119 19.1418 116.219 19.7251C117.319 20.3084 118.185 21.1501 118.819 22.2501C119.452 23.3334 119.769 24.5918 119.769 26.0251C119.769 27.4584 119.444 28.7251 118.794 29.8251C118.16 30.9084 117.285 31.7418 116.169 32.3251C115.069 32.9084 113.835 33.2001 112.469 33.2001ZM112.469 29.5001C113.285 29.5001 113.977 29.2001 114.544 28.6001C115.127 28.0001 115.419 27.1418 115.419 26.0251C115.419 24.9084 115.135 24.0501 114.569 23.4501C114.019 22.8501 113.335 22.5501 112.519 22.5501C111.685 22.5501 110.994 22.8501 110.444 23.4501C109.894 24.0334 109.619 24.8918 109.619 26.0251C109.619 27.1418 109.885 28.0001 110.419 28.6001C110.969 29.2001 111.652 29.5001 112.469 29.5001Z" fill="white"/>
<path d="M129.312 33.0001V29.3751H127.787C127.32 29.3751 126.987 29.2834 126.787 29.1001C126.587 28.9168 126.487 28.6168 126.487 28.2001V22.6001H129.287V19.0501H126.487V15.6501H122.212V19.0501H120.512V22.6001H122.212V28.1501C122.212 29.8668 122.645 31.1084 123.512 31.8751C124.378 32.6251 125.587 33.0001 127.137 33.0001H129.312Z" fill="white"/>
<path d="M133.343 17.6001C132.593 17.6001 131.976 17.3834 131.493 16.9501C131.026 16.5001 130.793 15.9501 130.793 15.3001C130.793 14.6334 131.026 14.0834 131.493 13.6501C131.976 13.2001 132.593 12.9751 133.343 12.9751C134.076 12.9751 134.676 13.2001 135.143 13.6501C135.626 14.0834 135.868 14.6334 135.868 15.3001C135.868 15.9501 135.626 16.5001 135.143 16.9501C134.676 17.3834 134.076 17.6001 133.343 17.6001Z" fill="white"/>
<path d="M135.468 33.0001H131.193V19.0501H135.468V33.0001Z" fill="white"/>
<path d="M138.091 22.2251C137.507 23.3084 137.216 24.5751 137.216 26.0251C137.216 27.4751 137.507 28.7418 138.091 29.8251C138.691 30.9084 139.516 31.7418 140.566 32.3251C141.632 32.9084 142.849 33.2001 144.216 33.2001C145.949 33.2001 147.407 32.7334 148.591 31.8001C149.774 30.8668 150.549 29.5834 150.916 27.9501H146.366C145.982 29.0168 145.241 29.5501 144.141 29.5501C143.357 29.5501 142.732 29.2501 142.266 28.6501C141.799 28.0334 141.566 27.1584 141.566 26.0251C141.566 24.8918 141.799 24.0251 142.266 23.4251C142.732 22.8084 143.357 22.5001 144.141 22.5001C145.241 22.5001 145.982 23.0334 146.366 24.1001H150.916C150.549 22.4334 149.774 21.1418 148.591 20.2251C147.424 19.3084 145.966 18.8501 144.216 18.8501C142.849 18.8501 141.632 19.1418 140.566 19.7251C139.516 20.3084 138.691 21.1418 138.091 22.2251Z" fill="white"/>
</svg>
