<svg width="132" height="48" viewBox="0 0 132 48" fill="none" xmlns="http://www.w3.org/2000/svg">
<path fill-rule="evenodd" clip-rule="evenodd" d="M18.5 19V4L21.5 4V19H18.5Z" fill="white"/>
<path fill-rule="evenodd" clip-rule="evenodd" d="M18.5 44V29H21.5V44H18.5Z" fill="white"/>
<path fill-rule="evenodd" clip-rule="evenodd" d="M22.4754 19.404L33.082 8.79736L35.2034 10.9187L26.7181 19.404L22.4754 19.404Z" fill="white"/>
<path fill-rule="evenodd" clip-rule="evenodd" d="M4.79776 37.0816L15.4044 26.475L17.5257 28.5964L6.91908 39.203L4.79776 37.0816Z" fill="white"/>
<path fill-rule="evenodd" clip-rule="evenodd" d="M26.7178 28.5963L35.2031 37.0815L33.0818 39.2029L22.4752 28.5963H26.7178Z" fill="white"/>
<path fill-rule="evenodd" clip-rule="evenodd" d="M6.91885 8.79727L17.5255 19.4039L15.4041 21.5252L4.79753 10.9186L6.91885 8.79727Z" fill="white"/>
<path fill-rule="evenodd" clip-rule="evenodd" d="M18.5 22.5L40 22.5V25.5L18.5 25.5V22.5Z" fill="white"/>
<path fill-rule="evenodd" clip-rule="evenodd" d="M2.62269e-07 22.5L15 22.5V25.5L0 25.5L2.62269e-07 22.5Z" fill="white"/>
<path d="M65.93 32.8111V33.0001H61.286C61.043 31.7311 60.827 30.2731 60.611 28.5181C60.368 26.3311 59.693 25.6831 57.128 25.6831H53.969V33.0001H50V13.2901H57.29C58.397 13.2901 59.207 13.3171 60.179 13.4251C62.96 13.7491 65.363 15.1531 65.363 18.8521C65.363 21.3361 64.04 22.9561 61.907 23.8201C63.5 24.4411 64.418 25.6291 64.634 27.6271C64.85 29.6521 65.039 30.7591 65.363 32.1091L65.93 32.8111ZM53.969 22.3081H57.371C59.693 22.3081 61.313 21.6871 61.313 19.5001C61.313 17.5021 60.233 16.6921 57.506 16.6921H53.969V22.3081Z" fill="white"/>
<path d="M73.5299 18.3661C77.7419 18.3661 79.3079 20.1751 79.4969 22.6861C79.5509 23.4151 79.5779 24.0901 79.5779 24.9001V33.0001H76.0949L75.8789 31.1101C75.2309 33.0271 73.5299 33.3781 71.4239 33.3781C68.8049 33.3781 66.7529 31.8931 66.7529 29.1121C66.7529 25.5481 69.4799 24.2521 74.9879 24.2521H75.7709V23.7391C75.7709 22.3351 75.3119 21.4441 73.3679 21.4441C71.6669 21.4441 70.9109 22.0381 70.7489 23.3611H67.2119C67.3199 20.2831 69.2099 18.3661 73.5299 18.3661ZM70.5059 28.6531C70.5059 29.7061 71.3429 30.3001 72.6659 30.3001C74.1779 30.3001 75.7709 29.4361 75.7709 28.0321V26.8981C72.3689 26.7361 70.5059 27.0871 70.5059 28.6531Z" fill="white"/>
<path d="M95.7926 13.2901V33.0001H92.2556L92.0126 30.7051C91.3376 32.8381 89.5286 33.3781 87.3686 33.3781C83.0486 33.3781 81.1586 30.4891 81.1586 25.9261C81.1586 20.9581 83.5076 18.3661 87.5846 18.3661C89.3936 18.3661 91.1216 18.7981 91.9316 20.4991V13.2901H95.7926ZM85.3706 25.9531C85.3706 28.4641 86.3426 30.2461 88.6646 30.2461C90.5816 30.2461 91.9316 29.1661 91.9316 26.0071V25.4941C91.9316 22.3891 90.3116 21.4711 88.7456 21.4711C86.4506 21.4711 85.3706 23.1181 85.3706 25.9531Z" fill="white"/>
<path d="M102.129 18.7441V33.0001H98.2678V18.7441H102.129ZM98.0788 14.2891C98.0788 13.1281 99.0238 12.1831 100.185 12.1831C101.373 12.1831 102.318 13.1281 102.318 14.2891C102.318 15.4771 101.373 16.3951 100.185 16.3951C99.0238 16.3951 98.0788 15.4771 98.0788 14.2891Z" fill="white"/>
<path d="M109.355 33.3781C106.466 33.3781 104.765 32.1631 104.441 29.5441C104.333 28.8151 104.306 28.1401 104.306 26.9791V18.7441H108.167V27.1681C108.167 29.0311 108.734 30.2461 110.759 30.2461C112.514 30.2461 113.729 29.0581 113.729 26.4121V18.7441H117.59V33.0001H114.053L113.918 30.8131C113.297 32.8111 111.704 33.3781 109.355 33.3781Z" fill="white"/>
<path d="M125.356 18.3661C129.406 18.3661 131.134 19.9321 131.323 22.9291H127.597C127.408 21.6061 126.517 21.2821 125.275 21.2821C124.141 21.2821 123.277 21.7141 123.277 22.5241C123.277 23.3881 123.979 23.8741 126.193 24.2251C129.946 24.7921 131.755 26.0881 131.755 28.8961C131.755 31.9201 129.001 33.3781 125.572 33.3781C121.522 33.3781 119.443 31.9471 119.065 28.7071H122.845C123.088 30.0031 123.898 30.4351 125.68 30.4351C127.084 30.4351 127.921 29.9761 127.921 29.2201C127.921 28.2751 126.949 27.7351 124.843 27.4111C121.063 26.7901 119.443 25.6561 119.443 22.7671C119.443 20.1481 121.765 18.3661 125.356 18.3661Z" fill="white"/>
</svg>
