<svg width="170" height="48" viewBox="0 0 170 48" fill="none" xmlns="http://www.w3.org/2000/svg">
<path d="M0 7.5H28.8C31.3202 7.5 32.5804 7.5 33.543 7.99047C34.3897 8.4219 35.0781 9.11031 35.5095 9.95704C36 10.9196 36 12.1798 36 14.7V16.5H7.2C4.67976 16.5 3.41965 16.5 2.45704 16.0095C1.61031 15.5781 0.921901 14.8897 0.490471 14.043C0 13.0804 0 11.8202 0 9.3V7.5Z" fill="white"/>
<path d="M0 28.5H28.8C31.3202 28.5 32.5804 28.5 33.543 28.0095C34.3897 27.5781 35.0781 26.8897 35.5095 26.043C36 25.0804 36 23.8202 36 21.3V19.5H7.2C4.67976 19.5 3.41965 19.5 2.45704 19.9905C1.61031 20.4219 0.921901 21.1103 0.490471 21.957C0 22.9196 0 24.1798 0 26.7V28.5Z" fill="white"/>
<path d="M14 31.5H28.8C31.3202 31.5 32.5804 31.5 33.543 31.9905C34.3897 32.4219 35.0781 33.1103 35.5095 33.957C36 34.9196 36 36.1798 36 38.7V40.5H21.2C18.6798 40.5 17.4196 40.5 16.457 40.0095C15.6103 39.5781 14.9219 38.8897 14.4905 38.043C14 37.0804 14 35.8202 14 33.3V31.5Z" fill="white"/>
<path d="M46 32.9999V13.3169H55.828C57.106 13.3169 58.258 13.4969 59.284 13.8569C60.31 14.1989 61.129 14.7839 61.741 15.6119C62.353 16.4219 62.659 17.5469 62.659 18.9869C62.659 20.2829 62.326 21.3449 61.66 22.1729C61.012 22.9829 60.13 23.4869 59.014 23.6849V23.9009C61.264 24.0989 62.389 25.3859 62.389 27.7619V32.9999H57.907V28.4099C57.907 27.4559 57.682 26.7989 57.232 26.4389C56.8 26.0609 56.179 25.8719 55.369 25.8719H50.428V32.9999H46ZM54.856 17.0429H50.428V22.3889H54.937C55.945 22.3889 56.692 22.1999 57.178 21.8219C57.664 21.4259 57.907 20.8859 57.907 20.2019V19.3379C57.907 18.5099 57.637 17.9249 57.097 17.5829C56.557 17.2229 55.81 17.0429 54.856 17.0429Z" fill="white"/>
<path d="M68.6851 33.2699C67.3531 33.2699 66.2731 32.9189 65.4451 32.2169C64.6171 31.4969 64.2031 30.5429 64.2031 29.3549V29.3009C64.2031 27.9149 64.6441 26.8439 65.5261 26.0879C66.4081 25.3319 67.5961 24.8639 69.0901 24.6839L73.1401 24.1439V23.5769C73.1401 22.2089 72.3121 21.5249 70.6561 21.5249C69.8641 21.5249 69.2341 21.6779 68.7661 21.9839C68.3161 22.2899 68.0911 22.7309 68.0911 23.3069H64.3381C64.3381 21.7049 64.9231 20.4629 66.0931 19.5809C67.2631 18.6809 68.9101 18.2309 71.0341 18.2309C72.9781 18.2309 74.4991 18.6449 75.5971 19.4729C76.7131 20.3009 77.2711 21.6149 77.2711 23.4149V30.0839H79.1611V32.9999H74.1931L73.8691 30.7589H73.5721C73.2121 31.5509 72.6091 32.1719 71.7631 32.6219C70.9351 33.0539 69.9091 33.2699 68.6851 33.2699ZM70.4671 30.2999C71.1871 30.2999 71.7901 30.1289 72.2761 29.7869C72.7801 29.4269 73.0681 28.9679 73.1401 28.4099V26.4659L70.4131 26.8709C69.8011 26.9429 69.3061 27.1049 68.9281 27.3569C68.5501 27.5909 68.3611 27.9509 68.3611 28.4369V28.7879C68.3611 29.2379 68.5411 29.6069 68.9011 29.8949C69.2791 30.1649 69.8011 30.2999 70.4671 30.2999Z" fill="white"/>
<path d="M81.0348 32.9999V18.5009H85.1928V32.9999H81.0348ZM81.0348 16.6649V13.3169H85.1928V16.6649H81.0348Z" fill="white"/>
<path d="M88.4313 32.9999V13.3169H92.5893V32.9999H88.4313Z" fill="white"/>
<path d="M101.147 33.2699C99.0769 33.2699 97.4929 32.8199 96.3949 31.9199C95.3149 31.0199 94.7839 29.8499 94.8019 28.4099H98.7709C98.8069 29.1299 99.0499 29.6429 99.4999 29.9489C99.9679 30.2549 100.562 30.4079 101.282 30.4079C102.002 30.4079 102.515 30.2729 102.821 30.0029C103.145 29.7149 103.307 29.3729 103.307 28.9769C103.307 28.3469 103.082 27.9329 102.632 27.7349C102.182 27.5189 101.48 27.3389 100.526 27.1949C99.6619 27.0689 98.8159 26.8709 97.9879 26.6009C97.1599 26.3309 96.4759 25.9079 95.9359 25.3319C95.4139 24.7379 95.1529 23.9279 95.1529 22.9019C95.1529 21.8939 95.4049 21.0479 95.9089 20.3639C96.4309 19.6619 97.1419 19.1309 98.0419 18.7709C98.9419 18.4109 99.9769 18.2309 101.147 18.2309C102.929 18.2309 104.369 18.6269 105.467 19.4189C106.583 20.2109 107.159 21.3269 107.195 22.7669L103.28 22.7399C103.28 22.1819 103.082 21.7589 102.686 21.4709C102.308 21.1649 101.795 21.0119 101.147 21.0119C100.517 21.0119 100.04 21.1379 99.7159 21.3899C99.3919 21.6419 99.2299 21.9749 99.2299 22.3889C99.2299 22.9649 99.4909 23.3429 100.013 23.5229C100.553 23.7029 101.228 23.8559 102.038 23.9819C102.722 24.0719 103.388 24.1979 104.036 24.3599C104.684 24.5039 105.269 24.7379 105.791 25.0619C106.331 25.3859 106.754 25.8359 107.06 26.4119C107.366 26.9699 107.519 27.7079 107.519 28.6259C107.519 30.0479 106.961 31.1819 105.845 32.0279C104.747 32.8559 103.181 33.2699 101.147 33.2699Z" fill="white"/>
<path d="M109.922 37.5089V18.5009H113.864L114.08 20.6339H114.269C114.629 19.8779 115.187 19.2929 115.943 18.8789C116.717 18.4469 117.581 18.2309 118.535 18.2309C120.479 18.2309 121.892 18.8879 122.774 20.2019C123.656 21.5159 124.097 23.2709 124.097 25.4669V26.0879C124.097 28.5899 123.593 30.4169 122.585 31.5689C121.595 32.7029 120.245 33.2699 118.535 33.2699C117.599 33.2699 116.744 33.0629 115.97 32.6489C115.196 32.2169 114.629 31.6229 114.269 30.8669H114.08V37.5089H109.922ZM116.861 29.8949C117.761 29.8949 118.454 29.6429 118.94 29.1389C119.426 28.6349 119.669 27.9239 119.669 27.0059V24.5219C119.669 23.6039 119.426 22.8929 118.94 22.3889C118.454 21.8669 117.761 21.6059 116.861 21.6059C116.015 21.6059 115.34 21.8669 114.836 22.3889C114.35 22.9109 114.107 23.6399 114.107 24.5759V26.9519C114.107 27.8879 114.35 28.6169 114.836 29.1389C115.34 29.6429 116.015 29.8949 116.861 29.8949Z" fill="white"/>
<path d="M132.599 33.2699C130.997 33.2699 129.656 32.9639 128.576 32.3519C127.514 31.7219 126.722 30.8489 126.2 29.7329C125.678 28.5989 125.417 27.2849 125.417 25.7909V25.5479C125.417 23.9819 125.705 22.6589 126.281 21.5789C126.857 20.4809 127.658 19.6529 128.684 19.0949C129.728 18.5189 130.925 18.2309 132.275 18.2309C133.751 18.2309 135.002 18.5099 136.028 19.0679C137.072 19.6259 137.864 20.4089 138.404 21.4169C138.944 22.4249 139.214 23.6039 139.214 24.9539V26.7899H129.629V27.5459C129.629 28.3199 129.89 28.9409 130.412 29.4089C130.952 29.8769 131.636 30.1109 132.464 30.1109C133.202 30.1109 133.805 29.9489 134.273 29.6249C134.759 29.3009 135.047 28.8689 135.137 28.3289H139.052C138.998 29.3189 138.692 30.1829 138.134 30.9209C137.576 31.6589 136.82 32.2349 135.866 32.6489C134.912 33.0629 133.823 33.2699 132.599 33.2699ZM129.629 24.0899V24.2249H135.137V24.0899C135.137 23.1179 134.885 22.4159 134.381 21.9839C133.877 21.5339 133.22 21.3089 132.41 21.3089C131.546 21.3089 130.862 21.5519 130.358 22.0379C129.872 22.5059 129.629 23.1899 129.629 24.0899Z" fill="white"/>
<path d="M147.721 33.2699C146.119 33.2699 144.778 32.9639 143.698 32.3519C142.636 31.7219 141.844 30.8489 141.322 29.7329C140.8 28.5989 140.539 27.2849 140.539 25.7909V25.5479C140.539 23.9819 140.827 22.6589 141.403 21.5789C141.979 20.4809 142.78 19.6529 143.806 19.0949C144.85 18.5189 146.047 18.2309 147.397 18.2309C148.873 18.2309 150.124 18.5099 151.15 19.0679C152.194 19.6259 152.986 20.4089 153.526 21.4169C154.066 22.4249 154.336 23.6039 154.336 24.9539V26.7899H144.751V27.5459C144.751 28.3199 145.012 28.9409 145.534 29.4089C146.074 29.8769 146.758 30.1109 147.586 30.1109C148.324 30.1109 148.927 29.9489 149.395 29.6249C149.881 29.3009 150.169 28.8689 150.259 28.3289H154.174C154.12 29.3189 153.814 30.1829 153.256 30.9209C152.698 31.6589 151.942 32.2349 150.988 32.6489C150.034 33.0629 148.945 33.2699 147.721 33.2699ZM144.751 24.0899V24.2249H150.259V24.0899C150.259 23.1179 150.007 22.4159 149.503 21.9839C148.999 21.5339 148.342 21.3089 147.532 21.3089C146.668 21.3089 145.984 21.5519 145.48 22.0379C144.994 22.5059 144.751 23.1899 144.751 24.0899Z" fill="white"/>
<path d="M161.223 33.2699C159.279 33.2699 157.866 32.6129 156.984 31.2989C156.102 29.9849 155.661 28.2299 155.661 26.0339V25.4399C155.661 22.9199 156.156 21.0929 157.146 19.9589C158.154 18.8069 159.504 18.2309 161.196 18.2309C162.15 18.2309 163.005 18.4469 163.761 18.8789C164.535 19.2929 165.102 19.8779 165.462 20.6339H165.651V13.3169H169.809V32.9999H165.867L165.651 30.8669H165.462C165.102 31.6229 164.544 32.2169 163.788 32.6489C163.032 33.0629 162.177 33.2699 161.223 33.2699ZM162.87 29.8949C163.716 29.8949 164.391 29.6339 164.895 29.1119C165.399 28.5899 165.651 27.8609 165.651 26.9249V24.5489C165.651 23.6309 165.399 22.9109 164.895 22.3889C164.391 21.8669 163.716 21.6059 162.87 21.6059C161.988 21.6059 161.304 21.8579 160.818 22.3619C160.332 22.8659 160.089 23.5769 160.089 24.4949V27.0059C160.089 27.9059 160.332 28.6169 160.818 29.1389C161.304 29.6429 161.988 29.8949 162.87 29.8949Z" fill="white"/>
</svg>
