<svg width="196" height="48" viewBox="0 0 196 48" fill="none" xmlns="http://www.w3.org/2000/svg">
<path fill-rule="evenodd" clip-rule="evenodd" d="M12.7018 5C14.5428 5 16.119 6.31967 16.4426 8.13199L16.9074 10.7347C17.231 12.547 18.8072 13.8667 20.6482 13.8667H23.8C28.6969 13.8667 32.6667 17.8364 32.6667 22.7333C32.6667 25.6666 31.2423 28.2672 29.0476 29.8812C29.9676 30.1938 30.6942 30.6902 31.2275 31.3422C31.7765 32.0613 32.1686 33.0833 32.4039 34.3702C32.4431 34.7108 32.4922 35.042 32.5412 35.3732C32.5902 35.7044 32.6392 36.0356 32.6784 36.3762C32.7192 36.73 32.7493 37.0328 32.7744 37.2845C32.7976 37.5175 32.8164 37.7068 32.8353 37.8524C32.9137 38.9122 33.0314 39.7827 33.1882 40.4262C33.3537 41.331 33.6876 42.2129 34.1609 43H27.4627C27.149 42.3944 26.9529 41.6752 26.7961 40.8804C26.6612 40.1968 26.5553 39.3452 26.4285 38.3256C26.4078 38.1597 26.3867 37.9894 26.3647 37.8145L26.1294 36.0734C25.9333 34.7487 25.698 33.8024 25.4627 33.1968C25.1882 32.6291 24.7569 32.2127 24.1686 31.9856C23.5412 31.7585 22.6 31.6 21.2667 31.6H20.9649C19.1239 31.6 17.5477 30.2803 17.2241 28.468L16.7593 25.8653C16.4357 24.053 14.8595 22.7333 13.0185 22.7333H7.33333V32.8667H1V5H12.7018ZM26.3333 22.7333C26.3333 24.1325 25.1991 25.2667 23.8 25.2667H20.6482C18.8072 25.2667 17.231 23.947 16.9074 22.1347L16.4426 19.532C16.119 17.7197 14.5428 16.4 12.7018 16.4H7.33333V11.3333H13.0185C14.8595 11.3333 16.4357 12.653 16.7593 14.4653L17.224 17.068C17.5477 18.8803 19.1239 20.2 20.9649 20.2H23.8C25.1991 20.2 26.3333 21.3342 26.3333 22.7333Z" fill="white"/>
<path d="M58.93 32.8111V33.0001H54.286C54.043 31.7311 53.827 30.2731 53.611 28.5181C53.368 26.3311 52.693 25.6831 50.128 25.6831H46.969V33.0001H43V13.2901H50.29C51.397 13.2901 52.207 13.3171 53.179 13.4251C55.96 13.7491 58.363 15.1531 58.363 18.8521C58.363 21.3361 57.04 22.9561 54.907 23.8201C56.5 24.4411 57.418 25.6291 57.634 27.6271C57.85 29.6521 58.039 30.7591 58.363 32.1091L58.93 32.8111ZM46.969 22.3081H50.371C52.693 22.3081 54.313 21.6871 54.313 19.5001C54.313 17.5021 53.233 16.6921 50.506 16.6921H46.969V22.3081Z" fill="white"/>
<path d="M66.8821 18.3661C71.5531 18.3661 73.5241 21.4171 73.5241 25.6291C73.5241 26.0341 73.4971 26.5741 73.4701 27.0331H63.7231C63.9661 29.4361 65.0461 30.2731 66.8281 30.2731C68.3131 30.2731 69.1501 29.7061 69.5281 28.6531H73.2811C72.7681 31.6501 70.4461 33.3781 66.7471 33.3781C62.1571 33.3781 59.7811 30.8671 59.7811 25.9531C59.7811 21.3091 62.0221 18.3661 66.8821 18.3661ZM63.7501 24.3331H69.6361C69.4201 22.2541 68.3401 21.4441 66.7201 21.4441C65.0191 21.4441 63.9931 22.2001 63.7501 24.3331Z" fill="white"/>
<path d="M83.3838 18.3661C86.3808 18.3661 88.1088 19.5541 88.4598 22.1731C88.5408 22.9021 88.5678 23.5771 88.5678 24.7381V33.0001H84.7068V24.6841C84.7068 22.7941 84.1938 21.5791 82.0608 21.5791C80.3058 21.5251 79.0638 22.7401 79.0638 25.4401V33.0001H75.2028V18.7441H78.7398L78.9018 21.0661C79.3608 18.9601 81.0348 18.3661 83.3838 18.3661Z" fill="white"/>
<path d="M96.7878 18.3661C101 18.3661 102.566 20.1751 102.755 22.6861C102.809 23.4151 102.836 24.0901 102.836 24.9001V33.0001H99.3528L99.1368 31.1101C98.4888 33.0271 96.7878 33.3781 94.6818 33.3781C92.0628 33.3781 90.0108 31.8931 90.0108 29.1121C90.0108 25.5481 92.7378 24.2521 98.2458 24.2521H99.0288V23.7391C99.0288 22.3351 98.5698 21.4441 96.6258 21.4441C94.9248 21.4441 94.1688 22.0381 94.0068 23.3611H90.4698C90.5778 20.2831 92.4678 18.3661 96.7878 18.3661ZM93.7638 28.6531C93.7638 29.7061 94.6008 30.3001 95.9238 30.3001C97.4358 30.3001 99.0288 29.4361 99.0288 28.0321V26.8981C95.6268 26.7361 93.7638 27.0871 93.7638 28.6531Z" fill="white"/>
<path d="M108.979 18.7441V33.0001H105.118V18.7441H108.979ZM104.929 14.2891C104.929 13.1281 105.874 12.1831 107.035 12.1831C108.223 12.1831 109.168 13.1281 109.168 14.2891C109.168 15.4771 108.223 16.3951 107.035 16.3951C105.874 16.3951 104.929 15.4771 104.929 14.2891Z" fill="white"/>
<path d="M116.722 18.3661C120.772 18.3661 122.5 19.9321 122.689 22.9291H118.963C118.774 21.6061 117.883 21.2821 116.641 21.2821C115.507 21.2821 114.643 21.7141 114.643 22.5241C114.643 23.3881 115.345 23.8741 117.559 24.2251C121.312 24.7921 123.121 26.0881 123.121 28.8961C123.121 31.9201 120.367 33.3781 116.938 33.3781C112.888 33.3781 110.809 31.9471 110.431 28.7071H114.211C114.454 30.0031 115.264 30.4351 117.046 30.4351C118.45 30.4351 119.287 29.9761 119.287 29.2201C119.287 28.2751 118.315 27.7351 116.209 27.4111C112.429 26.7901 110.809 25.6561 110.809 22.7671C110.809 20.1481 113.131 18.3661 116.722 18.3661Z" fill="white"/>
<path d="M130.229 18.3661C134.279 18.3661 136.007 19.9321 136.196 22.9291H132.47C132.281 21.6061 131.39 21.2821 130.148 21.2821C129.014 21.2821 128.15 21.7141 128.15 22.5241C128.15 23.3881 128.852 23.8741 131.066 24.2251C134.819 24.7921 136.628 26.0881 136.628 28.8961C136.628 31.9201 133.874 33.3781 130.445 33.3781C126.395 33.3781 124.316 31.9471 123.938 28.7071H127.718C127.961 30.0031 128.771 30.4351 130.553 30.4351C131.957 30.4351 132.794 29.9761 132.794 29.2201C132.794 28.2751 131.822 27.7351 129.716 27.4111C125.936 26.7901 124.316 25.6561 124.316 22.7671C124.316 20.1481 126.638 18.3661 130.229 18.3661Z" fill="white"/>
<path d="M144.252 18.3661C148.464 18.3661 150.03 20.1751 150.219 22.6861C150.273 23.4151 150.3 24.0901 150.3 24.9001V33.0001H146.817L146.601 31.1101C145.953 33.0271 144.252 33.3781 142.146 33.3781C139.527 33.3781 137.475 31.8931 137.475 29.1121C137.475 25.5481 140.202 24.2521 145.71 24.2521H146.493V23.7391C146.493 22.3351 146.034 21.4441 144.09 21.4441C142.389 21.4441 141.633 22.0381 141.471 23.3611H137.934C138.042 20.2831 139.932 18.3661 144.252 18.3661ZM141.228 28.6531C141.228 29.7061 142.065 30.3001 143.388 30.3001C144.9 30.3001 146.493 29.4361 146.493 28.0321V26.8981C143.091 26.7361 141.228 27.0871 141.228 28.6531Z" fill="white"/>
<path d="M160.763 18.3661C163.76 18.3661 165.488 19.5541 165.839 22.1731C165.92 22.9021 165.947 23.5771 165.947 24.7381V33.0001H162.086V24.6841C162.086 22.7941 161.573 21.5791 159.44 21.5791C157.685 21.5251 156.443 22.7401 156.443 25.4401V33.0001H152.582V18.7441H156.119L156.281 21.0661C156.74 18.9601 158.414 18.3661 160.763 18.3661Z" fill="white"/>
<path d="M174.652 18.3661C179.188 18.3661 180.862 20.5531 181.132 23.7121H177.298C177.163 22.2271 176.137 21.4711 174.598 21.4711C172.627 21.4711 171.547 22.8481 171.547 25.8181C171.547 28.8151 172.519 30.2461 174.571 30.2461C176.029 30.2461 177.109 29.3551 177.298 28.0321H181.132C180.754 31.2721 178.621 33.3781 174.409 33.3781C169.657 33.3781 167.524 30.6511 167.524 25.8991C167.524 21.2011 169.657 18.3661 174.652 18.3661Z" fill="white"/>
<path d="M189.16 18.3661C193.831 18.3661 195.802 21.4171 195.802 25.6291C195.802 26.0341 195.775 26.5741 195.748 27.0331H186.001C186.244 29.4361 187.324 30.2731 189.106 30.2731C190.591 30.2731 191.428 29.7061 191.806 28.6531H195.559C195.046 31.6501 192.724 33.3781 189.025 33.3781C184.435 33.3781 182.059 30.8671 182.059 25.9531C182.059 21.3091 184.3 18.3661 189.16 18.3661ZM186.028 24.3331H191.914C191.698 22.2541 190.618 21.4441 188.998 21.4441C187.297 21.4441 186.271 22.2001 186.028 24.3331Z" fill="white"/>
</svg>
