<svg width="171" height="48" viewBox="0 0 171 48" fill="none" xmlns="http://www.w3.org/2000/svg">
<path d="M12.3463 5.5224C14.7728 4.51737 17.3736 4 20 4V14C18.6867 14 17.3864 14.2586 16.1731 14.7613C14.9599 15.2638 13.8575 16.0003 12.9289 16.9289C12.0003 17.8575 11.2638 18.9599 10.7613 20.1731C10.2586 21.3864 10 22.6867 10 24H0C0 21.3736 0.517371 18.7728 1.5224 16.3463C2.52754 13.9198 4.00069 11.7151 5.85783 9.85783C7.71509 8.00069 9.91977 6.52754 12.3463 5.5224Z" fill="white"/>
<path opacity="0.5" d="M0 24C0 26.6264 0.517371 29.2272 1.5224 31.6537C2.52754 34.0802 4.00069 36.2849 5.85783 38.1422C7.71509 39.9993 9.91977 41.4725 12.3463 42.4776C14.7728 43.4826 17.3736 44 20 44C22.6264 44 25.2272 43.4826 27.6537 42.4776C30.0802 41.4725 32.2849 39.9993 34.1422 38.1422C35.9993 36.2849 37.4725 34.0802 38.4776 31.6537C39.4826 29.2272 40 26.6264 40 24H30C30 25.3133 29.7414 26.6136 29.2387 27.8269C28.7362 29.0401 27.9997 30.1425 27.0711 31.0711C26.1425 31.9997 25.0401 32.7362 23.8269 33.2387C22.6136 33.7414 21.3133 34 20 34C18.6867 34 17.3864 33.7414 16.1731 33.2387C14.9599 32.7362 13.8575 31.9997 12.9289 31.0711C12.0003 30.1425 11.2638 29.0401 10.7613 27.8269C10.2586 26.6136 10 25.3133 10 24H0Z" fill="white"/>
<path opacity="0.5" d="M20.0004 17.6362C16.4858 17.6362 13.6367 20.4853 13.6367 23.9999H26.364C26.364 20.4853 23.5149 17.6362 20.0004 17.6362Z" fill="white"/>
<path d="M20.0004 30.3638C16.4858 30.3638 13.6367 27.5147 13.6367 24.0001H26.364C26.364 27.5147 23.5149 30.3638 20.0004 30.3638Z" fill="white"/>
<path d="M55.8857 32.5138C54.4817 31.9198 53.4017 31.0288 52.6457 29.8678C51.8897 28.7338 51.5117 27.3568 51.5117 25.7638H56.2367C56.2637 26.9518 56.6687 27.8968 57.4787 28.5448C58.2617 29.2198 59.3687 29.5438 60.7727 29.5438C62.1227 29.5438 63.2027 29.3008 63.9587 28.7878C64.7147 28.2748 65.0927 27.5728 65.0927 26.6818C65.0927 26.0608 64.8767 25.5748 64.4447 25.2238C64.0127 24.8998 63.4997 24.6568 62.8517 24.4948C62.2037 24.3598 61.3127 24.1978 60.1247 24.0358C58.4507 23.8198 57.0737 23.5768 56.0207 23.2528C54.9407 22.9558 54.0227 22.3888 53.2667 21.5248C52.5107 20.6608 52.1327 19.4458 52.1327 17.8258C52.1327 16.5028 52.4567 15.3418 53.1587 14.3428C53.8337 13.3438 54.8057 12.5878 56.0747 12.0478C57.3167 11.5078 58.8017 11.2378 60.5297 11.2378C62.2037 11.2378 63.7157 11.5348 65.0387 12.1018C66.3347 12.6958 67.3607 13.5058 68.1167 14.5588C68.8457 15.6118 69.2237 16.8538 69.2237 18.2578H64.5797C64.4717 17.2858 64.0667 16.5028 63.3647 15.9628C62.6627 15.4228 61.6907 15.1258 60.4487 15.1258C59.1527 15.1258 58.1807 15.3688 57.5057 15.8278C56.8037 16.2868 56.4797 16.9348 56.4797 17.7718C56.4797 18.4198 56.6957 18.9328 57.1277 19.2568C57.5597 19.6078 58.0997 19.8508 58.7477 19.9858C59.3957 20.1478 60.2867 20.2828 61.4747 20.4178C63.1487 20.6338 64.5257 20.9038 65.5787 21.2008C66.6317 21.4978 67.5497 22.0648 68.3057 22.9288C69.0617 23.7928 69.4667 25.0078 69.4667 26.6278C69.4667 27.9778 69.1157 29.1388 68.4137 30.1648C67.7117 31.1908 66.6857 32.0008 65.3627 32.5678C64.0397 33.1618 62.4737 33.4318 60.6647 33.4318C58.8557 33.4318 57.2627 33.1348 55.8857 32.5138Z" fill="white"/>
<path d="M74.417 32.4868C73.283 31.8388 72.419 30.9478 71.798 29.8138C71.177 28.6798 70.88 27.4108 70.88 25.9528C70.88 24.5218 71.177 23.2528 71.798 22.1188C72.419 20.9848 73.283 20.1208 74.417 19.4728C75.524 18.8518 76.793 18.5278 78.224 18.5278C79.466 18.5278 80.573 18.8518 81.572 19.4458C82.571 20.0398 83.354 20.9038 83.948 22.0108C84.515 23.1448 84.812 24.4138 84.812 25.8718V27.1678H74.957C75.038 28.1128 75.362 28.8418 75.902 29.3818C76.442 29.9218 77.225 30.1648 78.251 30.1648C78.926 30.1648 79.493 30.0028 79.925 29.6788C80.357 29.3548 80.627 28.9498 80.735 28.4368H84.731C84.515 29.9488 83.786 31.1638 82.598 32.0818C81.41 32.9998 79.952 33.4318 78.224 33.4318C76.793 33.4318 75.524 33.1348 74.417 32.4868ZM80.789 24.7108C80.735 23.9008 80.492 23.2528 80.006 22.7398C79.52 22.2538 78.872 21.9838 78.062 21.9838C77.144 21.9838 76.442 22.2268 75.929 22.7128C75.416 23.1988 75.092 23.8738 74.984 24.7108H80.789Z" fill="white"/>
<path d="M88.5758 37.6438C87.3878 36.8338 86.7398 35.6188 86.6048 33.9988H90.6278C90.6818 34.6198 91.0058 35.0788 91.5458 35.3758C92.0858 35.6728 92.7878 35.8078 93.6788 35.8078C94.7588 35.8078 95.5688 35.5108 96.1088 34.8898C96.6488 34.2958 96.8918 33.3508 96.8918 32.0548V31.0558C95.8928 32.4058 94.3268 33.0808 92.1938 33.0808C90.9788 33.0808 89.9258 32.8108 89.0078 32.2168C88.0898 31.6498 87.3878 30.8398 86.9018 29.7598C86.3888 28.6798 86.1458 27.4378 86.1458 26.0068C86.1458 24.5488 86.3888 23.2528 86.9018 22.1188C87.3878 20.9848 88.1168 20.1208 89.0348 19.4728C89.9528 18.8518 91.0058 18.5278 92.1938 18.5278C94.3268 18.5278 95.8928 19.2838 96.8918 20.7418V19.1998H100.915V32.0548C100.915 36.5908 98.4308 38.8318 93.4898 38.8318C91.3838 38.8318 89.7368 38.4538 88.5758 37.6438ZM95.9738 28.7068C96.5948 27.9778 96.9188 27.0328 96.9188 25.8448C96.9188 24.6838 96.5948 23.7118 95.9738 22.9558C95.3258 22.1998 94.5158 21.8218 93.5438 21.8218C92.5448 21.8218 91.7348 22.1998 91.0868 22.9558C90.4388 23.7118 90.1418 24.6838 90.1418 25.8448C90.1418 27.0058 90.4388 27.9508 91.0868 28.6798C91.7078 29.4358 92.5178 29.7868 93.5438 29.7868C94.5158 29.7868 95.3258 29.4358 95.9738 28.7068Z" fill="white"/>
<path d="M103.103 19.1998H107.099V20.9848C107.585 20.2288 108.206 19.6078 109.016 19.1758C109.826 18.7438 110.771 18.5278 111.851 18.5278C114.065 18.5278 115.577 19.4188 116.36 21.2008C117.629 19.4188 119.438 18.5278 121.814 18.5278C125.297 18.5278 127.052 20.7148 127.052 25.0618V32.9998H122.975V25.2778C122.975 24.2518 122.732 23.4688 122.246 22.8748C121.76 22.2808 121.085 21.9838 120.221 21.9838C119.249 21.9838 118.466 22.3348 117.899 23.0368C117.332 23.7388 117.062 24.6568 117.062 25.8178V32.9998H113.012V25.2778C113.012 24.2518 112.769 23.4688 112.283 22.8748C111.797 22.2808 111.122 21.9838 110.258 21.9838C109.286 21.9838 108.503 22.3348 107.936 23.0368C107.369 23.7388 107.099 24.6568 107.099 25.8178V32.9998H103.103V19.1998Z" fill="white"/>
<path d="M132.066 32.4868C130.932 31.8388 130.068 30.9478 129.447 29.8138C128.826 28.6798 128.529 27.4108 128.529 25.9528C128.529 24.5218 128.826 23.2528 129.447 22.1188C130.068 20.9848 130.932 20.1208 132.066 19.4728C133.173 18.8518 134.442 18.5278 135.873 18.5278C137.115 18.5278 138.222 18.8518 139.221 19.4458C140.22 20.0398 141.003 20.9038 141.597 22.0108C142.164 23.1448 142.461 24.4138 142.461 25.8718V27.1678H132.606C132.687 28.1128 133.011 28.8418 133.551 29.3818C134.091 29.9218 134.874 30.1648 135.9 30.1648C136.575 30.1648 137.142 30.0028 137.574 29.6788C138.006 29.3548 138.276 28.9498 138.384 28.4368H142.38C142.164 29.9488 141.435 31.1638 140.247 32.0818C139.059 32.9998 137.601 33.4318 135.873 33.4318C134.442 33.4318 133.173 33.1348 132.066 32.4868ZM138.438 24.7108C138.384 23.9008 138.141 23.2528 137.655 22.7398C137.169 22.2538 136.521 21.9838 135.711 21.9838C134.793 21.9838 134.091 22.2268 133.578 22.7128C133.065 23.1988 132.741 23.8738 132.633 24.7108H138.438Z" fill="white"/>
<path d="M144.146 19.1998H148.142V20.9848C148.628 20.2288 149.249 19.6078 150.059 19.1758C150.869 18.7438 151.814 18.5278 152.894 18.5278C156.35 18.5278 158.105 20.7148 158.105 25.0618V32.9998H154.055V25.2778C154.055 24.2518 153.812 23.4688 153.326 22.8748C152.84 22.2808 152.165 21.9838 151.301 21.9838C150.329 21.9838 149.546 22.3348 148.979 23.0368C148.412 23.7388 148.142 24.6568 148.142 25.8178V32.9998H144.146V19.1998Z" fill="white"/>
<path d="M166.065 33.1078C164.985 33.1078 164.148 32.9998 163.554 32.7838C162.933 32.5678 162.474 32.1898 162.204 31.6228C161.907 31.0558 161.772 30.2458 161.799 29.2198V22.6048H158.802V18.9598H161.799V15.1798H165.795V18.9598H169.467V22.6048H165.795V27.1678C165.795 27.8698 165.822 28.3558 165.876 28.6528C165.93 28.9768 166.092 29.1928 166.308 29.3278C166.524 29.4628 166.875 29.5168 167.388 29.5168C167.766 29.5168 168.849 29.4898 169.47 29.4358V32.9728C168.255 33.0808 166.74 33.1078 166.065 33.1078Z" fill="white"/>
</svg>
