<svg width="225" height="48" viewBox="0 0 225 48" fill="none" xmlns="http://www.w3.org/2000/svg">
<path d="M20 4V16.3604C20 19.087 16.6569 20.3998 14.8016 18.4017L7 10M40 24H27.6396C24.913 24 23.6002 20.6569 25.5983 18.8016L34 11M20 44V31.6396C20 28.913 23.3431 27.6002 25.1984 29.5983L33 38M0 24L12.3604 24C15.087 24 16.3998 27.3431 14.4017 29.1984L6 37" stroke="white" stroke-width="4"/>
<path d="M56.613 33.4594C51.483 33.4594 48.108 31.1914 48 26.9254H52.806C53.022 28.8694 54.291 29.6794 56.586 29.6794C58.152 29.6794 59.691 29.1124 59.691 27.6544C59.691 26.1154 58.125 25.7914 55.479 25.1434C52.131 24.3604 48.594 23.3344 48.594 19.2844C48.594 15.1534 51.942 13.3444 56.262 13.3444C60.447 13.3444 63.687 15.2344 63.876 19.2844H59.205C59.016 17.7994 57.882 16.9624 56.1 16.9624C54.426 16.9624 53.319 17.6914 53.319 18.7714C53.319 20.1214 54.804 20.4454 57.693 21.0934C61.284 21.9304 64.524 23.0374 64.524 27.1684C64.524 31.2184 61.068 33.4594 56.613 33.4594Z" fill="white"/>
<path d="M73.0904 30.3004C75.0074 30.3004 76.0334 28.6264 76.0334 26.1154C76.0334 23.6044 75.0074 21.9034 73.0904 21.9034C71.1734 21.9034 70.1744 23.6044 70.1744 26.1154C70.1744 28.6264 71.1734 30.3004 73.0904 30.3004ZM73.1174 33.4324C68.6894 33.4324 65.7194 30.2734 65.7194 26.1154C65.7194 21.9574 68.6894 18.7984 73.1174 18.7984C77.5724 18.7984 80.4884 21.9574 80.4884 26.1154C80.4884 30.2734 77.5724 33.4324 73.1174 33.4324Z" fill="white"/>
<path d="M82.0031 33.0004V13.6954H86.4581V33.0004H82.0031Z" fill="white"/>
<path d="M92.6443 33.3514C89.8903 33.3514 87.9463 31.8934 87.9463 29.1664C87.9463 26.1154 90.3763 25.1704 93.2383 24.7924C95.8303 24.4684 96.7483 24.1984 96.7483 23.2534C96.7483 22.3624 96.1543 21.7684 94.8043 21.7684C93.3733 21.7684 92.6983 22.3894 92.5903 23.5504H88.5403C88.6213 20.9854 90.5653 18.7984 94.7773 18.7984C96.8833 18.7984 98.5033 19.2574 99.5293 20.0944C100.582 20.9854 101.068 22.1464 101.068 23.8744V29.3014C101.068 30.1924 101.311 30.4084 101.986 30.3004H102.067V32.8654C101.716 33.0274 101.041 33.2434 100.15 33.2434C98.2603 33.2434 97.2883 32.6764 96.9643 31.3804H96.9373C96.1273 32.5144 94.8853 33.3514 92.6443 33.3514ZM94.0753 30.5434C95.7223 30.5434 96.8563 29.5444 96.8563 28.0594V26.4124C96.2893 26.7364 95.4793 26.9524 94.5883 27.1414C92.8873 27.5194 92.1853 27.9514 92.1853 29.0044C92.1853 30.0844 92.9953 30.5434 94.0753 30.5434Z" fill="white"/>
<path d="M103.202 33.0004V19.1764H107.66L107.414 21.3364H107.495C108.467 19.6894 109.601 18.9604 111.275 18.9604C111.68 18.9604 111.95 18.9874 112.139 19.0684V22.8484H112.031C109.331 22.4704 107.603 23.7934 107.603 26.7904V33.0004H103.202Z" fill="white"/>
<path d="M113.538 33.0004V19.1764H117.939V33.0004H113.538Z" fill="white"/>
<path d="M125.936 33.4324C121.886 33.4324 119.348 31.5694 119.213 28.5184H123.371C123.533 29.8954 124.451 30.5704 125.909 30.5704C127.232 30.5704 128.069 30.0844 128.069 29.1934C128.069 27.9514 126.395 27.8164 124.559 27.4924C122.156 27.0874 119.591 26.4394 119.591 23.1994C119.591 20.2834 122.291 18.7714 125.558 18.7714C129.473 18.7714 131.579 20.4724 131.795 23.1994H127.745C127.583 21.9574 126.746 21.5794 125.531 21.5794C124.451 21.5794 123.614 21.9844 123.614 22.8484C123.614 23.8204 125.18 23.9554 126.935 24.2794C129.365 24.6844 132.227 25.3054 132.227 28.8424C132.227 31.8664 129.554 33.4324 125.936 33.4324Z" fill="white"/>
<path d="M138.118 33.0004V13.6954H152.752V17.6374H142.897V21.0934H151.348V24.8194H142.897V28.9504H152.914V33.0004H138.118Z" fill="white"/>
<path d="M154.802 33.0004V19.1764H159.29L159.041 21.0664H159.122C160.148 19.5814 161.471 18.7714 163.388 18.7714C166.412 18.7714 168.194 20.9314 168.194 24.0094V33.0004H163.793V24.9004C163.793 23.4424 163.064 22.4434 161.633 22.4434C160.175 22.4434 159.203 23.6584 159.203 25.3594V33.0004H154.802Z" fill="white"/>
<path d="M176.951 33.4054C172.388 33.4054 169.58 30.2464 169.58 26.0614C169.58 21.9304 172.469 18.7714 176.681 18.7714C178.652 18.7714 180.218 19.4194 181.406 20.4994C183.053 22.0114 183.863 24.4144 183.836 27.2224H173.9C174.17 29.0854 175.196 30.2464 177.005 30.2464C178.166 30.2464 178.922 29.7334 179.3 28.8694H183.593C183.296 30.1114 182.486 31.2994 181.271 32.1364C180.11 32.9464 178.706 33.4054 176.951 33.4054ZM173.927 24.6034H179.381C179.219 22.9564 178.193 21.9034 176.762 21.9034C175.088 21.9034 174.224 22.9564 173.927 24.6034Z" fill="white"/>
<path d="M185.309 33.0004V19.1764H189.77L189.521 21.3364H189.602C190.574 19.6894 191.708 18.9604 193.382 18.9604C193.787 18.9604 194.057 18.9874 194.246 19.0684V22.8484H194.138C191.438 22.4704 189.71 23.7934 189.71 26.7904V33.0004H185.309Z" fill="white"/>
<path d="M201.807 37.7794C198 37.7794 195.489 36.2134 195.057 33.3244H199.323C199.566 34.0534 200.295 34.6744 201.753 34.6744C203.616 34.6744 204.399 33.7024 204.399 32.0284V30.6514H204.291C203.481 31.5694 202.428 32.2444 200.754 32.2444C197.649 32.2444 194.76 29.9224 194.76 25.6834C194.76 21.6334 197.136 18.7714 200.565 18.7714C202.401 18.7714 203.643 19.5004 204.453 20.6614H204.507L204.26 19.1764H208.719V31.6504C208.719 33.7294 207.99 35.2414 206.883 36.2404C205.668 37.3204 203.859 37.7794 201.807 37.7794ZM201.78 28.9774C203.697 28.9774 204.588 27.4654 204.588 25.5214C204.588 23.6584 203.616 22.0924 201.78 22.0924C200.133 22.0924 199.053 23.4424 199.053 25.5484C199.053 27.6274 200.133 28.9774 201.78 28.9774Z" fill="white"/>
<path d="M211.292 37.5634V34.1344H212.804C214.1 34.1344 214.613 33.6214 214.613 32.6764C214.613 32.0824 214.343 31.2724 213.776 29.8144L209.699 19.1764H214.343L216.206 25.0624C216.638 26.4124 217.07 28.2484 217.07 28.2484H217.124C217.124 28.2484 217.502 26.4124 217.934 25.0624L219.743 19.1764H224.144L219.365 33.1894C218.258 36.4294 216.935 37.5634 214.154 37.5634H211.292Z" fill="white"/>
<path d="M115.738 17.2593C114.357 17.2593 113.238 16.1405 113.238 14.7603C113.238 13.3801 114.357 12.2612 115.738 12.2612C117.118 12.2612 118.238 13.3801 118.238 14.7603C118.238 16.1405 117.118 17.2593 115.738 17.2593Z" fill="white"/>
</svg>
