<svg width="160" height="48" viewBox="0 0 160 48" fill="none" xmlns="http://www.w3.org/2000/svg">
<path d="M20 4C31.0457 4 40 12.9543 40 24C40 35.0457 31.0457 44 20 44C8.95431 44 0 35.0457 0 24C0 12.9543 8.95431 4 20 4ZM20.002 38.5537C18.1764 39.4114 16.3658 39.9931 14.6475 40.2822C16.3317 40.8356 18.1306 41.1367 20 41.1367C21.8691 41.1367 23.6676 40.8354 25.3516 40.2822C23.6346 39.993 21.826 39.4105 20.002 38.5537ZM7.32227 27.3457C7.1622 27.8141 7.02424 28.2752 6.91113 28.7275C6.02339 32.2785 6.6752 34.7162 7.98047 36.0215C9.28576 37.3267 11.7235 37.9776 15.2744 37.0898C15.7268 36.9767 16.1878 36.8388 16.6562 36.6787C14.8887 35.5239 13.1511 34.1208 11.5156 32.4854C9.88049 30.8502 8.47696 29.113 7.32227 27.3457ZM32.6787 27.3447C31.524 29.1122 30.1216 30.8501 28.4863 32.4854C26.8509 34.1208 25.1133 35.5239 23.3457 36.6787C23.8141 36.8388 24.2751 36.9767 24.7275 37.0898C28.2785 37.9776 30.7162 37.3258 32.0215 36.0205C33.3265 34.7152 33.9775 32.2782 33.0898 28.7275C32.9767 28.2749 32.8389 27.8134 32.6787 27.3447ZM20.001 12.8105C17.8586 13.983 15.6779 15.5965 13.6377 17.6367C11.5972 19.6772 9.984 21.8584 8.81152 24.001C9.98393 26.1431 11.5967 28.3243 13.6367 30.3643C15.677 32.4045 17.8585 34.017 20.001 35.1895C22.1434 34.017 24.3249 32.4046 26.3652 30.3643C28.4054 28.3241 30.017 26.1423 31.1895 24C30.017 21.8577 28.4044 19.6759 26.3643 17.6357C24.3242 15.5957 22.1432 13.9829 20.001 12.8105ZM3.7168 18.6455C3.16312 20.3302 2.86328 22.1301 2.86328 24C2.86328 25.8704 3.16385 27.6704 3.71777 29.3555C4.00677 27.6372 4.58881 25.8265 5.44629 24.001C4.58849 22.1751 4.00589 20.3641 3.7168 18.6455ZM36.2832 18.6494C35.9939 20.3666 35.4117 22.1757 34.5547 24C35.4118 25.8245 35.993 27.6342 36.2822 29.3516C36.8354 27.6676 37.1367 25.8691 37.1367 24C37.1367 22.1314 36.8361 20.3331 36.2832 18.6494ZM15.2734 10.9102C11.7225 10.0224 9.28476 10.6742 7.97949 11.9795C6.67436 13.2848 6.02349 15.7217 6.91113 19.2725C7.02428 19.725 7.16115 20.1867 7.32129 20.6553C8.47602 18.8878 9.88033 17.151 11.5156 15.5156C13.151 13.8802 14.8887 12.4761 16.6562 11.3213C16.1876 11.1611 15.7261 11.0233 15.2734 10.9102ZM32.0225 11.9795C30.7172 10.6742 28.2795 10.0234 24.7285 10.9111C24.2759 11.0243 23.8143 11.1611 23.3457 11.3213C25.113 12.476 26.8501 13.8795 28.4854 15.5146C30.1208 17.1501 31.5249 18.8877 32.6797 20.6553C32.8398 20.1869 32.9777 19.7258 33.0908 19.2734C33.9785 15.7225 33.3277 13.2848 32.0225 11.9795ZM20 6.86328C18.1304 6.86328 16.3309 7.1633 14.6465 7.7168C16.3648 8.00592 18.1754 8.58864 20.001 9.44629C21.8262 8.58886 23.6365 8.00694 25.3545 7.71777C23.6697 7.16403 21.87 6.86328 20 6.86328Z" fill="white"/>
<path d="M54.725 19.3651C54.725 23.2801 65.525 19.9591 65.525 27.4651C65.525 31.2451 62.393 33.4321 58.1 33.4321C53.753 33.4321 50.648 31.4341 50 27.2491H54.563C54.914 29.0581 56.183 30.0571 58.127 30.0571C60.071 30.0571 61.097 29.2741 61.097 28.0051C61.097 23.9011 50.27 27.0331 50.27 19.7701C50.27 16.6921 52.835 14.2081 57.344 14.2081C61.151 14.2081 64.445 16.0171 65.012 20.2561H60.395C60.017 18.4471 58.964 17.5831 57.182 17.5831C55.67 17.5831 54.725 18.2851 54.725 19.3651Z" fill="white"/>
<path d="M71.2465 38.9671H67.1155V18.4741H71.2465V19.9861C72.1375 18.7171 73.3795 18.0151 74.8915 18.0151C78.6445 18.0151 80.9935 20.9581 80.9935 25.7101C80.9935 30.6511 78.5905 33.4321 74.8915 33.4321C73.3525 33.4321 72.1105 32.7841 71.2465 31.5421V38.9671ZM74.0275 21.3631C72.1915 21.3631 71.2465 22.9021 71.2465 25.7101C71.2465 28.5181 72.2185 30.0841 74.0275 30.0841C75.8095 30.0841 76.7545 28.5451 76.7545 25.7101C76.7545 22.9021 75.7825 21.3631 74.0275 21.3631Z" fill="white"/>
<path d="M82.6331 33.0001V13.5601H86.7641V20.3911C87.7091 18.7711 89.1941 18.0151 90.9761 18.0151C93.7571 18.0151 95.8361 19.7161 95.8361 23.3071V33.0001H91.7051V24.1441C91.7051 22.3081 90.9761 21.3631 89.4641 21.3631C87.8171 21.3631 86.7641 22.7941 86.7641 24.6571V33.0001H82.6331Z" fill="white"/>
<path d="M111.787 28.2211C111.031 31.5691 108.331 33.4321 104.767 33.4321C100.258 33.4321 97.477 30.5161 97.477 25.7371C97.477 20.7961 100.285 18.0151 104.605 18.0151C108.952 18.0151 111.679 20.9041 111.679 25.6561V26.5741H101.689C101.905 28.8961 102.985 30.1381 104.767 30.1381C106.117 30.1381 107.035 29.5441 107.467 28.2211H111.787ZM104.605 21.3091C103.066 21.3091 102.094 22.3081 101.77 24.1981H107.413C107.089 22.3081 106.117 21.3091 104.605 21.3091Z" fill="white"/>
<path d="M113.405 33.0001V18.4741H117.536V20.4991C118.454 18.7711 119.858 18.0151 121.343 18.0151C121.937 18.0151 122.477 18.1771 122.774 18.4741V21.9571C122.288 21.8491 121.775 21.7951 121.127 21.7951C118.643 21.7951 117.536 23.1991 117.536 25.4941V33.0001H113.405Z" fill="white"/>
<path d="M132.796 26.8171V18.4741H136.927V33.0001H132.796V31.0561C131.851 32.6761 130.42 33.4321 128.665 33.4321C125.911 33.4321 123.886 31.7581 123.886 28.1401V18.4741H128.017V27.3031C128.017 29.1661 128.719 30.0841 130.177 30.0841C131.77 30.0841 132.796 28.6801 132.796 26.8171Z" fill="white"/>
<path d="M139.193 33.0001V13.5601H143.324V33.0001H139.193Z" fill="white"/>
<path d="M159.25 28.2211C158.494 31.5691 155.794 33.4321 152.23 33.4321C147.721 33.4321 144.94 30.5161 144.94 25.7371C144.94 20.7961 147.748 18.0151 152.068 18.0151C156.415 18.0151 159.142 20.9041 159.142 25.6561V26.5741H149.152C149.368 28.8961 150.448 30.1381 152.23 30.1381C153.58 30.1381 154.498 29.5441 154.93 28.2211H159.25ZM152.068 21.3091C150.529 21.3091 149.557 22.3081 149.233 24.1981H154.876C154.552 22.3081 153.58 21.3091 152.068 21.3091Z" fill="white"/>
</svg>
