<svg width="204" height="48" viewBox="0 0 204 48" fill="none" xmlns="http://www.w3.org/2000/svg">
<path d="M35.8177 36.8043C35.3172 37.8411 34.2674 38.5 33.1161 38.5H16.8085C14.5892 38.5 13.1382 36.1739 14.1141 34.1807L25.3765 11.1807C25.8802 10.1521 26.9256 9.5 28.0709 9.5L44.2195 9.5C46.4315 9.5 47.8828 11.8122 46.9212 13.8042L35.8177 36.8043Z" fill="white"/>
<path opacity="0.5" d="M6.87054 26.7399C7.92168 29.0424 11.1761 29.0886 12.2922 26.8169L18.676 13.8228C19.6553 11.8294 18.2044 9.5 15.9834 9.5L3.66755 9.5C1.48356 9.5 0.0314944 11.7591 0.938489 13.7459L6.87054 26.7399Z" fill="white"/>
<path d="M76.0653 16.844C76.5133 17.1987 77.2226 17.376 78.1933 17.376C79.1453 17.376 79.8453 17.1987 80.2933 16.844C80.7413 16.4707 80.9653 15.892 80.9653 15.108C80.9653 14.3053 80.7413 13.7267 80.2933 13.372C79.8453 12.9987 79.1453 12.812 78.1933 12.812C77.2226 12.812 76.5133 12.9987 76.0653 13.372C75.6359 13.7267 75.4213 14.3053 75.4213 15.108C75.4213 15.892 75.6359 16.4707 76.0653 16.844Z" fill="white"/>
<path d="M68.236 33L74.788 14.52H69.888L66.444 25.748L65.464 29.332L64.456 25.692L61.068 14.52H56L62.58 33H68.236Z" fill="white"/>
<path d="M89.0017 33.28C87.6017 33.28 86.2951 33.056 85.0817 32.608C83.8871 32.1413 82.8977 31.4787 82.1137 30.62L84.3537 27.988C84.8204 28.5853 85.4364 29.0893 86.2017 29.5C86.9857 29.892 87.8537 30.088 88.8057 30.088C89.3844 30.088 89.8604 30.004 90.2337 29.836C90.6071 29.668 90.7937 29.4067 90.7937 29.052C90.7937 28.7907 90.7004 28.5853 90.5137 28.436C90.327 28.268 89.9537 28.128 89.3937 28.016L87.4337 27.624C85.6791 27.2693 84.4284 26.7467 83.6817 26.056C82.9537 25.3467 82.5897 24.4227 82.5897 23.284C82.5897 22.5187 82.8231 21.7907 83.2897 21.1C83.7564 20.3907 84.4751 19.8213 85.4457 19.392C86.4164 18.944 87.6577 18.72 89.1697 18.72C90.5884 18.72 91.8391 18.9253 92.9217 19.336C94.0044 19.7467 94.8631 20.344 95.4977 21.128L93.2297 23.704C92.7817 23.144 92.2031 22.7053 91.4937 22.388C90.7844 22.0707 90.0751 21.912 89.3657 21.912C88.9177 21.912 88.5351 21.9587 88.2177 22.052C87.9191 22.1267 87.6951 22.2387 87.5457 22.388C87.3964 22.5373 87.3217 22.724 87.3217 22.948C87.3217 23.1907 87.4337 23.4053 87.6577 23.592C87.9004 23.76 88.3391 23.9093 88.9737 24.04L91.5217 24.544C92.9591 24.8053 93.9951 25.2813 94.6297 25.972C95.2644 26.6627 95.5817 27.4933 95.5817 28.464C95.5817 29.3787 95.3391 30.2 94.8537 30.928C94.3684 31.656 93.6404 32.2347 92.6697 32.664C91.6991 33.0747 90.4764 33.28 89.0017 33.28Z" fill="white"/>
<path d="M97.4634 16.844C97.9114 17.1987 98.6207 17.376 99.5914 17.376C100.543 17.376 101.243 17.1987 101.691 16.844C102.139 16.4707 102.363 15.892 102.363 15.108C102.363 14.3053 102.139 13.7267 101.691 13.372C101.243 12.9987 100.543 12.812 99.5914 12.812C98.6207 12.812 97.9114 12.9987 97.4634 13.372C97.0341 13.7267 96.8194 14.3053 96.8194 15.108C96.8194 15.892 97.0341 16.4707 97.4634 16.844Z" fill="white"/>
<path fill-rule="evenodd" clip-rule="evenodd" d="M111.184 18.72C112.659 18.72 113.947 19.0093 115.048 19.588C116.168 20.148 117.036 20.9787 117.652 22.08C118.287 23.1627 118.604 24.4693 118.604 26C118.604 27.5307 118.287 28.8467 117.652 29.948C117.036 31.0307 116.168 31.8613 115.048 32.44C113.947 33 112.659 33.28 111.184 33.28C109.747 33.28 108.468 33 107.348 32.44C106.228 31.8613 105.351 31.0307 104.716 29.948C104.1 28.8467 103.792 27.5307 103.792 26C103.792 24.4693 104.1 23.1627 104.716 22.08C105.351 20.9787 106.228 20.148 107.348 19.588C108.468 19.0093 109.747 18.72 111.184 18.72ZM111.184 22.108C110.643 22.108 110.176 22.2387 109.784 22.5C109.392 22.7613 109.093 23.1813 108.888 23.76C108.683 24.3387 108.58 25.0853 108.58 26C108.58 26.9147 108.683 27.6613 108.888 28.24C109.093 28.8 109.392 29.22 109.784 29.5C110.176 29.7613 110.643 29.892 111.184 29.892C111.744 29.892 112.22 29.7613 112.612 29.5C113.004 29.22 113.303 28.8 113.508 28.24C113.713 27.6613 113.816 26.9147 113.816 26C113.816 25.0853 113.713 24.3387 113.508 23.76C113.303 23.1813 113.004 22.7613 112.612 22.5C112.22 22.2387 111.744 22.108 111.184 22.108Z" fill="white"/>
<path d="M124.844 21.7947L124.698 19H120.442V33H125.202V25.58C125.202 24.796 125.314 24.1707 125.538 23.704C125.762 23.2373 126.07 22.9013 126.462 22.696C126.854 22.472 127.274 22.36 127.722 22.36C128.3 22.36 128.776 22.5467 129.15 22.92C129.523 23.2933 129.71 23.9653 129.71 24.936V33H134.47V23.676C134.47 22.5747 134.264 21.66 133.854 20.932C133.443 20.204 132.874 19.6533 132.146 19.28C131.436 18.9067 130.596 18.72 129.626 18.72C128.73 18.72 127.918 18.8973 127.19 19.252C126.48 19.588 125.883 20.092 125.398 20.764C125.184 21.0722 124.999 21.4158 124.844 21.7947Z" fill="white"/>
<path d="M152.843 29.332L155.223 19H160.207L155.979 33H150.267L147.719 24.404L145.255 33H139.571L135.315 19H140.327L142.679 29.332L145.423 19H150.127L152.843 29.332Z" fill="white"/>
<path fill-rule="evenodd" clip-rule="evenodd" d="M171.426 19.588C170.325 19.0093 169.037 18.72 167.562 18.72C166.125 18.72 164.846 19.0093 163.726 19.588C162.606 20.148 161.729 20.9787 161.094 22.08C160.478 23.1627 160.17 24.4693 160.17 26C160.17 27.5307 160.478 28.8467 161.094 29.948C161.729 31.0307 162.606 31.8613 163.726 32.44C164.846 33 166.125 33.28 167.562 33.28C169.037 33.28 170.325 33 171.426 32.44C172.546 31.8613 173.414 31.0307 174.03 29.948C174.665 28.8467 174.982 27.5307 174.982 26C174.982 24.4693 174.665 23.1627 174.03 22.08C173.414 20.9787 172.546 20.148 171.426 19.588ZM166.162 22.5C166.554 22.2387 167.021 22.108 167.562 22.108C168.122 22.108 168.598 22.2387 168.99 22.5C169.382 22.7613 169.681 23.1813 169.886 23.76C170.092 24.3387 170.194 25.0853 170.194 26C170.194 26.9147 170.092 27.6613 169.886 28.24C169.681 28.8 169.382 29.22 168.99 29.5C168.598 29.7613 168.122 29.892 167.562 29.892C167.021 29.892 166.554 29.7613 166.162 29.5C165.77 29.22 165.472 28.8 165.266 28.24C165.061 27.6613 164.958 26.9147 164.958 26C164.958 25.0853 165.061 24.3387 165.266 23.76C165.472 23.1813 165.77 22.7613 166.162 22.5Z" fill="white"/>
<path d="M182 24.152C181.72 24.6187 181.58 25.216 181.58 25.944V33H176.82V19H181.02L181.216 22.024C181.571 20.9787 182.093 20.1667 182.784 19.588C183.493 19.0093 184.389 18.72 185.472 18.72C185.827 18.72 186.125 18.748 186.368 18.804C186.629 18.86 186.835 18.9347 186.984 19.028L186.508 22.948C186.321 22.8733 186.079 22.8173 185.78 22.78C185.5 22.724 185.155 22.696 184.744 22.696C184.184 22.696 183.661 22.8173 183.176 23.06C182.691 23.3027 182.299 23.6667 182 24.152Z" fill="white"/>
<path d="M198.227 24.5L203.383 19H198.091L192.771 24.8825V13.064H188.011V33H192.771V29.7722L195.024 27.2515L198.427 33H203.691L198.227 24.5Z" fill="white"/>
<path d="M80.5733 33V19H75.8133V33H80.5733Z" fill="white"/>
<path d="M101.971 33V19H97.2114V33H101.971Z" fill="white"/>
</svg>
