<svg width="201" height="48" viewBox="0 0 201 48" fill="none" xmlns="http://www.w3.org/2000/svg">
<path fill-rule="evenodd" clip-rule="evenodd" d="M18.3279 33.2066C19.157 32.2118 20.3851 31.6365 21.6802 31.6365H39.2727C44.0927 31.6365 48 27.7292 48 22.9093V18.5456C48 13.7257 44.0927 9.81836 39.2727 9.81836H35.862C34.567 9.81836 33.3388 10.3936 32.5098 11.3885L29.6721 14.7937C28.843 15.7886 27.6149 16.3638 26.3198 16.3638H8.72727C3.90733 16.3638 0 20.2711 0 25.0911V29.4547C0 34.2747 3.90733 38.182 8.72727 38.182H12.138C13.433 38.182 14.6612 37.6068 15.4902 36.6119L18.3279 33.2066ZM41.4545 18.5456C41.4545 17.3406 40.4777 16.3638 39.2727 16.3638H32.5893C31.2942 16.3638 30.0661 16.939 29.237 17.9339L26.3993 21.3392C25.5703 22.334 24.3421 22.9093 23.0471 22.9093H8.72727C7.52229 22.9093 6.54545 23.8861 6.54545 25.0911V29.4547C6.54545 30.6597 7.52229 31.6365 8.72727 31.6365H15.4107C16.7058 31.6365 17.9339 31.0613 18.763 30.0664L21.6007 26.6612C22.4297 25.6663 23.6579 25.0911 24.9529 25.0911H39.2727C40.4777 25.0911 41.4545 24.1143 41.4545 22.9093V18.5456Z" fill="white"/>
<path d="M75.145 33.0001L72.148 22.4431L71.716 20.4991L71.257 22.4431L68.287 33.0001H63.427L58 14.6401H62.617L65.56 26.6821L66.046 28.8691L66.532 26.6821L69.934 14.6401H73.714L77.089 26.6821L77.575 28.8691L78.061 26.6821L81.004 14.6401H85.378L79.951 33.0001H75.145Z" fill="white"/>
<path d="M89.6634 23.2801H85.5324C85.9644 20.0131 88.4754 18.0151 92.2014 18.0151C96.3594 18.0151 98.5194 20.4451 98.5194 23.8201V29.3821C98.5194 31.2721 98.6814 32.2441 98.9244 33.0001H94.6584C94.5234 32.5141 94.4424 31.8931 94.4154 31.1911C93.2814 32.7571 91.5534 33.4321 89.8254 33.4321C87.0714 33.4321 85.0194 32.0281 85.0194 29.2471C85.0194 27.2761 86.1534 25.7641 88.4484 24.9541C90.3384 24.3331 92.1474 24.1441 94.3884 24.1171V23.7931C94.3884 22.2001 93.6054 21.3631 92.0124 21.3631C90.6084 21.3631 89.8524 22.1461 89.6634 23.2801ZM89.1504 28.9771C89.1504 29.9491 89.8794 30.5701 91.0944 30.5701C92.9304 30.5701 94.3884 29.0851 94.3884 27.0871V26.5201C90.2034 26.6011 89.1504 27.6271 89.1504 28.9771Z" fill="white"/>
<path d="M100.92 33.0001V18.4741H105.051V20.4991C105.969 18.7711 107.373 18.0151 108.858 18.0151C109.452 18.0151 109.992 18.1771 110.289 18.4741V21.9571C109.803 21.8491 109.29 21.7951 108.642 21.7951C106.158 21.7951 105.051 23.1991 105.051 25.4941V33.0001H100.92Z" fill="white"/>
<path d="M115.533 38.9671H111.402V18.4741H115.533V19.9861C116.424 18.7171 117.666 18.0151 119.178 18.0151C122.931 18.0151 125.28 20.9581 125.28 25.7101C125.28 30.6511 122.877 33.4321 119.178 33.4321C117.639 33.4321 116.397 32.7841 115.533 31.5421V38.9671ZM118.314 21.3631C116.478 21.3631 115.533 22.9021 115.533 25.7101C115.533 28.5181 116.505 30.0841 118.314 30.0841C120.096 30.0841 121.041 28.5451 121.041 25.7101C121.041 22.9021 120.069 21.3631 118.314 21.3631Z" fill="white"/>
<path d="M130.51 22.4971C130.51 25.3591 139.501 22.8481 139.501 28.5991C139.501 31.4611 136.855 33.4321 133.075 33.4321C129.403 33.4321 126.757 31.8121 126.217 28.2211H130.348C130.537 29.5711 131.644 30.3001 133.183 30.3001C134.641 30.3001 135.37 29.7331 135.37 28.8421C135.37 26.0341 126.568 28.5451 126.568 22.7131C126.568 20.2831 128.539 18.0151 132.427 18.0151C135.91 18.0151 138.556 19.6081 138.961 23.2801H134.857C134.614 21.7951 133.75 21.1741 132.292 21.1741C131.212 21.1741 130.51 21.7141 130.51 22.4971Z" fill="white"/>
<path d="M145.17 38.9671H141.039V18.4741H145.17V19.9861C146.061 18.7171 147.303 18.0151 148.815 18.0151C152.568 18.0151 154.917 20.9581 154.917 25.7101C154.917 30.6511 152.514 33.4321 148.815 33.4321C147.276 33.4321 146.034 32.7841 145.17 31.5421V38.9671ZM147.951 21.3631C146.115 21.3631 145.17 22.9021 145.17 25.7101C145.17 28.5181 146.142 30.0841 147.951 30.0841C149.733 30.0841 150.678 28.5451 150.678 25.7101C150.678 22.9021 149.706 21.3631 147.951 21.3631Z" fill="white"/>
<path d="M170.246 28.2211C169.49 31.5691 166.79 33.4321 163.226 33.4321C158.717 33.4321 155.936 30.5161 155.936 25.7371C155.936 20.7961 158.744 18.0151 163.064 18.0151C167.411 18.0151 170.138 20.9041 170.138 25.6561V26.5741H160.148C160.364 28.8961 161.444 30.1381 163.226 30.1381C164.576 30.1381 165.494 29.5441 165.926 28.2211H170.246ZM163.064 21.3091C161.525 21.3091 160.553 22.3081 160.229 24.1981H165.872C165.548 22.3081 164.576 21.3091 163.064 21.3091Z" fill="white"/>
<path d="M185.553 28.2211C184.797 31.5691 182.097 33.4321 178.533 33.4321C174.024 33.4321 171.243 30.5161 171.243 25.7371C171.243 20.7961 174.051 18.0151 178.371 18.0151C182.718 18.0151 185.445 20.9041 185.445 25.6561V26.5741H175.455C175.671 28.8961 176.751 30.1381 178.533 30.1381C179.883 30.1381 180.801 29.5441 181.233 28.2211H185.553ZM178.371 21.3091C176.832 21.3091 175.86 22.3081 175.536 24.1981H181.179C180.855 22.3081 179.883 21.3091 178.371 21.3091Z" fill="white"/>
<path d="M192.624 33.4321C188.898 33.4321 186.549 30.5161 186.549 25.7371C186.549 20.7961 188.952 18.0151 192.624 18.0151C194.163 18.0151 195.405 18.6631 196.296 19.9051V13.5601H200.427V33.0001H196.296V31.4611C195.405 32.7301 194.136 33.4321 192.624 33.4321ZM193.515 30.0841C195.351 30.0841 196.296 28.5721 196.296 25.7371C196.296 22.9291 195.324 21.3631 193.515 21.3631C191.733 21.3631 190.788 22.9021 190.788 25.7371C190.788 28.5451 191.76 30.0841 193.515 30.0841Z" fill="white"/>
</svg>
