<svg width="210" height="48" viewBox="0 0 210 48" fill="none" xmlns="http://www.w3.org/2000/svg">
<circle cx="20" cy="24" r="18.5" stroke="white" stroke-width="3"/>
<circle cx="15.75" cy="19.75" r="12.5" stroke="white" stroke-width="3"/>
<circle cx="20" cy="24" r="6.5" stroke="white" stroke-width="3"/>
<path d="M55.55 32.9999L50 11.9999H54.11L57.89 28.7099L62.33 11.9999H66.56L70.88 28.7099L74.66 11.9999H78.8L73.1 32.9999H68.54L64.37 17.4299L60.08 32.9999H55.55Z" fill="white"/>
<path d="M83.1238 33.3599C81.8438 33.3599 80.7938 33.1599 79.9738 32.7599C79.1538 32.3399 78.5438 31.7899 78.1438 31.1099C77.7438 30.4299 77.5438 29.6799 77.5438 28.8599C77.5438 27.4799 78.0838 26.3599 79.1638 25.4999C80.2438 24.6399 81.8638 24.2099 84.0238 24.2099H87.8038V23.8499C87.8038 22.8299 87.5138 22.0799 86.9338 21.5999C86.3538 21.1199 85.6338 20.8799 84.7738 20.8799C83.9938 20.8799 83.3137 21.0699 82.7337 21.4499C82.1537 21.8099 81.7938 22.3499 81.6538 23.0699H77.9038C78.0038 21.9899 78.3638 21.0499 78.9838 20.2499C79.6238 19.4499 80.4438 18.8399 81.4438 18.4199C82.4438 17.9799 83.5638 17.7599 84.8038 17.7599C86.9238 17.7599 88.5938 18.2899 89.8138 19.3499C91.0338 20.4099 91.6438 21.9099 91.6438 23.8499V32.9999H88.3738L88.0138 30.5999C87.5738 31.3999 86.9538 32.0599 86.1538 32.5799C85.3738 33.0999 84.3638 33.3599 83.1238 33.3599ZM83.9938 30.3599C85.0938 30.3599 85.9438 29.9999 86.5438 29.2799C87.1638 28.5599 87.5538 27.6699 87.7138 26.6099H84.4438C83.4238 26.6099 82.6937 26.7999 82.2537 27.1799C81.8137 27.5399 81.5938 27.9899 81.5938 28.5299C81.5938 29.1099 81.8137 29.5599 82.2537 29.8799C82.6937 30.1999 83.2738 30.3599 83.9938 30.3599Z" fill="white"/>
<path d="M99.9331 32.9999C98.3731 32.9999 97.1231 32.6199 96.1831 31.8599C95.2431 31.0999 94.7731 29.7499 94.7731 27.8099V21.3299H92.2231V18.1199H94.7731L95.2231 14.1299H98.6131V18.1199H102.633V21.3299H98.6131V27.8399C98.6131 28.5599 98.7631 29.0599 99.0631 29.3399C99.3831 29.5999 99.9231 29.7299 100.683 29.7299H102.543V32.9999H99.9331Z" fill="white"/>
<path d="M111.039 33.3599C109.519 33.3599 108.179 33.0299 107.019 32.3699C105.859 31.7099 104.939 30.7899 104.259 29.6099C103.599 28.4299 103.269 27.0799 103.269 25.5599C103.269 24.0399 103.599 22.6899 104.259 21.5099C104.939 20.3299 105.859 19.4099 107.019 18.7499C108.179 18.0899 109.519 17.7599 111.039 17.7599C112.939 17.7599 114.539 18.2599 115.839 19.2599C117.139 20.2399 117.969 21.5999 118.329 23.3399H114.279C114.079 22.6199 113.679 22.0599 113.079 21.6599C112.499 21.2399 111.809 21.0299 111.009 21.0299C109.949 21.0299 109.049 21.4299 108.309 22.2299C107.569 23.0299 107.199 24.1399 107.199 25.5599C107.199 26.9799 107.569 28.0899 108.309 28.8899C109.049 29.6899 109.949 30.0899 111.009 30.0899C111.809 30.0899 112.499 29.8899 113.079 29.4899C113.679 29.0899 114.079 28.5199 114.279 27.7799H118.329C117.969 29.4599 117.139 30.8099 115.839 31.8299C114.539 32.8499 112.939 33.3599 111.039 33.3599Z" fill="white"/>
<path d="M119.938 32.9999V11.3999H123.778V20.3999C124.278 19.5799 124.948 18.9399 125.788 18.4799C126.648 17.9999 127.628 17.7599 128.728 17.7599C130.568 17.7599 131.988 18.3399 132.988 19.4999C134.008 20.6599 134.518 22.3599 134.518 24.5999V32.9999H130.708V24.9599C130.708 23.6799 130.448 22.6999 129.928 22.0199C129.428 21.3399 128.628 20.9999 127.528 20.9999C126.448 20.9999 125.548 21.3799 124.828 22.1399C124.128 22.8999 123.778 23.9599 123.778 25.3199V32.9999H119.938Z" fill="white"/>
<path d="M143.019 32.9999C141.459 32.9999 140.209 32.6199 139.269 31.8599C138.329 31.0999 137.859 29.7499 137.859 27.8099V21.3299H135.309V18.1199H137.859L138.309 14.1299H141.699V18.1199H145.719V21.3299H141.699V27.8399C141.699 28.5599 141.849 29.0599 142.149 29.3399C142.469 29.5999 143.009 29.7299 143.769 29.7299H145.629V32.9999H143.019Z" fill="white"/>
<path d="M153.976 33.3599C152.536 33.3599 151.236 33.0299 150.076 32.3699C148.936 31.7099 148.026 30.7999 147.346 29.6399C146.686 28.4599 146.356 27.0999 146.356 25.5599C146.356 24.0199 146.696 22.6699 147.376 21.5099C148.056 20.3299 148.966 19.4099 150.106 18.7499C151.266 18.0899 152.566 17.7599 154.006 17.7599C155.426 17.7599 156.706 18.0899 157.846 18.7499C159.006 19.4099 159.916 20.3299 160.576 21.5099C161.256 22.6699 161.596 24.0199 161.596 25.5599C161.596 27.0999 161.256 28.4599 160.576 29.6399C159.916 30.7999 159.006 31.7099 157.846 32.3699C156.686 33.0299 155.396 33.3599 153.976 33.3599ZM153.976 30.0299C154.976 30.0299 155.846 29.6599 156.586 28.9199C157.326 28.1599 157.696 27.0399 157.696 25.5599C157.696 24.0799 157.326 22.9699 156.586 22.2299C155.846 21.4699 154.986 21.0899 154.006 21.0899C152.986 21.0899 152.106 21.4699 151.366 22.2299C150.646 22.9699 150.286 24.0799 150.286 25.5599C150.286 27.0399 150.646 28.1599 151.366 28.9199C152.106 29.6599 152.976 30.0299 153.976 30.0299Z" fill="white"/>
<path d="M165.612 32.9999L161.262 18.1199H165.072L167.652 28.8299L170.652 18.1199H174.912L177.912 28.8299L180.522 18.1199H184.332L179.952 32.9999H175.962L172.782 21.8699L169.602 32.9999H165.612Z" fill="white"/>
<path d="M191.657 33.3599C190.157 33.3599 188.827 33.0399 187.667 32.3999C186.507 31.7599 185.597 30.8599 184.937 29.6999C184.277 28.5399 183.947 27.1999 183.947 25.6799C183.947 24.1399 184.267 22.7699 184.907 21.5699C185.567 20.3699 186.467 19.4399 187.607 18.7799C188.767 18.0999 190.127 17.7599 191.687 17.7599C193.147 17.7599 194.437 18.0799 195.557 18.7199C196.677 19.3599 197.547 20.2399 198.167 21.3599C198.807 22.4599 199.127 23.6899 199.127 25.0499C199.127 25.2699 199.117 25.4999 199.097 25.7399C199.097 25.9799 199.087 26.2299 199.067 26.4899H187.757C187.837 27.6499 188.237 28.5599 188.957 29.2199C189.697 29.8799 190.587 30.2099 191.627 30.2099C192.407 30.2099 193.057 30.0399 193.577 29.6999C194.117 29.3399 194.517 28.8799 194.777 28.3199H198.677C198.397 29.2599 197.927 30.1199 197.267 30.8999C196.627 31.6599 195.827 32.2599 194.867 32.6999C193.927 33.1399 192.857 33.3599 191.657 33.3599ZM191.687 20.8799C190.747 20.8799 189.917 21.1499 189.197 21.6899C188.477 22.2099 188.017 23.0099 187.817 24.0899H195.227C195.167 23.1099 194.807 22.3299 194.147 21.7499C193.487 21.1699 192.667 20.8799 191.687 20.8799Z" fill="white"/>
<path d="M200.557 32.9999V18.1199H203.977L204.337 20.9099C204.877 19.9499 205.607 19.1899 206.527 18.6299C207.467 18.0499 208.567 17.7599 209.827 17.7599V21.8099H208.747C207.907 21.8099 207.157 21.9399 206.497 22.1999C205.837 22.4599 205.317 22.9099 204.937 23.5499C204.577 24.1899 204.397 25.0799 204.397 26.2199V32.9999H200.557Z" fill="white"/>
</svg>
